<svg width="729" height="54" viewBox="0 0 729 54" fill="none" xmlns="http://www.w3.org/2000/svg">
<g filter="url(#filter0_d_1_514)">
<path d="M15.86 31.0699C15.86 27.4699 12.98 25.0399 9.515 24.9499C8.615 24.9049 7.895 24.9499 6.995 25.1299V21.0349C12.035 20.4949 14.195 18.0649 14.195 15.3649C14.195 12.4399 11.945 10.9999 9.335 10.9999C6.68 10.9999 4.475 12.3049 2.72 13.7449V8.74988C4.295 7.93988 7.085 7.03988 11 7.08488C17.84 7.12988 20.9 10.0999 20.9 15.0049C20.855 19.0999 16.76 21.7549 14.015 22.3849V22.6549C17.255 22.8799 22.655 25.3099 22.655 30.8899C22.655 37.9099 17.615 41.4199 9.38 41.4649C6.635 41.4649 4.43 41.1049 2.315 40.3849L2 36.2449C4.205 37.0999 6.545 37.4149 8.345 37.3249C13.43 37.0999 15.86 35.7049 15.86 31.0699ZM41.8616 41.5999C35.0666 41.5999 29.8916 35.2999 29.8916 24.8599C29.8916 12.8899 35.9216 7.08488 42.2666 7.08488C49.2866 7.08488 54.1466 13.6549 54.1466 24.0049C54.1466 35.3449 49.9166 41.6449 41.8616 41.5999ZM42.2216 37.8199C46.0916 37.8199 47.1716 31.8799 47.1716 24.0949C47.1716 17.0749 45.8216 10.8649 42.0416 10.8649C38.7566 10.8649 36.8666 16.8949 36.8666 24.4999C36.8666 31.9249 38.6666 37.8199 42.2216 37.8199ZM90.8131 6.13988H100.353V9.06488H90.8131V11.9449H84.5581V9.06488H76.5481V11.9449H70.2931V9.06488H60.7981V6.13988H70.2931V3.03488H76.5481V6.13988H84.5581V3.03488H90.8131V6.13988ZM83.6131 25.8049V27.7399H98.6431V39.6649C98.6431 44.6599 93.4231 45.9649 86.0431 42.7699L86.5381 40.3849C91.8481 40.9699 92.6131 40.6549 92.6131 38.0899V37.5499L89.0581 39.8449C88.6081 38.8099 88.1581 37.7299 87.6181 36.6499C82.7131 38.5849 76.1431 40.1599 70.3831 41.0149L69.3031 35.7049C72.0931 35.5699 74.7931 35.4349 77.3581 35.2549V30.6649H68.5381V44.2099H62.4181V27.7399H77.3581V25.8049H65.4781V12.8449H95.4031V25.8049H83.6131ZM71.3731 15.7249V17.8849H77.3581V15.7249H71.3731ZM83.6131 15.7249V17.8849H89.5531V15.7249H83.6131ZM71.3731 22.9699H77.3581V20.7199H71.3731V22.9699ZM83.6131 20.7199V22.9699H89.5531V20.7199H83.6131ZM86.8981 30.6649H83.6131V34.6699C84.6031 34.5349 85.5481 34.4449 86.4931 34.3099C86.0881 33.4549 85.6381 32.6449 85.2331 31.8799L86.8981 30.6649ZM92.6131 36.3799V30.6649H87.2581C89.4631 32.4649 91.2181 34.4449 92.6131 36.3799ZM118.173 30.8899C119.748 30.4399 121.323 29.9449 122.853 29.4049L123.888 31.6099C119.433 34.8499 113.538 37.6399 108.498 39.5749L106.698 33.2749C108.408 33.0499 110.163 32.7349 112.008 32.3749V17.9749H107.508V15.0049H112.008V3.21488H118.173V15.0049H122.538V17.9749H118.173V30.8899ZM137.073 25.1749H147.243V28.2349H137.073V44.8399H130.503V28.2349H120.333V25.1749H130.503V21.7999L125.328 23.6899C124.473 19.3249 123.348 14.8249 122.178 10.9549L124.428 10.0099C126.588 12.6649 129.063 16.8049 130.503 20.3149V8.07488H121.818V5.10488H145.893V8.07488H137.073V21.9349C138.558 17.9749 139.773 13.5199 140.448 9.51488L146.433 11.8549C144.813 15.8599 141.663 20.8549 139.008 23.6449L137.073 22.6549V25.1749ZM156.423 6.45488H191.838V42.8599H185.538V39.1249H162.723V42.9499H156.423V6.45488ZM162.723 35.4349H185.538V30.0799H181.128C176.673 30.0799 175.863 28.9099 175.863 23.9599V10.1449H172.488C172.398 22.1599 170.823 29.3149 162.723 33.4099V35.4349ZM166.773 10.1449H162.723V29.4949C166.143 25.3999 166.728 21.0349 166.773 10.1449ZM185.538 24.9049V10.1449H181.488V23.0149C181.488 24.4999 181.983 24.9049 183.288 24.9049H185.538ZM224.643 30.9799V31.4299H240.573V34.6249H224.643V39.3949C224.643 45.3349 218.433 46.2799 211.053 42.5449L211.638 40.0249C217.578 40.6999 218.073 40.2949 218.073 38.0449V34.6249H201.513V31.4299H218.073V28.2799L221.988 29.0449C223.338 28.0999 224.418 27.1549 225.408 26.0749H208.398V23.3299C206.238 24.3649 203.898 25.2199 201.468 25.8949L200.523 23.5099C205.923 21.0349 209.703 18.2899 213.078 14.3749H202.413V11.1799H217.353V9.01988C212.763 9.19988 208.353 9.15488 204.798 9.01988L204.528 6.58988C215.463 6.09488 224.913 4.60988 231.618 2.31488L236.343 6.99488C232.653 7.80488 228.333 8.34488 223.923 8.65988V11.1799H239.538V14.3749H225.993C230.628 17.2999 235.308 18.6499 241.338 19.6849L238.908 25.3549C234.138 24.1399 228.423 21.3049 223.923 16.5349V21.9349H217.353V17.1199C214.968 19.5049 212.178 21.4399 209.028 23.0149H226.218L227.838 22.1149L233.418 26.0749C231.123 27.9199 227.703 29.7649 224.643 30.9799ZM247.728 24.7699C248.853 24.7699 249.933 24.7699 251.013 24.7249C252.498 22.6999 253.893 20.4949 255.198 18.1099C253.128 18.8299 251.058 19.2799 249.078 19.5949L247.998 14.2849C248.853 14.3299 249.663 14.3749 250.518 14.3749C251.823 10.7749 252.768 7.21988 253.668 2.80988L259.608 4.51988C258.033 8.11988 256.008 11.6299 253.848 14.4199C254.928 14.4199 256.008 14.4199 257.088 14.3749C257.988 12.4399 258.798 10.4599 259.473 8.47988L265.008 10.8649C262.623 15.5449 258.573 20.8549 255.018 24.4549C256.458 24.3199 257.853 24.1399 259.293 23.9599C258.978 23.1049 258.708 22.2949 258.393 21.4849L260.418 20.3599C262.308 22.6549 263.883 25.4449 265.098 28.1899L261.048 30.0349C260.778 28.9549 260.463 27.8299 260.148 26.7049C256.278 28.5949 252.318 29.5849 248.988 30.2149L247.728 24.7699ZM288.723 35.8399L284.538 40.4749C282.783 38.2699 280.578 35.7949 278.238 33.4099V39.0799C278.238 44.9299 272.298 46.1899 265.773 42.0949L266.403 39.6649C271.533 40.3849 272.118 40.1599 272.118 37.3699V33.4999C270.318 35.4799 268.113 37.2349 265.458 38.8999L262.938 33.9949C266.133 33.0049 268.878 31.7449 272.118 29.8549V27.4699L268.878 30.7999C267.303 28.5949 265.143 26.1199 263.478 24.3649L264.783 22.5649C266.898 23.3749 269.958 25.1299 272.118 26.9749V21.4399H262.713V18.5149H275.628C275.898 17.5249 276.123 16.5799 276.348 15.6799H270.453L269.778 17.8399L264.558 16.9849C266.133 12.0799 267.168 7.89488 267.978 2.89988L273.378 3.66488C273.198 4.42988 273.063 5.14988 272.928 5.82488H277.653L278.868 4.78988L283.908 6.63488C283.143 10.2799 282.288 14.5549 281.163 18.5149H287.283V21.4399H278.238V29.3599C279.993 27.1099 281.523 24.4999 282.603 22.0249L287.193 24.9949C285.528 27.0199 282.783 29.1799 280.308 30.5299C283.458 32.1049 286.653 34.0849 288.723 35.8399ZM271.263 12.7549H277.023C277.338 11.3149 277.608 9.96488 277.788 8.74988H272.253C271.938 10.0999 271.623 11.4049 271.263 12.7549ZM257.538 30.1699L259.518 29.2699C261.588 32.0599 263.568 36.1549 264.513 38.7199L260.193 40.4299C259.563 37.3699 258.573 33.2749 257.538 30.1699ZM254.118 30.8899L256.323 30.5299C257.493 33.9499 258.798 38.8099 259.428 42.0949L254.343 42.8599C254.388 39.7549 254.343 34.5349 254.118 30.8899ZM250.698 30.8449L252.993 31.0699C253.173 35.4799 252.993 41.1049 252.228 44.4349L247.053 42.6349C248.673 39.6199 249.933 35.2099 250.698 30.8449ZM334.848 26.9299H331.338C331.158 29.8549 330.933 32.4649 330.753 34.8499H334.173V37.9099H330.438C330.393 38.1349 330.393 38.3599 330.348 38.5849C329.808 43.5349 325.983 47.1799 317.073 42.5899L317.703 39.8899C322.968 40.6099 323.778 40.3849 324.183 37.9099H312.078L311.673 40.2949L305.733 39.7099C306.543 35.7499 307.218 31.6549 307.848 26.9299H305.193V23.8699H308.253C308.568 21.1699 308.883 18.2449 309.198 15.0499C308.298 16.1299 307.308 17.2099 306.183 18.2449L304.158 16.5349C306.768 11.9449 308.478 6.81488 309.468 1.99988L315.678 3.70988C315.183 4.92488 314.688 6.13988 314.103 7.30988H334.443V10.3699H312.483C311.808 11.5399 311.043 12.6649 310.233 13.7449H332.013C331.833 17.4799 331.698 20.8099 331.518 23.8699H334.848V26.9299ZM306.768 7.93988L302.448 12.3949C300.333 9.37988 298.038 6.58988 296.193 4.51988L297.723 2.40488C300.333 3.43988 303.843 5.41988 306.768 7.93988ZM293.943 14.5999L295.473 12.4399C298.533 13.6999 301.413 15.4999 304.293 17.9299L300.198 22.3399C297.903 19.1449 295.878 16.7599 293.943 14.5999ZM314.823 16.6699C314.598 18.8749 314.328 21.3049 314.013 23.8699H320.673C319.053 22.2949 317.253 20.7649 315.588 19.4149L316.803 17.1199C319.323 17.7949 322.248 18.9649 324.723 20.4499L322.338 23.8699H325.443C325.623 21.3499 325.713 18.8749 325.803 16.6699H314.823ZM294.258 41.2399C296.733 36.5149 299.433 30.0349 301.458 23.8249L303.978 24.4549C303.483 30.3949 302.268 39.3499 301.053 43.8949L294.258 41.2399ZM324.588 34.8499C324.813 32.4649 325.083 29.7199 325.263 26.9299H313.653L312.573 34.8499H320.493C318.468 33.0499 316.443 31.4299 314.553 30.0349L315.813 27.6499C318.648 28.4149 321.438 29.3599 324.138 30.7999L321.483 34.8499H324.588ZM373.042 19.8649C372.457 26.6599 370.882 32.4649 366.922 36.4249L365.032 35.1199C367.777 29.5849 368.182 24.4999 368.182 13.1149H365.077V10.2799H371.107C370.342 7.98488 369.307 5.46488 368.407 3.57488L370.387 2.26988C372.727 4.11488 374.662 6.76988 375.877 8.97488L373.267 10.2799H379.567V12.3949C380.692 9.42488 381.502 5.86988 381.952 2.58488L387.217 3.79988C386.812 5.23988 386.272 6.67988 385.687 8.02988H394.777V10.9549H384.247C383.707 11.8999 383.167 12.7999 382.582 13.6099H389.017L390.232 12.6649L394.822 15.4549C393.472 17.4799 392.077 19.0999 390.592 20.4499V24.0049H394.867V26.8399H390.592V32.5999C390.592 36.7849 386.407 38.6299 380.647 34.8499L381.277 32.7349C384.922 33.3649 385.417 32.9599 385.417 31.3849V26.8399H380.827V24.0049H385.417V19.0999L387.802 19.5499C388.252 18.5149 388.612 17.4799 388.927 16.3999H382.177V14.1949C381.547 15.0499 380.917 15.8149 380.287 16.4449L378.352 15.1399C378.667 14.5099 378.982 13.8349 379.297 13.1149H373.357C373.357 14.4649 373.312 15.7699 373.222 17.0749H379.927C379.927 24.5449 379.792 29.5849 379.387 32.8699C378.757 37.4599 374.302 38.3149 369.982 34.8499L370.747 32.8249C373.897 33.5899 374.437 33.4099 374.662 31.7449C374.887 29.4049 375.112 25.0849 375.067 19.8649H373.042ZM366.202 8.02988L362.377 12.2599C360.352 9.69488 358.192 7.35488 355.942 5.05988L357.247 3.07988C359.947 3.97988 363.637 5.91488 366.202 8.02988ZM365.347 16.8499L361.522 21.1699C359.587 18.6499 357.202 15.9499 354.952 13.6999L356.257 11.6299C359.227 12.7099 362.962 14.8249 365.347 16.8499ZM378.127 38.4949C384.292 38.3599 389.872 37.9549 395.182 36.9649L393.742 43.2199C390.232 43.5349 385.597 43.6699 381.232 43.5799C371.737 43.3999 365.752 43.1299 362.737 38.0449C361.657 40.6549 360.127 43.0399 357.427 45.4249L354.052 41.5549C355.942 40.2049 357.652 38.6299 359.002 36.9649V26.1649H354.907V23.1949H365.032V35.7499C366.517 38.0449 371.602 38.5849 378.127 38.4949ZM409.222 17.7499V14.6449H402.607V11.7199H409.222V9.33488C407.062 9.46988 404.992 9.55988 403.237 9.55988L402.787 7.17488C407.377 6.49988 413.857 4.92488 417.952 2.62988L421.957 7.44488C419.977 7.98488 417.682 8.38988 415.342 8.70488V11.7199H421.732V14.6449H415.342V17.7499H420.607V28.2799H404.047V17.7499H409.222ZM439.507 8.02988V28.5049H422.587V8.02988H428.122C428.257 6.49988 428.392 4.74488 428.527 2.80988L434.647 3.79988C433.927 5.10488 432.802 6.72488 431.767 8.02988H439.507ZM433.612 14.0149V10.9549H428.482V14.0149H433.612ZM433.612 19.6399V16.8049H428.482V19.6399H433.612ZM414.802 25.4899V20.5849H409.852V25.4899H414.802ZM433.612 25.5799V22.4299H428.482V25.5799H433.612ZM430.237 33.7249H432.577C435.322 41.9149 432.982 43.3549 428.707 43.5799C425.242 43.8049 421.597 43.8049 418.627 43.6699C413.857 43.4899 411.337 42.9949 411.337 38.7199V29.3599H417.412V36.2449C417.412 38.1349 417.772 38.4499 420.472 38.5399C422.992 38.6749 425.242 38.6299 427.717 38.4949C429.742 38.3599 430.192 37.8649 430.237 33.7249ZM418.717 31.3849L419.797 29.4499C422.767 30.2599 425.737 31.3849 428.572 32.9149L425.197 37.3249C423.082 35.2099 420.832 33.1849 418.717 31.3849ZM435.097 30.4849C438.202 32.6899 441.037 36.0199 443.062 38.8549L437.842 42.1399C436.402 38.2249 434.737 34.6699 433.162 32.0149L435.097 30.4849ZM400.852 39.0799C403.777 36.9199 406.207 33.9049 407.647 30.8449L410.032 31.6099C409.582 35.5249 407.737 40.2049 405.937 42.9949L400.852 39.0799ZM478.162 9.42488H487.342V17.1199H481.537V12.2149H455.482V17.1649H449.677V9.42488H458.092C457.237 7.71488 456.292 6.09488 455.392 4.69988L457.057 3.21488C459.082 4.29488 461.602 6.27488 463.267 8.11988L461.377 9.42488H465.607V2.89988H471.322V9.42488H474.562C475.372 7.39988 476.092 5.14988 476.542 3.16988L482.347 5.46488C481.087 6.94988 479.557 8.29988 478.162 9.42488ZM456.967 13.4749H479.962V20.7199H456.967V13.4749ZM474.157 18.2449V15.9499H462.772V18.2449H474.157ZM482.707 37.5049H474.157C478.522 37.9549 483.607 38.7649 487.207 39.8449L484.957 45.1549C481.042 43.3099 474.922 41.2399 470.287 39.8449L470.872 37.5049H464.212L467.362 40.0699C463.222 42.2299 456.427 44.0299 449.947 44.6599L449.317 42.3199C453.997 40.9249 457.462 39.5299 460.972 37.5049H454.042V22.1149H482.707V37.5049ZM460.387 24.7699V26.4349H476.317V24.7699H460.387ZM460.387 28.9549V30.6649H476.317V28.9549H460.387ZM460.387 33.1399V34.9399H476.317V33.1399H460.387ZM534.547 23.8699H521.992V28.9549H532.117V44.5699H525.952V41.6899H511.957V44.5699H505.792V28.9549H515.737V23.8699H504.982C504.532 31.6099 502.912 39.6649 497.287 45.1099L495.172 43.4449C498.457 37.5049 498.862 29.7649 498.862 14.5099V4.87988H532.882V16.0399H521.992V20.8099H534.547V23.8699ZM505.162 7.93988V12.9799H526.582V7.93988H505.162ZM505.117 20.8099H515.737V16.0399H505.162V17.3899C505.162 18.5149 505.162 19.6399 505.117 20.8099ZM525.952 31.9249H511.957V38.7649H525.952V31.9249ZM581.482 32.2849C583.102 40.4299 582.607 43.3099 577.792 43.6249C575.632 43.7599 574.057 43.8049 571.672 43.6249C567.442 43.3549 566.182 42.4999 566.182 37.6849V30.9799H559.027V29.0449L555.652 30.3499L554.977 27.4699C551.332 29.4499 547.012 30.6649 543.457 31.3399L542.197 26.0299C543.322 26.0299 544.402 25.9849 545.482 25.8949C547.012 23.7349 548.407 21.6199 549.757 19.0099C547.552 19.8649 545.257 20.4949 543.187 20.8999L542.062 15.6349H544.717C546.112 11.7649 547.327 7.35488 548.092 2.89988L554.167 4.65488C552.637 8.25488 550.477 12.3499 548.182 15.4999C549.352 15.4549 550.522 15.3649 551.647 15.2749C552.277 13.8799 552.952 12.3499 553.627 10.6849L558.892 13.2049C556.642 17.5249 552.907 22.2499 549.487 25.5349C551.062 25.3549 552.637 25.1299 554.212 24.8599C553.897 23.8249 553.582 22.8799 553.267 21.9349L555.292 20.8999C556.822 22.5649 558.082 24.5449 559.027 26.6599V15.1399H564.112V27.9649H566.182V12.0799H557.182V8.92988H566.182V3.07988H572.257V8.92988H581.572V12.0799H572.257V27.9649H574.327V15.1399H579.502V30.9799H572.257V35.9749C572.257 37.9999 572.887 38.3149 575.767 38.3149C578.692 38.3149 578.917 37.7749 578.962 32.2849H581.482ZM554.842 30.0799C557.047 32.2399 559.432 35.7499 560.602 38.1799L556.237 40.4299C555.382 37.4599 554.167 34.0399 552.907 31.1149L554.842 30.0799ZM549.217 31.8799L551.467 31.3849C552.952 34.7149 554.212 39.1699 554.797 42.0949L549.667 43.0399C549.667 39.9349 549.577 35.6149 549.217 31.8799ZM545.437 31.8349L547.912 32.1049C548.137 36.8299 547.687 41.6899 546.877 44.5249L541.477 42.4099C543.412 39.4399 544.627 36.0649 545.437 31.8349ZM620.047 6.58988H628.687V9.64988H620.047V13.9249H613.882V9.64988H603.847V13.9249H597.682V9.64988H589.132V6.58988H597.682V2.98988H603.847V6.58988H613.882V2.98988H620.047V6.58988ZM612.307 29.9449V32.9149H628.687V35.9749H612.307V44.9299H605.557V35.9749H589.132V32.9149H605.557V30.3949L604.792 31.1149C603.622 29.3149 602.407 27.6949 601.102 26.1199C598.717 28.8649 595.657 31.1149 592.102 32.6449L590.752 30.6199C595.162 26.7049 597.052 22.7449 598.222 18.5149H590.257V15.5449H608.797C607.312 14.2849 605.602 12.9349 604.342 11.9449L605.377 9.87488C607.987 10.4149 610.957 11.5399 613.522 12.8449L611.587 15.5449H627.472V18.5149H615.142L620.542 19.9999C620.092 21.0349 619.507 22.0249 618.877 22.9699C621.532 24.0049 624.817 25.6699 627.112 27.3799L622.927 31.9699C621.262 29.7199 619.057 27.2899 617.077 25.3099C615.412 27.1099 613.477 28.7299 611.407 29.9449H612.307ZM602.947 23.6899C605.062 24.6349 606.997 25.8049 608.797 27.2899L606.007 29.9449H609.967L608.932 28.7749C611.542 25.6699 613.072 22.1599 613.927 18.5149H599.437L604.837 19.9999C604.342 21.2599 603.712 22.5199 602.947 23.6899ZM659.917 39.0349H675.532V42.5449H636.472V39.0349H653.032V28.8199H641.017V25.5349H653.032V16.8049H645.517C643.492 20.5849 640.972 24.0049 638.182 26.5699L636.157 24.9049C639.712 18.9199 641.827 12.2149 643.042 4.42988L649.702 5.77988C649.117 8.38988 648.217 11.0449 647.092 13.5649H653.032V3.03488H659.917V13.5649H672.607V16.8049H659.917V25.5349H671.887V28.8199H659.917V39.0349ZM722.602 19.4599H711.172V26.2549H720.397V44.4799H714.142V41.5549H701.812V44.5699H695.602V26.2549H704.737V19.4599H693.667V16.2649H704.737V10.4149C701.092 10.7299 697.807 10.9549 695.602 10.9549L695.152 8.29988C700.867 7.44488 710.587 5.10488 716.122 2.44988L721.117 7.53488C718.372 8.38988 714.817 9.06488 711.172 9.60488V16.2649H722.602V19.4599ZM694.252 8.25488L689.707 12.8449C687.592 9.91988 685.027 6.67988 683.317 4.56488L685.027 2.49488C687.772 3.66488 691.642 6.00488 694.252 8.25488ZM692.767 18.3349L688.222 22.9699C686.242 20.0449 683.587 16.6249 681.787 14.4199L683.407 12.2149C686.107 13.3849 690.247 16.0399 692.767 18.3349ZM682.282 40.8349C685.027 36.3349 687.997 29.9899 690.697 23.7799L693.172 24.5449C692.272 30.8899 690.607 39.3949 688.942 44.0749L682.282 40.8349ZM714.142 29.3149H701.812V38.4499H714.142V29.3149Z" fill="#0A4D92"/>
</g>
<defs>
<filter id="filter0_d_1_514" x="0" y="0" width="728.602" height="53.1797" filterUnits="userSpaceOnUse" color-interpolation-filters="sRGB">
<feFlood flood-opacity="0" result="BackgroundImageFix"/>
<feColorMatrix in="SourceAlpha" type="matrix" values="0 0 0 0 0 0 0 0 0 0 0 0 0 0 0 0 0 0 127 0" result="hardAlpha"/>
<feOffset dx="2" dy="2"/>
<feGaussianBlur stdDeviation="2"/>
<feComposite in2="hardAlpha" operator="out"/>
<feColorMatrix type="matrix" values="0 0 0 0 1 0 0 0 0 1 0 0 0 0 1 0 0 0 0.25 0"/>
<feBlend mode="normal" in2="BackgroundImageFix" result="effect1_dropShadow_1_514"/>
<feBlend mode="normal" in="SourceGraphic" in2="effect1_dropShadow_1_514" result="shape"/>
</filter>
</defs>
</svg>
