<svg viewBox="0 0 337 115" fill="#3d3939" xmlns="http://www.w3.org/2000/svg">
  <path d="M1,112.6v-1.7h19.6c1.4-4.8,3-12.6,3.9-19.1l3.2.7c-1.4,6.3-3.7,14-5.6,18.4h11.6v1.7M32.3,87.7v1.7H2.5v-1.7M17.1,88.4c-.9-2.4-2.7-6.5-3.8-8.5l1-.7c2,2,4.2,5.2,5.5,7.7M6.8,92.4l1.2-.5c2.4,4.6,4.7,11.6,5.7,16.4l-3.1.7c-.6-5.3-2.2-11.7-3.7-16.7h0ZM48.8,105c1.5-.5,2.9-1,4.3-1.5l.5,1.1c-3.4,2-8.1,4.1-11.6,5.3l-1-2.8c1.7-.3,3.5-.8,5.4-1.4v-21.6h-4.9v-1.5h12.1v.9h20.6v1.5h-21.6s0-.9,0-.9h-3.7M42,94.7v-1.5h11.2v1.5M53.9,108.2v-1.5h18.7s0,1.5,0,1.5M53.3,103.6v-1.5h20s0,1.5,0,1.5M54.5,99.3v-6.8h17.2s0,6.8,0,6.8M64.3,111.7h10.6v1.5h-24v-1.5h10.9v-22h-5v-10.2h2.4v8.7h7.4v-8.7h2.4v10.1h-4.8M69.3,97.8v-4h-12.4v4M89.4,93.4v21.1h-2.3v-18.4c-.9,3.4-2.3,7.2-4.2,10.3l-.9-.7c1.8-3.4,3.8-10.1,4.8-16.3h-3.9v-1.4h4.3v-8.3h2.3v8.3h3.3v1.4h-3.3v2.1c1.6,1.7,3.1,3.7,4,5.3l-1.9,1.1c-.5-1.2-1.4-3.1-2.2-4.6h0ZM111.8,114c-2.1-.7-3.8-2.3-5.2-4.5-3.1,2.2-6.7,3.7-10.7,4.6l-.4-1c3.7-1.1,7.1-2.8,10.1-5.4-.9-2-1.7-4.5-2.2-7.2h-5c0,.8-.2,1.5-.3,2.2,2.1,1.4,4,2.9,5.2,4.2l-1.7,1.8c-.8-1.1-2.4-3-3.7-4.6-.9,4.2-2.8,7.8-6.8,10.4l-.6-.9c3.5-3,5.1-7,5.5-13.1h-4.2v-1.5h4.3c0-1,0-2,0-3.1h2.4c0,1.1,0,2.1,0,3.1h4.6c-.7-4.3-1-9.2-1-14.3v-5.2h2.3v5.3c0,5.4.4,10.2,1.1,14.2h4.6c-.5-1-1.4-2.7-2.2-4-.8.2-1.6.4-2.1.5l-.6-2.2c.5,0,1.1,0,1.7,0,1-1.6,1.9-3.1,2.7-4.7-1.5.6-2.8,1-4.1,1.2l-.5-2.3c.5,0,.9,0,1.4,0,.9-2.2,1.6-5.1,2.1-7.5l2.2.7c-1,2.4-2.2,4.9-3.2,6.8.9,0,1.9-.2,2.8-.3.5-1,.9-2,1.3-3.1l2.2.9c-1.6,3.1-3.6,5.9-5.5,8,1.4-.1,2.8-.3,4-.6-.2-.7-.5-1.4-.7-2l.9-.4c1.1,1.5,2.1,3.4,2.6,5.1l-1.9.6-.6-2.4c-1.1.5-2.3.9-3.5,1.2,1.1,1.1,2.2,2.5,2.8,3.4l-1.4.9h4.9v1.5h-9.7c.5,2,1,3.8,1.6,5.3,1.2-1.3,2.2-2.8,3.2-4.5l2.1,1.2c-1.2,2.1-2.6,3.9-4.3,5.4,1,1.8,2.3,3.1,3.7,3.7,1.5.7,1.9.3,1.8-5.4h1.1c1.4,6.8.3,9.1-3.4,7.8h0ZM94.9,93.5c.9-1.5,1.8-3.1,2.6-4.7-1.4.5-2.6.8-3.7,1.1l-.5-2.2c.4,0,.8,0,1.1,0,.9-2.2,1.7-5.3,2.2-7.7l2.3.6c-.9,2.5-2.2,5.1-3.3,7,.9,0,1.8-.1,2.6-.2.5-1,.9-2,1.2-3.1l2.1.9c-1.5,2.9-3.3,5.7-5.1,8,1.2-.2,2.5-.4,3.6-.6-.2-.7-.4-1.3-.6-1.9l.8-.5c1.1,1.7,1.9,3.4,2.5,5.1l-1.8.6c-.2-.8-.4-1.6-.6-2.4-2.5,1.2-5.1,1.8-6.6,2.1l-.6-2.2h2c0-.1,0-.1,0-.1ZM130.6,93.6v21.1h-2.4v-19.2c-1.2,3.8-3.1,8.2-4.9,10.6l-.9-.7c2.2-3.8,4.3-10,5.4-16.3h-4.6v-1.5h5v-8h2.4v8h4.1v1.5h-4.1v2.3c1.5,2,3.3,4.7,4.4,6.9l-2,1c-.7-1.7-1.6-3.9-2.4-5.7h0ZM134.6,85.3v-1.5h21v1.5M135.9,89.4v-1.4h18.8v1.4M151.3,100.8v-2.9h-12.8v2.9h12.8ZM132.7,106.8v-1.5h10.9v-11.6h-9.4v-1.5h5.6v-12.8h2.3v12.8s5.5,0,5.5,0v-12.8h2.4v12.8h6.3v1.5h-10.3v11.6h10.6s0,0,0,0v1.5M136.2,96.5h17.6v14.7c0,3.4-2.3,4.5-8,2.2l.3-1.1c4.7.8,5.3.6,5.3-1.8v-8.2h-12.8v12.4h-2.4M173.1,100.4v2.2h-9.8v-2.2h9.8ZM186.5,86.8c-1.1-2-2.9-5.1-3.9-6.4l.8-.8c1.6,1.3,3.8,3.7,5.2,5.5l-2.2,1.7ZM193.5,86.3v1.5h-13.5v-1.5M181.3,96.9h10.8v1.4h-10.8v-1.4ZM181.3,93.1v-1.4h10.8v1.4h-10.8ZM181.4,102.1h10.6v11.8h-2.3v-2.5h-6v2.9h-2.3v-12.3h0ZM183.7,109.9h6v-6.4h-6v6.4ZM200.2,93.8c-1.1,7.4-3.2,12.1-7.2,16.1l-.8-.8c3.2-3.9,4.7-8.9,5.3-14h-5.5v-1.5h5.1l.7-.6,2.4.8h0ZM213.9,107.4l-2.1,2.5c-3.5-3.4-6-7.8-7.5-14.6v15.9c0,3.2-2.6,4.3-8.9,1.6l.3-1.1c5.2.8,6.1.8,6.1-1.1v-22.3h-7v-1.5h9.5v2.8c.4,2.3.9,4.3,1.5,6.1,1.7-1.6,3.1-3.4,4.3-5.4l2.2,1.7c-1.9,2-3.9,3.6-6.1,4.9,1.8,4.6,4.5,8,7.6,10.5ZM205.9,85.4c-2.5-1.8-6.3-3.7-9.3-4.9l.3-1.1c3.8.8,7.5,2.1,10.4,3.5l-1.4,2.5h0ZM225.7,93.9h5.9v17.6h-2.2v-3.1h-3.5v4.1h-2.3v-13.4c-.8,1.6-1.7,2.9-2.6,4l-.9-.7c2.1-3.5,4.4-9.4,5.1-18.5h-4.5v-1.5h13.2v1.5h-6.4c-.4,3.8-1.1,7.2-2,10h0ZM225.8,106.9h3.5v-11.6h-3.5v11.6ZM238.5,101.9c1.5-.7,2.9-1.5,4.1-2.2l.6.9h0c-2.6,2.4-7.4,5.2-10.3,6.6l-1.2-2.4c1.2-.5,2.8-1.1,4.3-1.8v-23.5h2.5M231.7,91.6l-.2-1.5c3.9-.4,7.7-1,11.4-1.9l.3,1.5c-3.6.9-7.4,1.6-11.4,2ZM252.2,110.1c-.4,3.1-2.7,5.1-9.4,2l.3-1.1c5.7,1.1,6.4.6,6.7-1.9.3-3.5.8-15.1.8-25.2h-3.8c0,13.9-.4,24.1-10.5,30.9l-.7-.9c7.7-6.6,8.8-14.8,8.9-29.9h-3.2v-1.5h11.7c0,7.2-.3,23.4-.9,27.8h0ZM295.4,110.5l-.9,3c-3.4.2-8,.3-11.4.2-7.3-.4-12-2-15.1-5.1-1.5,2.4-3.6,4.6-6.1,6.3l-.7-1c2.1-1.6,4-3.9,5.6-6.9-1.6-2.2-2.6-5-3.3-8.4l1.1-.3c.8,2.9,1.7,5.2,3,6.9,1.2-3,2.2-6.6,2.5-10.7h-4c-.6,1.1-1.1,2-1.5,2.6l-2.1-.9c1.9-3.3,4.5-8.4,6.1-12.4h-6.6v-1.4h9.8c-1.1,2.8-3.1,7.3-4.9,10.7h2.9l.7-.5,2.3.8c-.4,4.8-1.5,9.5-3.7,13.7,3,2.9,7.3,4,13.6,4.2,3.7,0,8.6-.2,12.8-.6h0ZM272.6,104.1v-1.5h21v1.5M273.9,99v-1.5h17.9v1.5M283.7,109.3h-2.5v-29.8h2.5M274.2,94.3v-1.5h14.8v-8.3h-14.6v-1.5h16.9v11.2M272.5,89.2v-1.4h22.3v1.4M316.8,86.4v1.5h-14.6v-1.5M309.4,86.8c-1-2.1-2.7-5.2-3.6-6.7l.9-.7c1.5,1.4,3.7,4,4.9,6l-2.2,1.4ZM303.6,93v-1.4h11.6v1.4h-11.6ZM315.2,98.3h-11.6v-1.4h11.6v1.4ZM315.3,111.6h-9.1v2.6h-2.4v-12h11.5v9.4ZM313,103.7h-6.7v6.5h6.7v-6.5ZM334.8,114.4c-3.8-1.3-6.9-3.1-9.2-5.3-2.6,2.3-6.1,4.4-10.7,5.7l-.5-1.1c4.2-1.6,7.4-3.7,9.7-6.1-2.3-2.8-3.9-6-4.8-9.5h-2.3v-1.5h12.1l.9-.6,2.6,1.2c-1.1,3.5-2.7,7.1-5.5,10.1,2.8,2,6,3.2,9,4.1l-1.4,3h0ZM315.7,94.8c3.5-2.5,4.2-3.9,4.2-9.9v-3.1h9.9v7.9c0,1.4.2,1.9,1.8,1.9s2.2-.2,3.1-1l1.2,1.9c-.9,1-2.1,1.4-4.6,1.4s-4.1-.9-4.1-3.9v-6.7h-4.9v1.6c0,5.8-1.3,8.5-6.1,10.9l-.6-1h0ZM325.5,106c2-2.5,3.2-5.2,3.9-7.8h-8.9c1.1,3.4,2.9,5.9,5,7.8Z"/>
  <path fill="#007236" d="M182.1,66.5h-5.8V22.6l-12.9-6.7v-7l17.1,9.2,1.6,3.4M174.2,66.5h-9v-5.8h4.7v-31.8l-6.2-3.5v-6.1l10.6,5.8M184,22.6l2.4-1.6,6,3.3v6.8l-4-2v31.6h4v5.8h-8.4M143.7,17v-6.7L159.9.5v6.8M189.8,19.9v-6.7L165.4,0v6.8M162.9,25.9v-6.7l-20.4,11.1v6.7M162.8,15.9v-7l-20.4,11.7v6.5M162.9,36.2v-6.6l-20.4,11v6.7M164.2,38.8l-21.7,11.7h0s0,16,0,16h21.7M158.3,60.7h-10v-6.7l10-5.4"/>
</svg>