<svg xmlns="http://www.w3.org/2000/svg" version="1.1" viewBox="0 0 922 144" fill="#fff">
  <defs>
<linearGradient id="gr1" x1="0" y1="0" x2="80" y2="30" gradientUnits="userSpaceOnUse">
<stop offset="0" stop-color="#fff0"/>
<stop offset=".5" stop-color="#FFb"/>
<stop offset="1" stop-color="#fff0"/>
<animate attributeName="x1" values="-190;2000" dur="8s" repeatCount="indefinite"/>
<animate attributeName="x2" values="-100;2090" dur="8s" repeatCount="indefinite"/>
</linearGradient>
  </defs>
  <path stroke="url(#gr1)" stroke-width="3" d="M28.5,12V2.8h8.9c0,5,0,9.8,0,12.9,2.7,20.9,13.4,36.7,30.4,46.6l-6.4,8.7c-11-7.1-22.9-23.6-25.9-45.1-3.1,23.5-15.4,37.6-33.9,45l-1.6-2.8c22.8-14,28.5-35.1,28.5-55.9h0ZM149.1,62.5v4.6h-64.3v-4.6h28.5v-18.5h-21.3v-4.2h21.3v-15.9h-14.6c-3.3,6.2-7.4,11.7-12,15.8l-2.3-2c5.9-8.6,10.1-19.8,12.3-33.4l8.6,2.2c-1.1,4.6-2.6,9.2-4.6,13.4h12.7V1.4h8.2v18.5h22.7v4.1h-22.7v15.9h21v4.2h-21v18.5h27.6ZM198.8,57.1l-7.6-5.1c5.6-6.4,8.6-12.8,11-24.6l3.2.5c0,12.1-2.2,21.6-6.6,29.3h0ZM243.9,44.2c4,18.6,2.4,23-7.5,23.6-5.7.3-9.5.2-14.2,0-7.1-.4-10.2-1-11.3-5.9-5.3,3.4-10.8,6-16.7,8.1l-1.3-2.9c6.1-3.2,12-6.9,17.6-11.6V15.5h8v32c8.3-9.8,15.6-23.3,20.9-43.8l8.4,2.5c-7.7,24.3-17.7,39.8-29.3,49.9,0,3.6,1.3,4.2,5.8,4.5,3.2.2,7.5.3,10.7,0,5.1-.5,5.3-1.2,5.6-16.4h3.2ZM211.1,3.3l1.6-2.8c7.2,2.5,14.6,6.5,21.5,11.6l-5.7,7.3c-5.9-6.6-11-10.8-17.4-16ZM260,49.9l-8,3.2c-2.5-9.2-5.1-16.8-9-25.8l2.7-1.5c6.4,7.4,11.4,16.1,14.3,24.1h0ZM303.3,43.1c-6.4,11.2-16.7,21.2-27.2,26.6l-1.7-2.7c8.9-7.2,16.7-17.2,21.8-28.1l7.1,4.2ZM276.8,46.8l-1.8-2.5c7.7-6.7,14.9-15.7,19.5-25.2l6.8,4.1c-5.6,9.4-15.5,18.8-24.6,23.7h0ZM277.3,25.9l-1.9-2.4c6.2-5.8,12.1-13.7,16.1-22.2l6.8,3.6c-5.1,8-12.6,15.8-20.9,21h0ZM314.7,55.1l5.8,4.3c-6.5,5-18.6,10.5-26.3,12.2l-1.3-2.9c6.5-2.5,14.8-8.2,20.4-13.6h-8.9V17.8h12.8c.5-2.6,1-6,1.2-8.6h-17.1v-3.8h40.5v3.8h-14.9c-1.8,3.2-3.8,6.4-5.5,8.6h16.4v37.3h-23.2,0ZM311.9,28.8h18.4v-7.1h-18.4v7.1ZM311.9,40h18.4v-7.4h-18.4v7.4ZM311.9,51.4h18.4v-7.7h-18.4v7.7ZM343.7,64.4l-4.8,7.1c-4.1-3.8-10.7-8.8-16.3-12.7l1.4-3.1c6.8,2,13.1,4.8,19.7,8.8h0ZM408.9,45.8c-1.4,4.4-3.4,8.2-5.8,11.3,6.7,1.7,12.9,3.9,17.8,6.5l-4.7,7.9c-6.3-3.9-12.1-6.8-18.4-9.3-8.6,6.5-21.3,8.7-39.1,9.2l-.5-3.2c14-1.2,24.8-3.7,32.1-8.8-3.3-1.1-6.9-2.2-10.8-3.2-1.6,2.2-3.1,4.2-4.2,5.4l-6.2-3.5c2.2-2.9,5.6-7.4,8.6-12.3h-18.5v-3.9h21c1.4-2.4,2.7-4.8,3.8-7h-18.9v-18.7h14.9v-6.9h-19.6v-3.8h61.4v3.8h-19.7v6.9h15.1v18.7h-30.3l5.1,1.7c-.8,1.5-1.7,3.3-2.9,5.3h34.1v3.9h-14.3ZM380.3,20h-7.8v11.1h7.8v-11.1ZM400.6,45.8h-13.9c-1.6,2.4-3.3,4.9-4.9,7.2,4.4.5,8.9,1.3,13.3,2.2,2.4-2.6,4.2-5.7,5.5-9.4ZM387.4,16.2h7.6v-6.9h-7.6v6.9ZM387.4,31.2h7.7v-11.1h-7.7v11.1ZM402,31.2h8.1v-11.1h-8.1v11.1ZM473,39.3l6.5,1.3c-2.4,14-8.7,24.9-20.1,30.6l-1.6-2.6c5.4-3.7,9.9-10.3,12.7-18.3-3.5,1.7-7.3,3.1-11.1,4.1l-2.1-7c1.6,0,3.2,0,4.7-.2,2.2-3.1,4.6-7.6,6.5-12.2-2.4,1-4.5,1.7-6.6,2.2l.5,1c-2.4,1.7-4.8,3.3-7.2,4.7v21.3c0,6.6-6.6,9.2-15.4,2.6l.8-2.8c6.5,1.6,7.5.9,7.5-2.2v-15.2c-1.7.8-3.5,1.6-5.3,2.2l-2.7-7.9c2.7-.4,5.4-.9,8-1.5v-18h-7.3v-3.8h7.3V1.3h7.1v16.6h6.5v3.8h-6.5v16.1c1.7-.5,3.2-1,4.9-1.6l-1.3-5.2c1.1,0,2,0,2.9,0,1.9-3.8,4.2-11.1,4.9-16.3l6.9,2.2c-2.5,5.3-5.3,10.4-8.1,14,1.6,0,3.2-.1,4.9-.4.8-2.1,1.5-4.2,1.9-6l6.3,2.6c-3.2,6.6-7.3,13.8-12.2,19.5,1.9-.2,3.7-.6,5.5-1,.5-2.1,1-4.3,1.3-6.5h0ZM506.8,14h-47.2v-3.8h22.8c-2.9-2.8-6-5.3-8.8-7.4l1.3-2.9c4.4,1,9.5,3,13.5,5.5l-3.2,4.7h21.5v3.8ZM507.1,61.7v3.8h-21v5.3h-6.5v-35.7c-.9,1.1-1.9,2.1-2.9,3.1l-2.2-2c4.2-5.6,7.1-14.9,8.6-21.4l6.6,2.1c-.9,2.6-2.1,5.5-3.5,8.2h7.7c-.7-2.8-1.6-5.9-2.9-9.2l2.6-1.5c2.9,2.8,5.2,6.2,6.5,9l-3.6,1.6h9.5v3.8h-7.7v8.1h6.2v3.7h-6.2v8h6.5v3.7h-6.5v9.3h8.7ZM491.9,29h-5.7v8.1h5.7v-8.1ZM491.9,40.8h-5.7v8h5.7v-8ZM491.9,52.4h-5.7v9.3h5.7v-9.3ZM551.5,16.7c-1.4,3.1-3,6.1-4.8,8.9h34.2v36.6c0,8.3-8,10.8-20.9,4.3l.8-3.1c10.4,1.6,12.1,1.2,12.1-3.2v-7.1h-25.8v17.5h-8v-35c-4.6,5-9.7,9.2-14.9,12l-1.8-2.7c8.7-7.1,15.8-16.4,20.7-28.4h-18.5v-4.6h20.2c1.3-3.8,2.4-7.8,3.3-12.1l8.6,1.7c-.8,3.6-1.9,7.1-3.1,10.4h35.3v4.6h-37.2ZM547,37.5h25.8v-7.7h-25.8v7.7ZM547,49.4h25.8v-8.1h-25.8v8.1ZM607.3,29.5h63.2v5.8h-63.2v-5.8ZM701.4,30.1c0,17.1-2.9,32.4-11.3,41.2l-2.4-2c5.7-9.7,5.7-21.3,5.7-41.1V11.7h32c-4.2-3.1-8.7-6.1-12.2-8.4l1.1-2.9c5.1,1.1,12.5,3.4,17.6,6.2l-3.2,5.2h24.8v3.9h-52v14.5h0ZM754.6,63.6v3.9h-56.9v-3.9h24.5v-9.8h-19.1v-3.8h19.1v-7.4l-5.3,2.9c-1.2-3.6-2.8-7.7-4.5-11.2-2.3,5.5-5.3,10.3-8.7,14l-2.4-2c3.9-6.9,6.2-16.8,6.9-26.4l7.9,1.6c-.5,2.9-1.3,5.8-2.1,8.5,3.2,2.9,6.1,6.4,8.2,9.8v-22.1h7.6v32.3h20.1v3.8h-20.1v9.8h24.9ZM744.2,21.5c-.5,2.9-1.1,5.6-2,8.3,4.1,3.6,8.3,8.2,10.6,12.2l-6.4,3.8c-1.4-3.8-3.5-8.2-5.6-12-2,5.1-4.7,9.8-8.3,13.7l-2.5-1.9c3.9-7.4,5.7-16.1,6.3-25.8l7.9,1.6h0ZM828.2,70c-6-1.9-10.4-6.6-13.6-13.1-6.5,5.6-14.4,10.1-23.7,12.7l-1.3-3c8.9-3.8,16.4-9.2,22.4-16.2-2.8-8.9-4.2-19.7-4.7-30.6h-22.6v10.1h18.5c-.2,11.3-.4,17.4-.9,21.9-.8,7.1-8.3,9.2-18.2,2.8l.8-3c8.9,2,9.8,1.2,10-2,.2-3,.4-7.7.6-15.7h-10.9c0,22.8-4.9,30.6-12.6,37.2l-2.2-2.2c5-7.4,6.8-11.8,6.8-35V15.5h30.6c-.1-4.6-.2-9.6-.3-14.1h7.8c0,4.4,0,9.6.2,14.1h11.1c-2.5-4.4-5.4-8.5-8.1-11.9l2.2-2.3c4.6,2.9,9,6.8,12.5,10.4l-4.4,3.7h9.2v4.2h-22.4c.4,8.3,1.4,16,2.9,22.5,3.2-5.3,5.9-11.3,8-18l7.7,3.1c-2.8,8.6-7.2,16.6-13,23.3,2.2,5.4,5.2,9.3,8.8,11,2.6,1.3,3.3-.1,3.2-13.7h3.2c3.7,15.7,2.3,24.9-7.6,21.9h0ZM921.2,61.3l-5.8,9.4c-8.4-4-22.4-18-26.4-41.9-4,22.2-17.2,36.7-34.7,42.5l-1.5-3c14.2-7.6,24.7-19.5,27.9-42.6h-25.5v-4.6h25.9c.1-1.6.3-3.2.4-4.9.3-4.7.4-10,.4-15h8.8c0,6.1-.2,11.6-.5,17.3,0,.8,0,1.7-.1,2.6h28v4.6h-26.3c5.6,20.4,18.2,30.6,29.4,35.7h0Z"/>
  <path d="M272.3,115.1c0,1.1,0,2,0,2.5,0,.6.5.7,1,.7.2,0,0,.2,0,.2-1.4,0-1.3,0-2.5,0-.2,0-.3-.1,0-.2,1.1,0,.6-1.9.7-3.2,0,0,0-4.9,0-4.9h-1.7c-.9,0-1.1.2-1.4.8,0,.1-.2.2-.2,0,0-.3.2-1.3.4-1.4.2.1,1.2.2,1.4.2.8,0,4.8.1,5.5-.1.2.2,0,1.3,0,1.4,0,.2-.2.2-.2,0,.2-.9-2.1-.7-2.9-.8v4.9h0ZM284.6,115.6c0,.9,0,1.7,0,2.1,0,.5.5.6.8.6.2,0,0,.2,0,.2-.6,0-1.2,0-1.3,0,0,0-1.5.2-1.1-.1.4,0,.6-.1.6-.6,0-.5,0-2.2,0-3.1,0,0,0,0,0,0h-4.2s0,0,0,0c0,.9,0,2.6,0,3.1,0,.5.5.6.8.6.1,0,0,.2,0,.2-.6,0-1.2,0-1.3,0,0,0-1.1.2-1.2,0,0-.1.3,0,.4-.1.2,0,.2-.2.3-.5,0-.7,0-2.9,0-3.9-.1-1.8.4-2.7-.8-2.7-.1,0-.1-.2,0-.2.5,0,1.1,0,1.2,0,0,0,1.1-.1,1.2,0,0,.1-.2,0-.3.1-.3,0-.3.2-.4.5,0,.3,0,.6,0,2.1,0,0,0,.3,0,.3,0,0,4.2,0,4.2,0,0,0,0-.2,0-.3,0-1.5,0-1.8,0-2.1,0-.3,0-.5-.4-.5,0,0-.4,0-.4,0,0,0,0,0,.2,0,1.1,0,1.1,0,2.1,0,.3,0,.2.2-.2.2-.3,0-.3.2-.4.5,0,.3,0,.6,0,2.1v1.7h0ZM289,113.8c0-1.5,0-1.8,0-2.1,0-.3,0-.5-.4-.5-.1,0-.4,0-.4,0,0-.2,1.4,0,1.3,0,0,0,2.2,0,2.4,0,.3,0,.4,0,.6-.1,0,0,0,0,0,0,0,.2,0,.8-.1,1.1-.2.3-.2-.2-.2-.4-.1-.4-1.8-.3-2.2-.3,0,0,0,0,0,.1v2.7c0,0,0,0,0,0,.5,0,2,.2,2.3-.3.1,0-.1,1.1,0,1.2,0,.1-.1.3-.2,0,0-.3,0-.6-.6-.6-.3,0-1.5-.2-1.6,0,0,0,0,.8,0,.8,0,.3,0,1.5,0,1.7,0,.7.2.8,1.2.8.6,0,1.4,0,1.5-.8,0-.1,0-.1.1-.1.2.1,0,.8,0,1.1,0,.2-.2.2-.6.2-1.3,0-2,0-3,0-.2,0-1,0-.7-.1.4,0,.5,0,.6-.6,0-.7,0-2.9,0-3.8h0ZM296.2,113.8c0-1.5,0-1.8,0-2.1,0-.3,0-.5-.4-.5-.1,0-.4,0-.4,0,.1-.2,1.4,0,1.4,0,.1,0,1,0,1.3,0,2.5-.2,3.6,2.2,1.4,4,1.3,1.4,2,3.2,3.6,3.2.2,0,0,.2-.1.2-.5,0-1.4,0-1.7-.2-.7-.3-2-2.2-2.5-2.9,0-.1-1.3,0-1.4,0,0,0,0,0,0,0,0,.9,0,1.9,0,2.3,0,.3,0,.5.4.5.2,0,.5,0,.5.1-.2.2-1.5,0-1.4,0,0,0-.7,0-1,0-.2,0-.2-.1,0-.2,1,0,.5-1.6.6-2.7,0,0,0-1.7,0-1.7h0ZM297.1,114.7c0,.3.7.2,1.2.3,2.1.1,1.7-3.9-.4-3.6-.4,0-.7,0-.8.2,0,0,0,3.1,0,3.1h0ZM304.8,113.8c0-1.5,0-1.8,0-2.1,0-.3,0-.5-.4-.5-.1,0-.4,0-.4,0,0-.2,1.4,0,1.3,0,0,0,2.2,0,2.4,0,.3,0,.4,0,.6-.1,0,0,0,0,0,0,0,.2,0,.8-.1,1.1-.2.3-.2-.2-.2-.4-.1-.4-1.8-.3-2.2-.3,0,0,0,0,0,.1v2.7c0,0,0,0,0,0,.5,0,2,.2,2.3-.3.1,0-.1,1.1,0,1.2,0,.1-.1.3-.2,0,0-.3,0-.6-.6-.6-.3,0-1.5-.2-1.6,0,0,0,0,.8,0,.8,0,.3,0,1.5,0,1.7,0,.7.2.8,1.2.8.6,0,1.4,0,1.5-.8,0-.1,0-.1.1-.1.2.1,0,.8,0,1.1,0,.2-.2.2-.6.2-1.3,0-2,0-3,0-.2,0-1,0-.7-.1.4,0,.5,0,.6-.6,0-.7,0-2.9,0-3.8h0ZM317.6,115.6c0,1.4,0,2,.2,2.2.2.3,2.2.4,2.6,0,.2-.2.2-.6.3-.7.2.2,0,.7,0,1.1,0,.2-.1.3-.6.3-1.5,0-2.5,0-3.9,0-.2,0-.2-.1,0-.2,1,0,.5-1.6.6-2.7,0,0,0-1.7,0-1.7-.1-1.8.4-2.7-.8-2.7-.1,0-.1-.2,0-.2,1.1,0,1.2,0,2.3,0,.2,0,.2.1,0,.2-1.1,0-.6.9-.7,2.7,0,0,0,1.8,0,1.8h0ZM324.6,115.6c0,.9,0,1.7,0,2.1,0,.3,0,.5.4.5.2,0,.5,0,.5.1-.2.2-1.4,0-1.4,0,0,0-1.1.2-1.2,0,0-.1.3,0,.4-.1.2,0,.2-.2.3-.5,0-.7,0-2.9,0-3.9-.1-1.7.3-2.7-.6-2.7-.1,0,0-.2,0-.2.9,0,1.1,0,2,0,.1,0,.2,0,.2,0,0,.1-.2,0-.3.1-.3,0-.3.2-.4.5,0,0,0,3.1,0,3.8h0ZM331.2,115.6c.1,1.4-.4,2.8.9,2.7.1,0,0,.2,0,.2-1.2,0-1.2,0-2.3,0-.2,0-.2-.1,0-.2,1,0,.5-1.6.7-2.7,0,0,0-4.1,0-4.1-.8,0-2.5-.3-2.6.6,0,.1-.2.1-.2,0,0-.2.2-1.1.3-1.2.2.1,1.1.2,1.2.2.7,0,4.2,0,4.8,0,.1.2,0,1.1,0,1.2,0,.2-.2.2-.2,0,.2-.8-1.9-.6-2.5-.7v4.1h0ZM339.1,115.6c.1,1.4-.4,2.8.9,2.7.1,0,0,.2,0,.2-1.2,0-1.2,0-2.3,0-.2,0-.2-.1,0-.2,1,0,.5-1.6.7-2.7,0,0,0-4.1,0-4.1-.8,0-2.5-.3-2.6.6,0,.1-.2.1-.2,0,0-.2.2-1.1.3-1.2.2.1,1.1.2,1.2.2.7,0,4.2,0,4.8,0,.1.2,0,1.1,0,1.2,0,.2-.2.2-.2,0,.2-.8-1.9-.6-2.5-.7v4.1h0ZM345.7,115.6c0,1.4,0,2,.2,2.2.2.3,2.2.4,2.6,0,.2-.2.2-.6.3-.7.2.2,0,.7,0,1.1,0,.2-.1.3-.6.3-1.5,0-2.5,0-3.9,0-.2,0-.2-.1,0-.2,1,0,.5-1.6.6-2.7,0,0,0-1.7,0-1.7-.1-1.8.4-2.7-.8-2.7-.1,0-.1-.2,0-.2,1.1,0,1.2,0,2.3,0,.2,0,.2.1,0,.2-1.1,0-.6.9-.7,2.7,0,0,0,1.8,0,1.8h0ZM351.8,113.8c0-1.5,0-1.8,0-2.1,0-.3,0-.5-.4-.5-.1,0-.4,0-.4,0,0-.2,1.4,0,1.3,0,0,0,2.2,0,2.4,0,.3,0,.4,0,.6-.1,0,0,0,0,0,0,0,.2,0,.8-.1,1.1-.2.3-.2-.2-.2-.4-.1-.4-1.8-.3-2.2-.3,0,0,0,0,0,.1v2.7c0,0,0,0,0,0,.5,0,2,.2,2.3-.3.1,0-.1,1.1,0,1.2,0,.1-.1.3-.2,0,0-.3,0-.6-.6-.6-.3,0-1.5-.2-1.6,0,0,0,0,.8,0,.8,0,.3,0,1.5,0,1.7,0,.7.2.8,1.2.8.6,0,1.4,0,1.5-.8,0-.1,0-.1.1-.1.2.1,0,.8,0,1.1,0,.2-.2.2-.6.2-1.3,0-2,0-3,0-.2,0-1,0-.7-.1.4,0,.5,0,.6-.6,0-.7,0-2.9,0-3.8h0ZM365.8,115.6c.1,1.4-.4,2.8.9,2.7.1,0,0,.2,0,.2-1.2,0-1.2,0-2.3,0-.2,0-.2-.1,0-.2,1,0,.5-1.6.7-2.7,0,0,0-4.1,0-4.1-.8,0-2.5-.3-2.6.6,0,.1-.2.1-.2,0,0-.2.2-1.1.3-1.2.2.1,1.1.2,1.3.2.7,0,4.2,0,4.8,0,.1.2,0,1.1,0,1.2,0,.2-.2.2-.2,0,.2-.8-1.9-.6-2.5-.7v4.1h0ZM377.7,115.6c0,.9,0,1.7,0,2.1,0,.5.5.6.8.6.2,0,0,.2,0,.2-.5,0-1.2,0-1.3,0,0,0-1.5.2-1.1-.1.4,0,.6-.1.6-.6,0-.5,0-2.2,0-3.1,0,0,0,0,0,0h-4.2s0,0,0,0c0,.9,0,2.6,0,3.1,0,.5.5.6.8.6.1,0,0,.2,0,.2-.6,0-1.2,0-1.3,0,0,0-1.1.2-1.2,0,0-.1.3,0,.4-.1.2,0,.2-.2.3-.5,0-.7,0-2.9,0-3.9-.1-1.8.4-2.7-.8-2.7-.1,0-.1-.2,0-.2.5,0,1.1,0,1.2,0,0,0,1.1-.1,1.2,0,0,.1-.2,0-.3.1-.3,0-.3.2-.4.5,0,.3,0,.6,0,2.1,0,0,0,.3,0,.3,0,0,4.2,0,4.2,0,0,0,0-.2,0-.3,0-1.5,0-1.8,0-2.1,0-.3,0-.5-.4-.5,0,0-.4,0-.4,0,0,0,0,0,.2,0,1.1,0,1.1,0,2.1,0,.3,0,.2.2-.2.2-.3,0-.3.2-.4.5,0,.3,0,.6,0,2.1v1.7h0ZM385,110.9c5.4-.2,5.2,7.8,0,7.7-5.3-.1-5.3-7.5,0-7.7ZM385.2,118.1c3.6.2,3.8-6.9-.3-6.9-4.2-.2-3.6,7.1.3,6.9ZM391.8,113.8c-.1-1.8.4-2.7-.8-2.7-.1,0-.1-.2,0-.2,1.1,0,1.2,0,2.2,0,.3,0,.2.2-.2.2-.3,0-.3.2-.3.5,0,.3,0,.6,0,2.1,0,1.2,0,3.4.8,3.8.9.8,2.4.7,3.1-.2.7-.7.6-2.5.6-3.6,0-1.5,0-1.8,0-2.1,0-.5-.3-.6-.8-.6-.1,0,0-.2,0-.2.5,0,1,0,1.1,0,0,0,.9-.1,1,0,0,.1-.2,0-.3.1-.3,0-.3.2-.4.5-.2,1.1.5,5-.9,6.1-.7.6-1.5.7-2.1.7s-1.4,0-2.1-.7c-.9-.5-1-2.7-.9-4h0ZM406.3,115.9c0-.8,0-.9-.4-1-.1,0-.4,0-.4,0,0-.2,1.4,0,1.4,0,0,0,1.5-.2,1.1.1-.4,0-.6.1-.6.6,0,.5,0,1.5,0,2.1,0,.4,0,.5-.1.5-.6.3-1.6.4-2.1.4-7,0-5.5-9.3,1.4-7.5.2.1.8,0,1,.2,0,.1,0,.4,0,1.4,0,.3-.2.3-.2,0,0-.1,0-.4-.2-.7-.6-.8-3.2-1.2-4.5-.1-1.5,1-1,4.4,0,5.2,1.1,1,2.4,1.3,3.7.9.1,0,.2-.1.2-.3v-1.7ZM417.4,115.6c0,.9,0,1.7,0,2.1,0,.5.5.6.8.6.2,0,0,.2,0,.2-.6,0-1.2,0-1.3,0,0,0-1.5.2-1.1-.1.4,0,.6-.1.6-.6,0-.5,0-2.2,0-3.1,0,0,0,0,0,0h-4.2s0,0,0,0c0,.9,0,2.6,0,3.1,0,.5.5.6.8.6.1,0,0,.2,0,.2-.6,0-1.2,0-1.3,0,0,0-1.1.2-1.2,0,0-.1.3,0,.4-.1.2,0,.2-.2.3-.5,0-.7,0-2.9,0-3.9-.1-1.8.4-2.7-.8-2.7-.1,0-.1-.2,0-.2.5,0,1.1,0,1.2,0,0,0,1.1-.1,1.2,0,0,.1-.2,0-.3.1-.3,0-.3.2-.4.5,0,.3,0,.6,0,2.1,0,0,0,.3,0,.3,0,0,4.2,0,4.2,0,0,0,0-.2,0-.3,0-1.5,0-1.8,0-2.1,0-.3,0-.5-.4-.5,0,0-.4,0-.4,0,.1-.2,1.4,0,1.3,0,0,0,1.1-.1,1.2,0,0,.1-.2,0-.3.1-.3,0-.3.2-.4.5,0,0,0,3.1,0,3.8h0ZM424,115.6c.1,1.4-.4,2.8.9,2.7.1,0,0,.2,0,.2-1.2,0-1.2,0-2.3,0-.2,0-.2-.1,0-.2,1,0,.5-1.6.7-2.7,0,0,0-4.1,0-4.1-.8,0-2.5-.3-2.6.6,0,.1-.2.1-.2,0,0-.2.2-1.1.3-1.2.2.1,1.1.2,1.2.2.7,0,4.2,0,4.8,0,.1.2,0,1.1,0,1.2,0,.2-.2.2-.2,0,.2-.8-1.9-.6-2.5-.7v4.1h0ZM428.8,118.3c-.3-.2,0-1.3,0-1.4,0-.2.2-.2.2,0,0,0,0,.2,0,.4.4,1.5,3.3,1.2,3.1-.3.1-.8-.9-1.4-1.7-2-1.1-.8-1.4-1.4-1.4-2.1,0-1.8,2.2-2.1,3.7-1.7.2,0,0,.4,0,1.1,0,.2,0,.2,0,.2-.1,0-.1-.5-.2-.6,0-.1-.4-.5-1.3-.5-1.8.1-1.8,1.8,0,2.7,1.9,1.2,2.8,2.8,1,4.2-.9.5-2.2.4-3.1,0h0ZM442.7,111.2c.2-.6.3-.5.5,0,.2.4,1.8,4.5,2.4,5.9.4.9.6,1,.9,1.1.2.1.4,0,.5.1,0,0-.1,0-.2,0,0,0-1.5,0-2,0,0-.1.3,0,.2-.3,0,0-.9-2.2-.9-2.2,0,0,0,0,0,0h-2.3c-.1,0-.6,1.6-.7,1.6-.1.4-.3.9.2.9.2,0,.3.2,0,.2-.8,0-1,0-1.9,0-.2,0-.3-.1-.1-.2,0,0,.2,0,.3,0,.5,0,.7-.4.9-.9l2.4-6.1h0ZM443.9,115.3s0,0,0,0l-1-2.7c0-.1-.1-.1-.2,0l-.9,2.7s0,0,0,0h2.1ZM449.2,113.8c0-1.5,0-1.8,0-2.1,0-.3,0-.5-.4-.5-.1,0-.4,0-.4,0,.1-.2,1.4,0,1.4,0,.1,0,1,0,1.3,0,2.5-.2,3.6,2.2,1.4,4,1.3,1.4,2,3.2,3.6,3.2.2,0,0,.2-.1.2-.5,0-1.4,0-1.7-.2-.7-.3-2-2.2-2.5-2.9,0-.1-1.3,0-1.4,0,0,0,0,0,0,0,0,.9,0,1.9,0,2.3,0,.3,0,.5.4.5.2,0,.5,0,.5.1-.2.2-1.5,0-1.4,0,0,0-.7,0-1,0-.2,0-.2-.1,0-.2,1,0,.5-1.6.6-2.7,0,0,0-1.7,0-1.7h0ZM450.1,114.7c0,.3.7.2,1.2.3,2.1.1,1.7-3.9-.4-3.6-.4,0-.7,0-.8.2,0,0,0,3.1,0,3.1h0ZM457.8,113.8c0-1.5,0-1.8,0-2.1,0-.3,0-.5-.4-.5-.1,0-.4,0-.4,0,0-.2,1.4,0,1.3,0,0,0,2.2,0,2.4,0,.3,0,.4,0,.6-.1,0,0,0,0,0,0,0,.2,0,.8-.1,1.1-.2.3-.2-.2-.2-.4-.1-.4-1.8-.3-2.2-.3,0,0,0,0,0,.1v2.7c0,0,0,0,0,0,.5,0,2,.2,2.3-.3.1,0-.1,1.1,0,1.2,0,.1-.1.3-.2,0,0-.3,0-.6-.6-.6-.3,0-1.5-.2-1.6,0,0,0,0,.8,0,.8,0,.3,0,1.5,0,1.7,0,.7.2.8,1.2.8.6,0,1.4,0,1.5-.8,0-.1,0-.1.1-.1.2.1,0,.8,0,1.1,0,.2-.2.2-.6.2-1.3,0-2,0-3,0-.2,0-1,0-.7-.1.4,0,.5,0,.6-.6,0-.7,0-2.9,0-3.8h0ZM471.9,115.6c.1,1.4-.4,2.8.9,2.7.1,0,0,.2,0,.2-1.2,0-1.2,0-2.3,0-.2,0-.2-.1,0-.2,1,0,.5-1.6.7-2.7,0,0,0-4.1,0-4.1-.8,0-2.5-.3-2.6.6-.4.5,0-1,0-1,.1-.3.1,0,.6,0,1.3,0,4.4.1,5.6,0,.1.2,0,1.1,0,1.2,0,.2-.2.2-.2,0,.2-.8-1.8-.6-2.5-.7v4.1h0ZM483.7,115.6c0,.9,0,1.7,0,2.1,0,.5.4.6.8.6.2,0,0,.2,0,.2-.6,0-1.2,0-1.3,0,0,0-1.5.2-1.1-.1.4,0,.6-.1.6-.6,0-.5,0-2.2,0-3.1,0,0,0,0,0,0h-4.2s0,0,0,0c0,.9,0,2.6,0,3.1,0,.5.5.6.8.6.1,0,0,.2,0,.2-.6,0-1.2,0-1.3,0,0,0-1.1.2-1.2,0,0-.1.3,0,.4-.1.2,0,.2-.2.3-.5,0-.7,0-2.9,0-3.9-.1-1.8.4-2.7-.8-2.7-.1,0-.1-.2,0-.2.5,0,1.1,0,1.2,0,0,0,1.1-.1,1.2,0,0,.1-.2,0-.3.1-.3,0-.3.2-.4.5,0,.3,0,.6,0,2.1,0,0,0,.3,0,.3,0,0,4.2,0,4.2,0,0,0,0-.2,0-.3,0-1.5,0-1.8,0-2.1,0-.3,0-.5-.4-.5,0,0-.4,0-.4,0,.1-.2,1.4,0,1.3,0,0,0,1.1-.1,1.2,0,0,.1-.2,0-.3.1-.3,0-.3.2-.4.5,0,0,0,3.1,0,3.8h0ZM488.1,113.8c0-1.5,0-1.8,0-2.1,0-.3,0-.5-.4-.5-.1,0-.4,0-.4,0,0-.2,1.4,0,1.3,0,0,0,2.2,0,2.4,0,.3,0,.4,0,.6-.1,0,0,0,0,0,0,0,.2-.1.8-.1,1.1-.2.3-.2-.2-.2-.4-.1-.4-1.8-.3-2.2-.3,0,0,0,0,0,.1v2.7c0,0,0,0,0,0,.5,0,2,.2,2.3-.3.1,0-.1,1.1,0,1.2,0,.1-.1.3-.2,0,0-.3,0-.6-.6-.6-.3,0-1.5-.2-1.6,0,0,0,0,.8,0,.8,0,.3,0,1.5,0,1.7,0,.7.2.8,1.2.8.6,0,1.4,0,1.5-.8,0-.1,0-.1.1-.1.2.1,0,.8,0,1.1,0,.2-.2.2-.6.2-1.3,0-2,0-3,0-.2,0-1,0-.7-.1.4,0,.5,0,.6-.6,0-.7,0-2.9,0-3.8h0ZM500,113.8c0-1.5,0-1.8,0-2.1,0-.3,0-.5-.4-.5-.1,0-.4,0-.4,0,.1-.2,1.4,0,1.4,0,.1,0,1,0,1.3,0,2.5-.2,3.6,2.2,1.4,4,1.3,1.4,2,3.2,3.6,3.2.2,0,0,.2-.1.2-.5,0-1.4,0-1.7-.2-.7-.3-2-2.2-2.5-2.9,0-.1-1.3,0-1.4,0,0,0,0,0,0,0,0,.9,0,1.9,0,2.3,0,.3,0,.5.4.5.2,0,.5,0,.5.1-.2.2-1.5,0-1.4,0,0,0-.7,0-1,0-.2,0-.2-.1,0-.2,1,0,.5-1.6.6-2.7,0,0,0-1.7,0-1.7h0ZM500.8,114.7c0,.3.7.2,1.2.3,2.1.1,1.7-3.9-.4-3.6-.4,0-.7,0-.8.2,0,0,0,3.1,0,3.1h0ZM508,113.8c-.1-1.8.4-2.7-.8-2.7-.1,0-.1-.2,0-.2,1.1,0,1.2,0,2.2,0,.3,0,.2.2-.2.2-.3,0-.3.2-.3.5,0,.3,0,.6,0,2.1,0,1.2,0,3.4.8,3.8.9.8,2.4.7,3.1-.2.7-.7.6-2.5.6-3.6,0-1.5,0-1.8,0-2.1,0-.5-.3-.6-.8-.6-.1,0,0-.2,0-.2.5,0,1,0,1.1,0,0,0,1-.1,1,0,0,.1-.2,0-.3.1-.3,0-.3.2-.4.5-.2,1.1.5,5-1,6.1-.7.6-1.5.7-2.1.7s-1.4,0-2.1-.7c-.9-.5-1-2.7-.9-4ZM517,118.3c-.3-.2,0-1.3,0-1.4,0-.2.2-.2.2,0,0,0,0,.2,0,.4.4,1.5,3.3,1.2,3.1-.3.1-.8-.9-1.4-1.7-2-1.1-.8-1.4-1.4-1.4-2.1,0-1.8,2.2-2.1,3.7-1.7.2,0,0,.4,0,1.1,0,.2,0,.2,0,.2-.1,0-.1-.5-.2-.6,0-.1-.4-.5-1.3-.5-1.8.1-1.8,1.8,0,2.7,1.9,1.2,2.8,2.8,1,4.2-.9.5-2.2.4-3.1,0h0ZM527,115.6c.1,1.4-.4,2.8.9,2.7.1,0,0,.2,0,.2-1.2,0-1.2,0-2.3,0-.2,0-.2-.1,0-.2,1,0,.5-1.6.7-2.7,0,0,0-4.1,0-4.1-.8,0-2.5-.3-2.6.6,0,.1-.2.1-.2,0,0-.2.2-1.1.3-1.2.2.1,1.1.2,1.2.2.7,0,4.2,0,4.8,0,.1.2,0,1.1,0,1.2,0,.2-.2.2-.2,0,.2-.8-1.8-.6-2.5-.7v4.1h0ZM533.5,115.6c0,1.4,0,2,.2,2.2.2.3,2.2.4,2.6,0,.2-.2.2-.6.3-.7.2.2,0,.7,0,1.1,0,.2-.1.3-.7.3-1.5,0-2.5,0-3.9,0-.2,0-.2-.1,0-.2,1,0,.5-1.6.6-2.7,0,0,0-1.7,0-1.7-.1-1.8.4-2.7-.8-2.7-.1,0-.1-.2,0-.2,1.1,0,1.2,0,2.3,0,.2,0,.2.1,0,.2-1.1,0-.6.9-.7,2.7,0,0,0,1.8,0,1.8ZM539.7,113.8c0-1.5,0-1.8,0-2.1,0-.3,0-.5-.4-.5-.1,0-.4,0-.4,0,0-.2,1.4,0,1.3,0,0,0,2.2,0,2.4,0,.3,0,.4,0,.6-.1,0,0,0,0,0,0,0,.2-.1.8-.1,1.1-.2.3-.2-.2-.2-.4-.1-.4-1.8-.3-2.2-.3,0,0,0,0,0,.1v2.7c0,0,0,0,0,0,.5,0,2,.2,2.3-.3.1,0-.1,1.1,0,1.2,0,.1-.1.3-.2,0,0-.3,0-.6-.6-.6-.3,0-1.5-.2-1.6,0,0,0,0,.8,0,.8,0,.3,0,1.5,0,1.7,0,.7.2.8,1.2.8.6,0,1.4,0,1.5-.8,0-.1,0-.1.1-.1.2.1,0,.8,0,1.1,0,.2-.2.2-.6.2-1.3,0-2,0-3,0-.2,0-1,0-.7-.1.4,0,.5,0,.6-.6,0-.7,0-2.9,0-3.8h0ZM554.3,110.9c5.4-.2,5.2,7.8,0,7.7-5.3-.1-5.3-7.5,0-7.7ZM554.6,118.1c3.6.2,3.8-6.9-.3-6.9-4.2-.2-3.6,7.1.3,6.9ZM561.6,113.8c0-1.5,0-1.8,0-2.1,0-.3,0-.5-.4-.5-.1,0-.4,0-.4,0,.1-.2,1.4,0,1.3,0,.5,0,2.6,0,3.1,0,.3-.2.2.1.1.5,0,.4,0,1.3-.3.3-.2-.5-1.9-.2-2.4-.3,0,0,0,0,0,.1v2.7c-.1.2,1.4,0,1.5,0,.3,0,.8,0,.9-.2,0,0,.2-.2.2,0,0,.1-.1,1-.1,1.2,0,0,0,.2,0,.2-.1,0,0-.3-.1-.4-.2-.5-1.7-.3-2.1-.3,0,0,0,0,0,0,0,.9,0,2.5,0,2.9,0,.5.5.6.8.6.1,0,0,.2,0,.2-.6,0-1.2,0-1.3,0,0,0-1.1.2-1.2,0,0-.1.3,0,.4-.1.2,0,.2-.2.3-.5,0-.7,0-2.9,0-3.8h0ZM574.2,115.6c0,1.4,0,2,.2,2.2.4.3,2.8.6,2.8-.6.3-.5.1.7,0,1,0,.2-.1.3-.6.3-1.3,0-2.1,0-3.3,0-.2,0-.6.1-.8,0,0-.1.3,0,.4-.1.6-.5.2-1.5.3-2.6,0-.8,0-3.8,0-3.8,0-.5-.4-.6-.8-.6-.1,0-.1-.2,0-.2.5,0,1.1,0,1.2,0s.8,0,1.1,0c.2,0,.2.1,0,.2-1.1,0-.6.9-.7,2.7,0,0,0,1.8,0,1.8ZM580.3,113.8c0-1.5,0-1.8,0-2.1,0-.3,0-.5-.4-.5-.1,0-.4,0-.4,0,0-.2,1.4,0,1.3,0,0,0,2.2,0,2.4,0,.3,0,.4,0,.6-.1,0,0,0,0,0,0,0,.2-.1.8-.1,1.1-.2.3-.2-.2-.2-.4-.1-.4-1.8-.3-2.2-.3,0,0,0,0,0,.1v2.7c0,0,0,0,0,0,.5,0,2,.2,2.3-.3.1,0-.1,1.1,0,1.2,0,.1-.1.3-.2,0,0-.3,0-.6-.6-.6-.3,0-1.5-.2-1.6,0,0,0,0,.8,0,.8,0,.3,0,1.5,0,1.7,0,.7.2.8,1.2.8.6,0,1.4,0,1.5-.8,0-.1,0-.1.1-.1.2.1,0,.8,0,1.1,0,.2-.2.2-.6.2-1.3,0-2,0-3,0-.2,0-1,0-.7-.1.4,0,.5,0,.6-.6,0-.7,0-2.9,0-3.8h0ZM589,111.2c.2-.6.3-.5.5,0,.2.4,1.8,4.5,2.4,5.9.5,1.1.6,1,1.3,1.1.2,0,.1.2,0,.2,0,0-1.5,0-2,0,0-.1.3,0,.2-.3,0,0-.9-2.2-.9-2.2,0,0,0,0,0,0h-2.3c-.1,0-.6,1.6-.7,1.6-.1.4-.3.9.2.9.2,0,.3.2,0,.2-.8,0-1,0-1.9,0-.2,0-.3-.1-.1-.2,0,0,.2,0,.3,0,.5,0,.7-.4.8-.9l2.4-6.1h0ZM590.2,115.3s0,0,0,0l-1-2.7c0-.1-.1-.1-.2,0l-.9,2.7s0,0,0,0h2,0ZM597.8,117.1c.7-1.6,2-4.7,2.2-5.7,0-.4-.5-.1-.6-.3.2-.2,1.1,0,1.2,0,0,0,.5,0,.8,0,.2,0,.2.2,0,.2-.6,0-.7.1-1,1-.3.7-2.1,5-2.4,5.6-.5,1-.4,1-.8.1,0,0-2.5-6-2.5-6-.3-.7-.6-.8-1.1-.8,0,0,0,0,0,0,.3-.2,1.4,0,1.5,0,0,0,1-.1,1.2,0,0,0,0,0-.1,0-.7,0-.5.4-.2,1,0,0,1.9,4.9,1.9,4.9h0ZM603.9,113.8c0-1.5,0-1.8,0-2.1,0-.3,0-.5-.4-.5-.1,0-.4,0-.4,0,0-.2,1.4,0,1.3,0,0,0,2.2,0,2.4,0,.3,0,.4,0,.6-.1,0,0,0,0,0,0,0,.2-.1.8-.1,1.1-.2.3-.2-.2-.2-.4-.1-.4-1.8-.3-2.2-.3,0,0,0,0,0,.1v2.7c0,0,0,0,0,0,.5,0,2,.2,2.3-.3.1,0-.1,1.1,0,1.2,0,.1-.1.3-.2,0,0-.3,0-.6-.6-.6-.3,0-1.5-.2-1.6,0,0,0,0,.8,0,.8,0,.3,0,1.5,0,1.7,0,.7.2.8,1.2.8.6,0,1.4,0,1.5-.8,0-.1,0-.1.1-.1.2.1,0,.8,0,1.1,0,.2-.2.2-.6.2-1.3,0-2,0-3,0-.2,0-1,0-.7-.1.4,0,.5,0,.6-.6,0-.7,0-2.9,0-3.8h0ZM610.3,118.3c-.3-.2,0-1.3,0-1.4,0-.2.2-.2.2,0,0,0,0,.2,0,.4.4,1.5,3.3,1.2,3.1-.3.1-.8-.9-1.4-1.7-2-1.1-.8-1.4-1.4-1.4-2.1,0-1.8,2.2-2.1,3.7-1.7.2,0,0,.4,0,1.1,0,.2,0,.2,0,.2-.1,0-.1-.5-.2-.6,0-.1-.4-.5-1.3-.5-1.8.1-1.8,1.8,0,2.7,1.9,1.2,2.8,2.8,1,4.2-.9.5-2.2.4-3.1,0h0ZM624.8,115.6c.1,1.4-.4,2.8.9,2.7.1,0,0,.2,0,.2-1.2,0-1.2,0-2.3,0-.2,0-.2-.1,0-.2,1,0,.5-1.6.7-2.7,0,0,0-4.1,0-4.1-.8,0-2.5-.3-2.6.6-.4.5,0-1,0-1,.1-.3.1,0,.5,0,1.3,0,4.4.1,5.6,0,.1.2,0,1.1,0,1.2,0,.2-.2.2-.2,0,.2-.8-1.8-.6-2.5-.7v4.1h0ZM636.7,115.6c0,.9,0,1.7,0,2.1,0,.5.4.6.8.6.2,0,0,.2,0,.2-.5,0-1.2,0-1.3,0,0,0-1.5.2-1.1-.1.4,0,.6-.1.6-.6,0-.5,0-2.2,0-3.1,0,0,0,0,0,0h-4.2s0,0,0,0c0,.9,0,2.6,0,3.1,0,.5.5.6.8.6.1,0,0,.2,0,.2-.6,0-1.2,0-1.3,0,0,0-1.1.2-1.2,0,0-.1.3,0,.4-.1.2,0,.2-.2.3-.5,0-.7,0-2.9,0-3.9-.1-1.8.4-2.7-.8-2.7-.1,0-.1-.2,0-.2.5,0,1.1,0,1.2,0,0,0,1.1-.1,1.2,0,0,.1-.2,0-.3.1-.3,0-.3.2-.4.5,0,.3,0,.6,0,2.1,0,0,0,.3,0,.3,0,0,4.2,0,4.2,0,0,0,0-.2,0-.3,0-1.5,0-1.8,0-2.1,0-.3,0-.5-.4-.5,0,0-.4,0-.4,0,.1-.2,1.4,0,1.3,0,0,0,1.1-.1,1.2,0,0,.1-.2,0-.3.1-.3,0-.3.2-.4.5,0,0,0,3.1,0,3.8h0ZM641.1,113.8c0-1.5,0-1.8,0-2.1,0-.3,0-.5-.4-.5-.1,0-.4,0-.4,0,0-.2,1.4,0,1.3,0,0,0,2.2,0,2.4,0,.3,0,.4,0,.6-.1,0,0,0,0,0,0,0,.2-.1.8-.1,1.1-.2.3-.2-.2-.2-.4-.1-.4-1.8-.3-2.2-.3,0,0,0,0,0,.1v2.7c0,0,0,0,0,0,.5,0,2,.2,2.3-.3.1,0-.1,1.1,0,1.2,0,.1-.1.3-.2,0,0-.3,0-.6-.6-.6-.3,0-1.5-.2-1.6,0,0,0,0,.8,0,.8,0,.3,0,1.5,0,1.7,0,.7.2.8,1.2.8.6,0,1.4,0,1.5-.8,0-.1,0-.1.1-.1.2.1,0,.8,0,1.1,0,.2-.2.2-.6.2-1.3,0-2,0-3,0-.2,0-1,0-.7-.1.4,0,.5,0,.6-.6,0-.7,0-2.9,0-3.8h0ZM649.5,115.9c0-1.2-1.3-2.6-2-3.9-.4-.5-.6-.8-1.1-.8,0,0,0,0,0,0,0-.2,1.1,0,1.1,0,0,0,.9-.1,1,0,0,0,0,0-.2.1-.3,0,0,.4,0,.5,0,0,1.8,3.1,1.8,3.1.2-.4,1.5-2.5,1.7-2.8.2-.3.3-.6,0-.8-.2,0-.2-.2,0-.2.7,0,1,0,1.7,0,0,0,.1,0,.1,0,0,.2-.4,0-.6.2-.7.5-2,2.9-2.5,3.6-.2.6,0,1.2-.1,1.8,0,.3-.2,1.4.4,1.5.1,0,.4,0,.5,0,.1,0,0,.2,0,.2-.6,0-1.2,0-1.3,0,0,0-1.1.1-1.1,0,0-.1.3,0,.4-.1.2,0,.3-.2.3-.5,0-.7,0-1.2,0-1.8h0ZM331.8,138.4c0,.9,0,1.7,0,2.1,0,.5.5.6.8.6.2,0,0,.2,0,.2-.6,0-1.2,0-1.3,0,0,0-1.5.2-1.1-.1.4,0,.6-.1.6-.6,0-.5,0-2.2,0-3.1,0,0,0,0,0,0h-4.2s0,0,0,0c0,.9,0,2.6,0,3.1,0,.5.5.6.8.6.1,0,0,.2,0,.2-.6,0-1.2,0-1.3,0,0,0-1.1.2-1.2,0,0-.1.3,0,.4-.1.2,0,.2-.2.3-.5,0-.7,0-2.9,0-3.9-.1-1.8.4-2.7-.8-2.7-.1,0-.1-.2,0-.2.5,0,1.1,0,1.2,0,0,0,1.1-.1,1.2,0,0,.1-.2,0-.3.1-.3,0-.3.2-.4.5,0,.3,0,.6,0,2.1,0,0,0,.3,0,.3,0,0,4.2,0,4.2,0,0,0,0-.2,0-.3,0-1.5,0-1.8,0-2.1,0-.3,0-.5-.4-.5,0,0-.4,0-.4,0,0,0,0,0,.2,0,1.1,0,1.1,0,2.1,0,.3,0,.2.2-.2.2-.3,0-.3.2-.4.5,0,.3,0,.6,0,2.1v1.7h0ZM337.8,134c.2-.6.3-.5.5,0,.2.4,1.8,4.5,2.4,5.9.5,1.1.6,1,1.3,1.1.2,0,.1.2,0,.2,0,0-1.5,0-2,0,0-.1.3,0,.2-.3,0,0-.9-2.2-.9-2.2,0,0,0,0,0,0h-2.3c-.1,0-.6,1.6-.7,1.6-.1.4-.3.9.2.9.2,0,.3.2,0,.2-.8,0-1,0-1.9,0-.2,0-.3-.1-.1-.2,0,0,.2,0,.3,0,.5,0,.7-.4.9-.9l2.4-6.1h0ZM338.9,138.1s0,0,0,0l-1-2.7c0-.1-.1-.1-.2,0l-.9,2.7s0,0,0,0h2ZM346.5,139.9c.7-1.6,2-4.7,2.2-5.7,0-.4-.5-.1-.6-.3.2-.2,1.1,0,1.2,0-.1,0,1.4-.1.8.1-.6,0-.7.1-1,1-.3.7-2.1,5-2.4,5.6-.5,1-.4,1-.8.1,0,0-2.5-6-2.5-6-.3-.7-.6-.8-1.1-.8,0,0,0,0,0,0,.3-.2,1.4,0,1.5,0,0,0,1-.1,1.2,0,0,0,0,0,0,0-.7,0-.5.4-.2,1,0,0,1.9,4.9,1.9,4.9h0ZM352.7,136.6c0-1.5,0-1.8,0-2.1,0-.3,0-.5-.4-.5-.1,0-.4,0-.4,0,0-.2,1.4,0,1.3,0,0,0,2.2,0,2.4,0,.3,0,.4,0,.6-.1,0,0,0,0,0,0,0,.2,0,.8-.1,1.1-.2.3-.2-.2-.2-.4-.1-.4-1.8-.3-2.2-.3,0,0,0,0,0,.1v2.7c0,0,0,.1,0,.1.5,0,2,.2,2.3-.3.1,0-.1,1.1,0,1.2,0,.1-.1.3-.2,0,0-.3,0-.6-.6-.6-.3,0-1.5-.2-1.6,0,0,0,0,.8,0,.8,0,.3,0,1.5,0,1.7,0,.7.2.8,1.2.8.6,0,1.4,0,1.5-.8,0-.1,0-.1.1-.1.2.1,0,.8,0,1.1,0,.2-.2.2-.6.2-1.3,0-2,0-3,0-.2,0-1,0-.7-.1.4,0,.5,0,.6-.6,0-.7,0-2.9,0-3.8h0ZM366.7,138.4c.1,1.4-.4,2.8.9,2.7.1,0,0,.2,0,.2-1.2,0-1.2,0-2.3,0-.2,0-.2-.1,0-.2,1,0,.5-1.6.7-2.7,0,0,0-4.1,0-4.1-.8,0-2.5-.3-2.6.6,0,.1-.2.1-.2,0,0-.2.2-1.1.3-1.2.2.1,1.1.2,1.2.2.7,0,4.2,0,4.8,0,.1.2,0,1.1,0,1.2,0,.2-.2.2-.2,0,.2-.8-1.9-.6-2.5-.7v4.1h0ZM378.6,138.4c0,.9,0,1.7,0,2.1,0,.5.5.6.8.6.2,0,0,.2,0,.2-.5,0-1.2,0-1.3,0,0,0-1.5.2-1.1-.1.4,0,.6-.1.6-.6,0-.5,0-2.2,0-3.1,0,0,0,0,0,0h-4.2s0,0,0,0c0,.9,0,2.6,0,3.1,0,.5.5.6.8.6.1,0,0,.2,0,.2-.6,0-1.2,0-1.3,0,0,0-1.1.2-1.2,0,0-.1.3,0,.4-.1.2,0,.2-.2.3-.5,0-.7,0-2.9,0-3.9-.1-1.8.4-2.7-.8-2.7-.1,0-.1-.2,0-.2.5,0,1.1,0,1.2,0,0,0,1.1-.1,1.2,0,0,.1-.2,0-.3.1-.3,0-.3.2-.4.5,0,.3,0,.6,0,2.1,0,0,0,.3,0,.3,0,0,4.2,0,4.2,0,0,0,0-.2,0-.3,0-1.5,0-1.8,0-2.1,0-.3,0-.5-.4-.5,0,0-.4,0-.4,0,0,0,0,0,.2,0,1.1,0,1.1,0,2.1,0,.3,0,.2.2-.2.2-.3,0-.3.2-.4.5,0,.3,0,.6,0,2.1,0,0,0,1.7,0,1.7h0ZM383,136.6c0-1.5,0-1.8,0-2.1,0-.3,0-.5-.4-.5-.1,0-.4,0-.4,0,0-.2,1.4,0,1.3,0,0,0,2.2,0,2.4,0,.3,0,.4,0,.6-.1,0,0,0,0,0,0,0,.2,0,.8-.1,1.1-.2.3-.2-.2-.2-.4-.1-.4-1.8-.3-2.2-.3,0,0,0,0,0,.1v2.7c0,0,0,.1,0,.1.5,0,2,.2,2.3-.3.1,0-.1,1.1,0,1.2,0,.1-.1.3-.2,0,0-.3,0-.6-.6-.6-.3,0-1.5-.2-1.6,0,0,0,0,.8,0,.8,0,.3,0,1.5,0,1.7,0,.7.2.8,1.2.8.6,0,1.4,0,1.5-.8,0-.1,0-.1.1-.1.2.1,0,.8,0,1.1,0,.2-.2.2-.6.2-1.3,0-2,0-3,0-.2,0-1,0-.7-.1.4,0,.5,0,.6-.6,0-.7,0-2.9,0-3.8h0ZM391.1,138.4c0,.9,0,1.7,0,2.1,0,.3,0,.5.4.5.2,0,.5,0,.5.1-.2.2-1.4,0-1.4,0,0,0-1.1.2-1.2,0,0-.1.3,0,.4-.1.2,0,.2-.2.3-.5,0-.7,0-2.9,0-3.9-.1-1.7.3-2.7-.6-2.7-.1,0,0-.2,0-.2.9,0,1.1,0,2,0,.1,0,.2,0,.2,0,0,.1-.2,0-.3.1-.3,0-.3.2-.4.5,0,0,0,3.1,0,3.8h0ZM395.5,136.6c0-1.5,0-1.8,0-2.1,0-.3,0-.5-.4-.5-.1,0-.4,0-.4,0,.1-.2,1.4,0,1.4,0,.1,0,1,0,1.3,0,2.5-.2,3.6,2.2,1.4,4,1.3,1.4,2,3.2,3.6,3.2.2,0,0,.2-.1.2-.5,0-1.4,0-1.7-.2-.7-.3-2-2.2-2.5-2.9,0-.1-1.3,0-1.4,0,0,0,0,0,0,0,0,.9,0,2,0,2.3,0,.3,0,.5.4.5.2,0,.5,0,.5.1-.2.2-1.5,0-1.4,0,0,0-.7,0-1,0-.2,0-.2-.1,0-.2,1,0,.5-1.6.6-2.7,0,0,0-1.7,0-1.7h0ZM396.4,137.5c0,.3.7.2,1.2.3,2.1.1,1.7-3.9-.4-3.6-.4,0-.7,0-.8.2,0,0,0,3.2,0,3.2h0ZM415,139.8h0c.3-1,1.4-4.1,1.6-5.5,0-.2,0-.3-.5-.3-.1,0-.1-.2,0-.2,1.1,0,.9,0,1.9,0,0,0,.1,0,.1,0,0,.2-.3,0-.4.2-.3,0-.5.5-.7,1-.7,1.5-1.5,5.2-2.3,6.3-.3.1-2.1-5.7-2.3-5.9-.4.8-1.7,4.4-2.1,5.3-.3.8-.4.7-.8-.2,0,0-1.8-5.8-1.8-5.8-.2-.5-.3-.6-.5-.7-.2-.1-.5,0-.6-.1,0,0,0,0,.2,0,1.3,0,1,0,2.3,0,.2,0,.2.1,0,.2-.1,0-.5,0-.5.3.1,1,1.3,4.7,1.5,5.5h0c.2-.2,2.2-5.9,2.4-5.9.2-.2,2.1,5.8,2.3,5.9h0ZM427,138.4c0,.9,0,1.7,0,2.1,0,.5.5.6.8.6.2,0,0,.2,0,.2-.5,0-1.2,0-1.3,0,0,0-1.5.2-1.1-.1.4,0,.6-.1.6-.6,0-.5,0-2.2,0-3.1,0,0,0,0,0,0h-4.2s0,0,0,0c0,.9,0,2.6,0,3.1,0,.5.5.6.8.6.1,0,0,.2,0,.2-.6,0-1.2,0-1.3,0,0,0-1.1.2-1.2,0,0-.1.3,0,.4-.1.2,0,.2-.2.3-.5,0-.7,0-2.9,0-3.9-.1-1.8.4-2.7-.8-2.7-.1,0-.1-.2,0-.2.5,0,1.1,0,1.2,0,0,0,1.1-.1,1.2,0,0,.1-.2,0-.3.1-.3,0-.3.2-.4.5,0,.3,0,.6,0,2.1,0,0,0,.3,0,.3,0,0,4.2,0,4.2,0,0,0,0-.2,0-.3,0-1.5,0-1.8,0-2.1,0-.3,0-.5-.4-.5,0,0-.4,0-.4,0,0,0,0,0,.2,0,1.1,0,1.1,0,2.1,0,.3,0,.2.2-.2.2-.3,0-.3.2-.3.5,0,.3,0,.6,0,2.1,0,0,0,1.7,0,1.7h0ZM432.3,138.4c0,.9,0,1.7,0,2.1,0,.3,0,.5.4.5.2,0,.5,0,.5.1-.2.2-1.4,0-1.4,0,0,0-1.1.2-1.2,0,0-.1.3,0,.4-.1.2,0,.2-.2.3-.5,0-.7,0-2.9,0-3.9-.1-1.7.3-2.7-.6-2.7-.1,0,0-.2,0-.2.9,0,1.1,0,2,0,.1,0,.2,0,.2,0,0,.1-.2,0-.3.1-.3,0-.3.2-.4.5,0,0,0,3.1,0,3.8h0ZM435.9,141.1c-.3-.2,0-1.3,0-1.4,0-.2.2-.2.2,0,0,0,0,.2,0,.4.4,1.5,3.3,1.2,3.1-.3.1-.8-.9-1.4-1.7-2.1-1.1-.8-1.4-1.4-1.4-2.1,0-1.8,2.2-2.1,3.7-1.7.2,0,0,.4,0,1.1,0,.2,0,.2,0,.2-.1,0-.1-.5-.2-.6-.3-.6-2.7-.8-2.7.6,0,.6.7,1.3,1.6,1.9,1.2.8,1.7,1.5,1.7,2.4.1,1.9-2.6,2.4-4,1.8h0ZM443.6,136.6c-.1-1.8.4-2.7-.8-2.7-.1,0-.1-.2,0-.2,1.2,0,1.4,0,2.6,0,3.9-.1,2.6,4.5-.5,4.1-.2,0-.1-.2.2-.2,1.1,0,1.9-.7,1.9-1.6.1-1-.9-2.2-2-2-.2,0-.7,0-.6.2,0,1.3,0,5.1,0,6.1,0,.5.5.6.9.6.1,0,0,.2,0,.2-.5,0-1.2,0-1.3,0,0,0-1.1.2-1.2,0,0-.1.3,0,.4-.1.2,0,.2-.2.3-.5,0-.7,0-2.9,0-3.8h0ZM451.2,136.6c0-1.5,0-1.8,0-2.1,0-.3,0-.5-.4-.5-.1,0-.4,0-.4,0,0-.2,1.4,0,1.3,0,0,0,2.2,0,2.4,0,.3,0,.4,0,.6-.1,0,0,0,0,0,0,0,.2,0,.8-.1,1.1-.2.3-.2-.2-.2-.4-.1-.4-1.8-.3-2.2-.3,0,0,0,0,0,.1v2.7c0,0,0,.1,0,.1.5,0,2,.2,2.3-.3.1,0-.1,1.1,0,1.2,0,.1-.1.3-.2,0,0-.3,0-.6-.6-.6-.3,0-1.5-.2-1.6,0,0,0,0,.8,0,.8,0,.3,0,1.5,0,1.7,0,.7.2.8,1.2.8.6,0,1.4,0,1.5-.8,0-.1,0-.1.1-.1.2.1,0,.8,0,1.1,0,.2-.2.2-.6.2-1.3,0-2,0-3,0-.2,0-1,0-.7-.1.4,0,.5,0,.6-.6,0-.7,0-2.9,0-3.8h0ZM458.4,136.6c0-1.5,0-1.8,0-2.1,0-.3,0-.5-.4-.5-.1,0-.4,0-.4,0,.1-.2,1.4,0,1.4,0,.1,0,1,0,1.3,0,2.5-.2,3.6,2.2,1.4,4,1.3,1.4,2,3.2,3.6,3.2.2,0,0,.2-.1.2-.5,0-1.4,0-1.7-.2-.7-.3-2-2.2-2.5-2.9,0-.1-1.3,0-1.4,0,0,0,0,0,0,0,0,.9,0,2,0,2.3,0,.3,0,.5.4.5.2,0,.5,0,.5.1-.2.2-1.5,0-1.4,0,0,0-.7,0-1,0-.2,0-.2-.1,0-.2,1,0,.5-1.6.6-2.7,0,0,0-1.7,0-1.7h0ZM459.3,137.5c0,.3.7.2,1.2.3,2.1.1,1.7-3.9-.4-3.6-.4,0-.7,0-.8.2,0,0,0,3.2,0,3.2h0ZM474.5,133.7c5.4-.2,5.2,7.8,0,7.7-5.3-.1-5.3-7.5,0-7.7ZM474.7,140.9c3.6.2,3.8-6.9-.3-6.9-4.2-.2-3.6,7.1.3,6.9ZM481.8,136.6c0-1.5,0-1.8,0-2.1,0-.3,0-.5-.4-.5-.1,0-.4,0-.4,0,.1-.2,1.4,0,1.3,0,.5,0,2.6,0,3.1,0,.3-.2.2.1.1.5,0,.1,0,.7-.1.8-.1,0,0-.3-.2-.5,0-.1-.3-.3-.7-.3,0,0-1.9-.1-1.7,0,0,0,0,2.7,0,2.7,0,0,0,0,0,0,.6,0,1.9.2,2.3-.2,0,0,.2-.2.2,0,0,.1-.1,1-.1,1.2,0,.2-.1.3-.2.1.1-1-1.7-.6-2.2-.7,0,0,0,0,0,0,0,.9,0,2.5,0,2.9,0,.3,0,.5.4.5.1,0,.4,0,.5,0,.1,0,0,.2,0,.2-.6,0-1.2,0-1.3,0,0,0-1.1.2-1.2,0,0-.1.3,0,.4-.1.2,0,.2-.2.3-.5,0-.7,0-2.9,0-3.9h0ZM494.4,139c0,2.7-.1,3.4-2.2,4.6-.4,0,.3-.4.3-.5,1.2-.6,1-4.7,1-6.5-.1-1.8.4-2.7-.8-2.7-.1,0,0-.2,0-.2,1.1,0,1.1,0,2.2,0,.3,0,.2.2-.2.2-.3,0-.3.2-.4.5,0,.3,0,.6,0,2.1v2.4h0ZM501.4,133.7c5.4-.2,5.2,7.8,0,7.7-5.3-.1-5.3-7.5,0-7.7ZM501.6,140.9c3.6.2,3.8-6.9-.3-6.9-4.2-.2-3.6,7.1.3,6.9ZM509.9,138.7c0-1.2-1.3-2.6-2-3.9-.4-.5-.6-.8-1.1-.8,0,0,0,0,0,0,0-.2,1.1,0,1.1,0,0,0,.9-.1,1,0,0,0,0,0-.2.1-.3,0,0,.4,0,.5,0,0,1.8,3.1,1.8,3.1.2-.4,1.5-2.5,1.7-2.8.2-.3.3-.6,0-.8-.2,0-.2-.2,0-.2.7,0,1,0,1.7,0,0,0,.1,0,.1,0,0,.2-.4,0-.6.2-.7.5-2,2.9-2.5,3.6-.2.6,0,1.2-.1,1.8,0,.3-.2,1.4.4,1.5.1,0,.4,0,.5,0,.1,0,0,.2,0,.2-.6,0-1.2,0-1.3,0,0,0-1.1.1-1.2,0,0-.1.3,0,.4-.1.2,0,.3-.2.3-.5,0-.7,0-1.2,0-1.8h0ZM521.7,138.4c0,.9,0,1.7,0,2.1,0,.5.5.6.8.6.1,0,0,.2,0,.2-1.3,0-1.2,0-2.3,0-.2,0-.2-.1,0-.2.4,0,.6-.1.6-.6,0-.7,0-2.9,0-3.8,0-1.5,0-1.8,0-2.1,0-.3,0-.5-.3-.5-.2,0-.4,0-.4-.1,0-.2,1.2,0,1.2,0,0,0,.7,0,1,0,.2,0,.2.1,0,.2-1,0-.5,1-.6,2.7,0,0,0,1.7,0,1.7h0ZM526.6,139.9c0,.8.1,1.1.4,1.1.2,0,.4,0,.5,0,.2,0,0,.2,0,.2-1.2,0-.9,0-2,0-.1,0-.2,0-.2,0,0-.2.3,0,.5-.1.3,0,.3-.3.3-1.2v-5.6c0-.8.3-.5.5-.2.2.3,4.9,5.1,5.6,5.9v-4.9c-.1-.6-.2-.8-.5-.9-.2,0-.4,0-.5,0-.2,0,0-.2.1-.2.5,0,.9,0,1.1,0,0,0,.8-.1,1,0,0,.1-.2,0-.4.1-.3,0-.4.3-.4.8,0,.4,0,6.3,0,6.4-1-.5-5.1-5.1-6-6,0,0,.1,4.6.1,4.6ZM548.8,140c0,.3.1.9.5,1,.3.1.6,0,.7.2,0,0,0,0-.2,0-.3,0-1.7,0-2-.2.3.1-.4-5.2-.4-5.4h0c-.2.3-2.5,5.5-2.8,5.5-1-1.3-2.1-4-2.8-5.4h0l-.4,4.4c0,.3-.1.7.2.8.2,0,.4,0,.5.1,0,0,0,0-.2,0-.9,0-1,0-1.8,0-.3,0-.2-.2.2-.2.3,0,.3-.4.4-.8l.7-6.4c0-.2.2-.2.3,0,0,0,3.1,6.1,3.1,6.1l3-6.1c0,0,0-.2.2-.2s.1,0,.2.3l.7,6h0ZM553.9,138.7c0-1.2-1.3-2.6-2-3.9-.4-.5-.6-.8-1.1-.8,0,0,0,0,0,0,0-.2,1.1,0,1.1,0,0,0,.9-.1,1,0,0,0,0,0-.2.1-.3,0,0,.4,0,.5,0,0,1.8,3.1,1.8,3.1.2-.4,1.5-2.5,1.7-2.8.2-.3.3-.6,0-.8-.2,0-.2-.2,0-.2.7,0,1,0,1.7,0,0,0,.1,0,.1,0,0,.2-.4,0-.6.2-.7.5-2,2.9-2.5,3.6-.2.6,0,1.2-.1,1.8,0,.3-.2,1.4.4,1.5.1,0,.4,0,.5,0,.1,0,0,.2,0,.2-.6,0-1.2,0-1.3,0,0,0-1.1.1-1.1,0,0-.1.3,0,.4-.1.2,0,.3-.2.3-.5,0-.7,0-1.2,0-1.8h0ZM572.4,140c0,.3,0,.9.5,1,.3.1.6,0,.7.2,0,0,0,0-.2,0-.3,0-1.7,0-2-.2.3.1-.4-5.2-.4-5.4h0c-.2.3-2.5,5.5-2.8,5.5-1-1.3-2.1-4-2.8-5.4h0l-.4,4.4c0,.3-.1.7.2.8.2,0,.4,0,.5.1,0,0,0,0-.2,0-.9,0-1,0-1.8,0-.3,0-.2-.2.2-.2.3,0,.3-.4.4-.8l.7-6.4c0-.2.2-.2.3,0,0,0,3.1,6.1,3.1,6.1l2.9-6.1c0,0,0-.2.2-.2s.1,0,.1.3l.7,6h0ZM577.2,138.4c0,.9,0,1.7,0,2.1,0,.5.5.6.8.6.1,0,0,.2,0,.2-1.3,0-1.2,0-2.3,0-.2,0-.2-.1,0-.2.4,0,.6-.1.6-.6,0-.7,0-2.9,0-3.8,0-1.5,0-1.8,0-2.1,0-.3,0-.5-.3-.5-.2,0-.4,0-.4-.1,0-.2,1.2,0,1.2,0,0,0,.7,0,1,0,.2,0,.2.1,0,.2-1,0-.5,1-.6,2.7,0,0,0,1.7,0,1.7h0ZM582.1,139.9c0,.8.1,1.1.4,1.1.2.1.5,0,.6.1,0,0,0,0-.2,0-1.2,0-.9,0-2,0-.1,0-.2,0-.2,0,0-.2.3,0,.5-.1.3,0,.3-.3.3-1.2v-5.6c0-.8.3-.5.5-.2.2.3,4.9,5.1,5.6,5.9v-4.9c-.1-.6-.2-.8-.5-.9-.2,0-.5,0-.6-.1.3-.2,1.2,0,1.3,0,.1,0,.4,0,.9,0,.2,0,.3.1,0,.2-.5,0-.6.1-.6.9,0,.4,0,6.3,0,6.4-1-.5-5.1-5.1-6-6,0,0,.1,4.6.1,4.6ZM592.1,136.6c-.1-1.8.4-2.7-.8-2.7-.1,0-.1-.2,0-.2,1.3,0,1.1,0,2.5,0,6.9-.8,6.8,8.6-.5,7.4-.8,0-.6,0-1.2,0-.2,0-.6.1-.8,0,0-.1.3,0,.4-.1.2,0,.2-.2.3-.5,0-.7,0-2.9,0-3.9h0ZM593,137.7c0,1,0,1.9,0,2.1,0,1,.1,1,1.8,1.1,1.9,0,3.2-1.3,3.2-3.2,0-2.9-2.6-3.8-4.8-3.5-.3-.1,0,3.4-.1,3.5h0Z"/>
</svg>