<svg fill="#fff" xmlns="http://www.w3.org/2000/svg" version="1.1" viewBox="0 0 427 1002">
  <defs>
<linearGradient id="gr1" x1="0" y1="0" x2="80" y2="80" gradientUnits="userSpaceOnUse">
<stop offset="0" stop-color="#fff0"/>
<stop offset=".5" stop-color="#FFb"/>
<stop offset="1" stop-color="#fff0"/>
<animate attributeName="x1" values="-190;1500" dur="6s" repeatCount="indefinite"/>
<animate attributeName="x2" values="-100;1590" dur="6s" repeatCount="indefinite"/>
</linearGradient>
  </defs>
  <path stroke="url(#gr1)" stroke-width="3" d="M206.7,8.1V0h7.8c0,4.4,0,8.6,0,11.4,2.4,18.4,11.8,32.3,26.7,40.9l-5.6,7.7c-9.7-6.2-20.1-20.7-22.8-39.7-2.7,20.7-13.5,33.1-29.8,39.5l-1.4-2.5c20.1-12.3,25.1-30.8,25.1-49.2h0ZM240.1,125.1v4h-56.5v-4h25v-16.3h-18.7v-3.7h18.7v-14h-12.9c-2.9,5.5-6.5,10.3-10.6,13.9l-2.1-1.8c5.2-7.6,8.9-17.4,10.8-29.4l7.5,1.9c-.9,4-2.3,8-4,11.8h11.2v-16.2h7.2v16.2h19.9v3.6h-19.9v14h18.5v3.7h-18.5v16.3h24.3ZM187.3,216.8l-6.7-4.5c4.9-5.6,7.6-11.3,9.6-21.6l2.8.4c0,10.6-2,19-5.8,25.7h0ZM227,205.4c3.5,16.4,2.1,20.3-6.6,20.7-5,.3-8.3.2-12.5,0-6.2-.3-9-.9-9.9-5.1-4.6,3-9.5,5.3-14.6,7.1l-1.1-2.6c5.4-2.8,10.6-6.1,15.4-10.2v-35.2h7.1v28.1c7.3-8.6,13.7-20.5,18.4-38.5l7.4,2.2c-6.8,21.4-15.5,35-25.7,43.9,0,3.2,1.2,3.7,5.1,4,2.8.2,6.6.3,9.4,0,4.5-.5,4.7-1.1,5-14.4h2.8ZM198.2,169.5l1.4-2.5c6.3,2.2,12.9,5.7,18.9,10.2l-5,6.4c-5.2-5.8-9.6-9.5-15.2-14.1h0ZM241.2,210.5l-7.1,2.8c-2.2-8.1-4.5-14.8-7.9-22.6l2.4-1.3c5.6,6.5,10,14.2,12.6,21.2h0ZM206.6,277.1c-5.6,9.8-14.7,18.7-23.9,23.4l-1.5-2.4c7.8-6.3,14.7-15.1,19.1-24.7l6.3,3.7ZM183.4,280.4l-1.6-2.2c6.8-5.9,13.1-13.8,17.2-22.2l6,3.6c-4.9,8.2-13.7,16.5-21.6,20.8h0ZM183.7,262l-1.7-2.1c5.4-5.1,10.6-12.1,14.1-19.5l5.9,3.2c-4.5,7.1-11.1,13.9-18.4,18.5h0ZM216.6,287.6l5.1,3.8c-5.7,4.4-16.4,9.2-23.1,10.8l-1.1-2.6c5.7-2.2,13-7.2,17.9-12h-7.9v-32.8h11.3c.5-2.3.9-5.3,1.1-7.5h-15.1v-3.4h35.6v3.4h-13.1c-1.6,2.8-3.4,5.6-4.8,7.5h14.4v32.8h-20.4ZM214.2,264.5h16.2v-6.3h-16.2v6.3ZM214.2,274.3h16.2v-6.5h-16.2v6.5ZM214.2,284.3h16.2v-6.7h-16.2v6.7ZM242.1,295.8l-4.2,6.2c-3.6-3.4-9.4-7.7-14.3-11.2l1.2-2.8c6,1.8,11.6,4.2,17.3,7.7ZM226.8,352c-1.2,3.9-3,7.2-5.1,9.9,5.9,1.5,11.4,3.4,15.6,5.7l-4.1,6.9c-5.5-3.4-10.6-5.9-16.2-8.2-7.5,5.7-18.7,7.7-34.4,8.1l-.5-2.8c12.3-1.1,21.8-3.2,28.2-7.7-2.9-1-6.1-1.9-9.5-2.8-1.4,2-2.8,3.7-3.7,4.8l-5.4-3c2-2.6,4.9-6.5,7.6-10.8h-16.3v-3.4h18.5c1.2-2.1,2.4-4.2,3.4-6.1h-16.6v-16.4h13.1v-6.1h-17.2v-3.4h53.9v3.4h-17.3v6.1h13.3v16.4h-26.7l4.5,1.5c-.7,1.3-1.5,2.9-2.6,4.6h30v3.4h-12.6ZM201.7,329.4h-6.9v9.8h6.9v-9.8ZM219.6,352h-12.2c-1.4,2.1-2.9,4.3-4.3,6.3,3.8.5,7.8,1.1,11.7,1.9,2.1-2.3,3.7-5,4.8-8.2ZM207.9,326h6.7v-6.1h-6.7v6.1ZM207.9,339.2h6.7v-9.8h-6.7v9.8ZM220.8,339.2h7.1v-9.8h-7.1v9.8ZM210.5,418.9l5.7,1.2c-2.1,12.3-7.7,21.8-17.6,26.9l-1.5-2.3c4.8-3.2,8.7-9,11.2-16.1-3.1,1.5-6.4,2.7-9.8,3.6l-1.9-6.1c1.5,0,2.8,0,4.1-.1,1.9-2.7,4-6.7,5.7-10.7-2.1.9-4,1.5-5.8,2l.5.9c-2.1,1.5-4.2,2.9-6.3,4.2v18.7c0,5.8-5.8,8.1-13.5,2.3l.7-2.5c5.7,1.4,6.6.8,6.6-2v-13.3c-1.5.7-3.1,1.4-4.7,2l-2.4-6.9c2.4-.3,4.8-.8,7.1-1.3v-15.8h-6.4v-3.4h6.4v-14.6h6.2v14.6h5.7v3.4h-5.7v14.2c1.4-.4,2.8-.9,4.3-1.4l-1.1-4.6c.9,0,1.8,0,2.6,0,1.6-3.4,3.7-9.8,4.3-14.3l6.1,1.9c-2.2,4.6-4.6,9.1-7.1,12.3,1.4,0,2.8-.1,4.3-.3.7-1.9,1.3-3.7,1.7-5.3l5.5,2.3c-2.8,5.8-6.4,12.1-10.8,17.2,1.6-.2,3.2-.5,4.8-.9.5-1.9.9-3.8,1.1-5.7h0ZM240.3,396.7h-41.4v-3.3h20.1c-2.6-2.4-5.3-4.7-7.7-6.5l1.1-2.5c3.8.9,8.3,2.6,11.9,4.8l-2.8,4.2h18.9v3.3h0ZM240.6,438.6v3.4h-18.4v4.7h-5.7v-31.4c-.8,1-1.6,1.9-2.5,2.7l-1.9-1.7c3.7-4.9,6.3-13.1,7.5-18.8l5.8,1.9c-.8,2.3-1.9,4.8-3.1,7.2h6.7c-.6-2.4-1.4-5.1-2.6-8l2.3-1.3c2.5,2.4,4.6,5.5,5.7,7.9l-3.2,1.5h8.3v3.3h-6.7v7.1h5.5v3.2h-5.5v7h5.7v3.2h-5.7v8.2h7.7,0ZM227.2,409.9h-5v7.1h5v-7.1ZM227.2,420.2h-5v7h5v-7ZM227.2,430.5h-5v8.2h5v-8.2ZM207,471.6c-1.2,2.8-2.6,5.4-4.2,7.9h30v32.2c0,7.3-7.1,9.5-18.4,3.8l.7-2.7c9.2,1.4,10.6,1.1,10.6-2.8v-6.2h-22.7v15.4h-7v-30.8c-4,4.4-8.5,8.1-13.1,10.6l-1.6-2.4c7.7-6.3,13.9-14.4,18.2-24.9h-16.2v-4h17.8c1.1-3.3,2.1-6.9,2.9-10.6l7.5,1.5c-.7,3.2-1.7,6.2-2.8,9.1h31v4h-32.7ZM203,489.9h22.7v-6.8h-22.7v6.8ZM203,500.4h22.7v-7.1h-22.7v7.1ZM183.4,555.5h55.5v5.1h-55.5v-5.1ZM193.5,628.7c0,15-2.6,28.4-9.9,36.2l-2.1-1.8c5-8.5,5-18.7,5-36.1v-14.5h28.1c-3.7-2.7-7.7-5.3-10.8-7.4l1-2.6c4.5,1,11,3,15.4,5.4l-2.8,4.5h21.8v3.4h-45.7v12.7ZM240.3,658.1v3.4h-50v-3.4h21.5v-8.6h-16.8v-3.4h16.8v-6.5l-4.6,2.6c-1.1-3.2-2.5-6.8-4-9.8-2.1,4.8-4.6,9-7.7,12.3l-2.1-1.7c3.4-6.1,5.4-14.8,6.1-23.2l6.9,1.5c-.5,2.6-1.1,5.1-1.9,7.5,2.8,2.6,5.4,5.6,7.2,8.6v-19.5h6.7v28.4h17.7v3.4h-17.7v8.6h21.9ZM231.2,621.1c-.4,2.5-1,5-1.7,7.3,3.6,3.2,7.3,7.2,9.3,10.7l-5.6,3.4c-1.2-3.3-3.1-7.2-4.9-10.6-1.7,4.5-4.1,8.6-7.3,12.1l-2.2-1.6c3.4-6.5,5-14.2,5.5-22.6l6.9,1.4h0ZM232.4,736.3c-5.3-1.6-9.2-5.8-11.9-11.5-5.7,5-12.7,8.8-20.9,11.2l-1.1-2.6c7.9-3.4,14.4-8.1,19.7-14.2-2.5-7.8-3.7-17.3-4.1-26.9h-19.9v8.9h16.3c-.1,10-.3,15.3-.8,19.2-.7,6.2-7.3,8.1-16,2.4l.7-2.6c7.8,1.7,8.6,1.1,8.8-1.7.2-2.6.3-6.7.5-13.8h-9.6c0,20.1-4.4,26.9-11.1,32.7l-2-1.9c4.4-6.5,5.9-10.4,5.9-30.8v-16.1h26.9c-.1-4-.2-8.5-.3-12.4h6.9c0,3.9,0,8.5.1,12.4h9.8c-2.2-3.9-4.8-7.5-7.1-10.4l2-2c4,2.6,7.9,5.9,11,9.2l-3.9,3.2h8.1v3.7h-19.7c.3,7.3,1.2,14.1,2.6,19.8,2.8-4.7,5.2-10,7.1-15.8l6.7,2.8c-2.5,7.6-6.3,14.6-11.4,20.5,2,4.8,4.6,8.2,7.7,9.7,2.3,1.1,2.9-.1,2.8-12h2.8c3.2,13.8,2.1,21.9-6.7,19.2h0ZM241.6,801.3l-5.1,8.2c-7.4-3.5-19.7-15.8-23.2-36.8-3.5,19.5-15.1,32.3-30.5,37.4l-1.3-2.6c12.5-6.7,21.7-17.2,24.6-37.5h-22.4v-4h22.8c.1-1.4.3-2.8.3-4.3.3-4.1.3-8.8.3-13.2h7.7c0,5.3-.2,10.2-.5,15.2,0,.7,0,1.5-.1,2.2h24.6v4h-23.1c4.9,18,16,26.9,25.9,31.3h0Z"/>
  <path opacity=".6" d="M25.1,951.5c14.3,0,25,9,25,23.9s-10.1,26.1-25.4,26.1S0,987.8,0,976.4s7.5-24.9,25.1-24.9h0ZM26.4,999c5.7,0,17.6-3.3,17.6-21.9s-9.3-23.5-19.4-23.5-18.6,7-18.6,21,8.9,24.4,20.4,24.4ZM67.4,993.1c.1,4.5.6,5.8,2.2,6.2,1,.2,2.3.3,2.8.3s.5.2.5.5-.4.4-1,.4c-3.2,0-5.4-.2-5.9-.2s-2.9.2-5.4.2-.9,0-.9-.4.2-.5.5-.5c.5,0,1.5,0,2.3-.3,1.4-.4,1.6-1.9,1.6-6.8v-31c0-2.2.3-2.7.8-2.7.6,0,1.6,1.1,2.2,1.7.9.9,9,9.6,17.7,18.5,5.5,5.7,11.5,12.2,13.2,14l-.6-27.2c0-3.5-.4-4.7-2.1-5-1-.2-2.3-.2-2.7-.2s-.4-.3-.4-.5c0-.3.4-.4,1.1-.4,2.5,0,5.2.1,5.9.1s2.5-.1,4.8-.1,1,0,1,.4-.2.5-.6.5-.7,0-1.3.1c-1.9.4-2,1.5-2,4.7v31.7c-.1,3.6-.2,3.9-.6,3.9-.6,0-1.1-.5-4.3-3.3-.6-.5-8.7-8.5-14.6-14.7-6.5-6.8-12.8-13.4-14.5-15.4l.6,25.5h0ZM119.1,975.2c0-8.4,0-9.9-.1-11.7-.1-1.9-.4-2.7-2.3-3-.4,0-1.4-.1-1.9-.1s-.5-.2-.5-.5c0-.3.2-.5.9-.5,2.6,0,6.2.1,6.5.1s12.1,0,13.4,0c1.1,0,2.1-.2,2.6-.3.2,0,.5-.2.8-.2s.3.2.3.5c0,.4-.3,1-.4,2.5,0,.5-.2,2.9-.3,3.6,0,.2-.2.6-.5.6s-.4-.2-.4-.7,0-1.3-.3-1.9c-.4-.9-1-1.3-4-1.7-1-.1-7.5-.2-8.1-.2s-.3.2-.3.6v14.7c0,.4,0,.6.3.6.7,0,8.1,0,9.4-.1,1.3-.1,2.2-.2,2.7-.8s.6-.7.8-.7.3.1.3.5-.3,1.2-.4,3c-.1,1.1-.2,3.1-.2,3.5s-.1,1-.5,1-.4-.2-.4-.5c0-.5,0-1.1-.2-1.8-.2-.8-.7-1.4-2.9-1.7-1.5-.2-7.5-.2-8.5-.2s-.4.2-.4.4v4.5c0,1.8,0,8.2,0,9.2.1,3.6,1.1,4.3,6.7,4.3s4.1,0,5.6-.6c1.5-.6,2.2-1.6,2.5-3.8.1-.6.2-.8.6-.8s.4.5.4.8-.5,4.1-.8,5.2c-.4,1.4-1,1.4-3.1,1.4-4.2,0-7.5-.1-9.8-.2-2.4-.1-3.8-.1-4.7-.1s-1.2,0-2.4,0c-1.1,0-2.4.1-3.2.1s-.9-.1-.9-.5.1-.5.4-.5c.5,0,1.2-.2,1.7-.2,1.1-.2,1.2-1.3,1.5-2.9.3-2.2.3-6.5.3-11.7v-9.6h0ZM170.1,987.3c0-7.5,4.8-12.4,9.8-15.4-2.4-3.3-3.1-5.9-3.1-8.8,0-5,5.2-11.7,13.7-11.7s6,.6,7.7,1.6c.8.5.8.8.8,1.6,0,1.9-.2,6.4-.4,7.3-.2,1-.4,1.1-.6,1.1s-.4-.2-.4-1.2c0-1.7-.4-3.8-2-5.4-1.4-1.5-3.6-2.8-6.4-2.8s-8.1,2.4-8.1,8.3,3.4,9.1,10.1,16.3c2.2,2.4,10,9.7,12,11.4,1.8-2.4,3.2-6.7,3.2-10.6s-.2-2.2-1.2-3.1c-.8-.8-2.2-1-3.1-1s-.8-.1-.8-.4.5-.5,1-.5c1.5,0,4.1,0,7.6.5,1,.1,1.1.6,1.1,1.3,0,5.2-3.5,11.6-6.3,15,4.2,3.6,7,5.3,8.8,6.3,2,1.2,5.3,2.5,7.6,2.5s.9,0,.9.5-.5.5-1.1.5h-6.2c-4.7,0-6.2-.5-13.2-6-1.5,1.5-6.5,6.9-15.9,6.9s-15.5-8.5-15.5-14.1h0ZM199.9,993.3c-3.6-2.9-9.9-9-11.5-10.8-1.7-1.8-5.7-6.3-7.5-8.9-3.3,2.2-5.7,5.6-5.7,10.7,0,8,5.6,13.7,12.7,13.7s9.9-2.5,12-4.7ZM268.1,951.5c14.3,0,25,9,25,23.9s-10.1,26.1-25.4,26.1-24.7-13.6-24.7-25,7.5-24.9,25.1-24.9h0ZM269.5,999c5.7,0,17.6-3.3,17.6-21.9s-9.3-23.5-19.4-23.5-18.6,7-18.6,21,8.9,24.4,20.4,24.4ZM310.4,993.1c.1,4.5.6,5.8,2.2,6.2,1,.2,2.3.3,2.8.3s.4.2.4.5-.4.4-1,.4c-3.2,0-5.4-.2-5.9-.2s-2.9.2-5.4.2-.9,0-.9-.4.2-.5.4-.5c.5,0,1.5,0,2.3-.3,1.4-.4,1.6-1.9,1.6-6.8v-31c0-2.2.3-2.7.8-2.7.6,0,1.6,1.1,2.2,1.7.9.9,9.1,9.6,17.7,18.5,5.5,5.7,11.5,12.2,13.2,14l-.6-27.2c0-3.5-.4-4.7-2.1-5-1-.2-2.3-.2-2.7-.2s-.5-.3-.5-.5c0-.3.5-.4,1.1-.4,2.5,0,5.2.1,5.9.1s2.5-.1,4.8-.1,1,0,1,.4-.2.5-.6.5-.7,0-1.3.1c-1.9.4-2,1.5-2,4.7v31.7c-.1,3.6-.2,3.9-.6,3.9-.6,0-1.1-.5-4.3-3.3-.6-.5-8.7-8.5-14.6-14.7-6.5-6.8-12.8-13.4-14.5-15.4l.6,25.5h0ZM367.2,984.9c0,8,.1,11.2,1.1,12.2.9.9,3.1,1.3,7.5,1.3s5.4,0,6.8-1.7c.7-.8,1.1-2,1.3-3.1,0-.4.2-.7.6-.7s.4.2.4.8-.4,3.8-.8,5.4c-.4,1.3-.6,1.5-3.6,1.5s-7.1,0-9.8-.2c-2.6,0-4.5-.1-6.1-.1s-1.2,0-2.3,0c-1.1,0-2.4.1-3.2.1s-.9-.1-.9-.5.1-.5.5-.5c.5,0,1.2-.1,1.7-.2,1.1-.2,1.2-1.3,1.5-2.9.3-2.2.3-6.5.3-11.7v-9.6c0-8.4,0-9.9-.1-11.7-.1-1.9-.5-2.7-2.3-3-.5,0-1.4-.1-1.9-.1s-.5-.2-.5-.5c0-.3.2-.5.9-.5,2.5,0,6,.1,6.4.1s4.5-.1,6.2-.1.9.1.9.5-.2.4-.5.4c-.4,0-1.2,0-1.9.1-1.7.3-2,1.2-2.1,3.1,0,1.7,0,3.2,0,11.7v9.7h0ZM403.5,986.5c0-2.9-.4-4-1.2-5.5-.5-.8-8-12.9-9.9-15.7-1.3-2-2.7-3.2-3.7-4-.8-.5-1.9-.8-2.4-.8s-.6-.2-.6-.5.2-.4.7-.4c1.1,0,5.3.1,5.5.1.4,0,2.7-.1,4.8-.1s.8.1.8.4-.4.4-.9.6c-.4.2-.7.4-.7.9,0,.8.4,1.4.8,2.1l10.2,16.9c1.1-2.3,8.2-13.9,9.2-15.7.7-1.2,1-2.1,1-2.8s-.2-1.2-.9-1.4c-.5-.1-.8-.4-.8-.6s.3-.3.9-.3c1.5,0,3.4.1,3.9.1s4.4-.1,5.5-.1.7.1.7.3-.2.6-.7.6c-.6,0-1.7.2-2.6.7-1.1.6-1.6,1.2-2.8,2.7-1.8,2.2-9.8,14.9-10.9,17.2-1,1.9-.7,3.6-.7,5.4v4.6c0,.9,0,3.2.2,5.4.1,1.6.5,2.6,2.2,2.9.8.1,2,.2,2.5.2s.5.2.5.5-.3.4-.9.4c-3.1,0-6.8-.2-7.1-.2s-3.8.2-5.5.2-.9-.1-.9-.4.1-.5.4-.5c.5,0,1.1-.1,1.7-.2,1.1-.2,1.5-1.3,1.7-2.9.1-2.2.1-4.5.1-5.4v-4.6h0Z"/>
</svg>