<svg width="619" height="47" viewBox="0 0 619 47" fill="none" xmlns="http://www.w3.org/2000/svg">
<path d="M19.88 7.93V1.62H23.5C23.55 6.08 23.5 9.06 23.4 11.85C25.55 26.05 33.29 36.09 43.97 42.06L41.23 45.88C33.2 40.98 25.17 31.34 22.62 17.24C20.51 32.22 11.99 41.04 0.779999 46.03L0 44.66C12.98 36.97 19.88 24.78 19.88 7.94V7.93Z" fill="white"/>
<path d="M97.39 41.3299V43.5799H55.38V41.3299H74.72V28.3499H60.03V26.2399H74.72V15.2199H63.56C61.65 19.1899 59.2 22.8099 56.22 25.5499L55.09 24.5199C59.35 19.1299 62.29 11.7899 63.9 2.57994L67.62 3.55994C66.93 6.73994 65.86 10.0199 64.54 13.1599H74.72V0.689941H78.2V13.1799H94.06V15.2399H78.2V26.2599H92.74V28.3699H78.2V41.3499H97.39V41.3299Z" fill="white"/>
<path d="M146.12 36.6301L142.74 34.28C146.27 30.31 148.42 25.56 149.69 17.83L151.21 18.0301C151.06 26.1101 149.01 32.23 146.12 36.64V36.6301ZM176.52 29.13C178.43 41.37 177.89 43.7701 171.97 44.0201C168.44 44.1701 165.56 44.12 162.76 44.0201C158.21 43.82 156.15 43.43 155.71 39.42C152.04 42.06 148.17 44.0201 144.15 45.5401L143.46 44.17C147.52 42.16 151.64 39.71 155.6 36.34V9.99005H159.03V33.1C165.49 26.44 171.12 16.89 174.55 2.45005L178.22 3.62005C173.86 19.19 167.1 29.7701 159.03 36.7701V37.3601C159.03 40.2001 159.91 40.69 163.09 40.89C165.59 41.0401 168.87 41.09 171.46 40.89C174.64 40.64 174.94 40.16 174.99 29.14H176.51L176.52 29.13ZM155.47 1.67005L156.25 0.300049C160.56 2.16005 165.36 5.05005 169.81 8.58005L167.21 11.76C163.24 7.70005 159.52 4.71005 155.46 1.67005H155.47ZM186.85 32.51L183.23 34.03C181.37 28.2 179.07 22.82 176.28 17.43L177.6 16.6C181.37 21.3 184.9 27.23 186.85 32.51Z" fill="white"/>
<path d="M214.72 27.42C211.24 34.03 204.58 41.42 197.39 45.29L196.56 43.97C202.63 39.51 208.41 32.56 211.54 25.56L214.72 27.42ZM197.92 30.31L196.99 29.04C202.18 24.93 207.22 18.81 210.26 12.64L213.3 14.4C210.07 20.37 203.95 26.69 197.92 30.31ZM198.12 16.6L197.19 15.38C201.6 11.71 205.95 6.16998 208.55 0.97998L211.49 2.64998C208.41 7.83998 203.36 13.18 198.12 16.61V16.6ZM222.99 36.19L225.93 38.39C222.16 41.38 214.81 44.9 209.53 46.27L208.94 44.85C213.54 43.28 219.37 39.51 222.99 36.18V36.19ZM225.98 5.72998H214.13V3.76998H240.38V5.72998H229.75C228.72 8.02998 227.5 10.28 226.62 11.8H237.59V35.79H216.58V11.8H224.81C225.25 9.98998 225.69 7.53998 225.99 5.72998H225.98ZM234.35 13.71H219.81V18.95H234.35V13.71ZM234.35 20.91H219.81V26.3H234.35V20.91ZM234.35 28.2H219.81V33.88H234.35V28.2ZM241.55 43.04L239.35 46.17C236.8 43.97 231.96 40.49 228.23 38.04L228.92 36.57C233.18 38.14 237.88 40.54 241.55 43.03V43.04Z" fill="white"/>
<path d="M283.32 29.58C282.34 32.86 280.97 35.6 278.96 37.9C283.37 39.12 287.68 40.69 291.5 42.55L289.39 46.08C284.93 43.58 280.82 41.67 276.51 40.16C271.66 43.88 263.97 45.89 251.64 46.43L251.35 44.91C261.49 44.08 268.49 42.32 273.14 38.99C270.3 38.06 267.31 37.23 264.13 36.44C263.15 37.76 262.22 38.99 261.44 39.97L258.84 38.35C260.7 36 262.9 32.87 264.96 29.58H252.13V27.67H266.13C267.21 25.86 268.24 24.1 269.07 22.43H256.24V10.73H266.28V5.59H253.16V3.63H292.38V5.59H279.21V10.73H289.44V22.43H270L272.4 23.36C271.71 24.68 270.93 26.15 270 27.67H293.7V29.58H283.32ZM266.28 12.63H259.43V20.51H266.28V12.63ZM279.8 29.58H268.83C267.65 31.44 266.38 33.25 265.21 34.97C268.54 35.46 272.02 36.14 275.49 36.98C277.45 34.97 278.82 32.52 279.8 29.59V29.58ZM269.37 10.72H276.13V5.58H269.37V10.72ZM269.37 20.52H276.13V12.64H269.37V20.52ZM279.21 20.52H286.26V12.64H279.21V20.52Z" fill="white"/>
<path d="M313.63 28.35V42.35C313.63 45.97 310.55 47.54 304.18 44.11L304.57 42.69C309.86 43.77 310.59 43.38 310.59 41.22V29.76C308.93 30.49 307.26 31.18 305.64 31.72L304.42 28.19C306.43 27.8 308.48 27.31 310.59 26.72V13.65H304.96V11.74H310.59V0.69H313.63V11.76H318.62V13.67H313.63V25.86C315.29 25.32 316.91 24.78 318.48 24.19L318.97 25.41C317.26 26.44 315.44 27.47 313.63 28.35ZM326.76 25.56L329.8 26.2C328.48 34.57 325.1 42.02 316.87 46.18L316.04 44.91C320.79 42.07 323.78 37.37 325.44 31.98C322.75 33.25 319.76 34.18 317.02 34.82L315.99 31.59C316.92 31.54 317.85 31.44 318.73 31.34C320.35 29.23 322.35 25.76 323.97 22.28C321.67 23.11 319.66 23.65 317.85 24.04L317.02 20.96C317.61 20.96 318.24 20.91 318.78 20.86C320.1 18.46 322.06 13.32 322.79 9.74L325.87 10.77C324.3 14.49 322.3 18.31 320.53 20.76C322 20.66 323.42 20.47 324.89 20.22C325.48 18.85 325.97 17.53 326.36 16.35L329.25 17.67C327.05 22.32 323.96 27.41 320.88 31.04C322.64 30.79 324.31 30.4 325.97 29.96C326.31 28.54 326.56 27.02 326.75 25.55L326.76 25.56ZM348.25 8.81H317.55V6.9H332.58C330.87 4.94 328.81 2.84 326.95 1.32L327.73 0C330.23 1.13 333.16 2.99 335.37 4.8L333.7 6.91H348.24V8.82L348.25 8.81ZM348.4 40.45V42.36H334V46.13H331.06V21.65C330.28 22.78 329.44 23.8 328.56 24.69L327.48 23.71C330.07 20.33 332.33 14.36 333.55 9.8L336.49 10.78C335.9 12.64 335.07 14.65 334.09 16.61H340.21C339.67 14.65 338.84 12.35 338.01 10.2L339.23 9.51C340.8 11.32 342.31 13.87 343.1 15.83L341.24 16.61H347.8V18.52H341.97V24.3H346.77V26.21H341.97V31.94H347.06V33.85H341.97V40.46H348.39L348.4 40.45ZM339.05 18.51H334.01V24.29H339.05V18.51ZM339.05 26.2H334.01V31.93H339.05V26.2ZM339.05 33.84H334.01V40.45H339.05V33.84Z" fill="white"/>
<path d="M376.51 10.38C375.48 12.68 374.31 14.88 373.03 16.94H395.8V41.37C395.8 45.87 391.34 47.1 383.02 43.67L383.36 42.2C391.1 43.33 392.42 43.08 392.42 40.34V34.37H373.08V46.07H369.75V21.59C366.57 25.56 362.94 28.74 359.17 30.99L358.29 29.77C364.12 25.22 369.26 18.8 372.83 10.38H359.71V8.13002H373.76C374.69 5.63002 375.47 2.99002 376.11 0.150024L379.73 0.840024C379.09 3.39002 378.36 5.83002 377.43 8.14002H401.67V10.39H376.5L376.51 10.38ZM373.08 24.68H392.42V19H373.08V24.68ZM373.08 32.42H392.42V26.59H373.08V32.42Z" fill="white"/>
<path d="M413.77 19.64H454.7V22.33H413.77V19.64Z" fill="white"/>
<path d="M473.86 22.33C473.86 33.89 471.85 41.52 467.25 46.42L466.08 45.44C470.05 39.56 470.44 32.12 470.44 21.06V7.79H491.01C488.61 5.64 485.77 3.33 483.47 1.57L484.2 0.25C487.19 1.43 491.15 3.53 493.9 5.44L492.19 7.79H509.08V9.75H473.87V22.34L473.86 22.33ZM509.75 41.82V43.83H472.68V41.82H489.43V34.62H475.96V32.71H489.43V11.26H492.76V32.71H506.67V34.62H492.76V41.82H509.75ZM483.75 13.66C483.46 15.57 483.06 17.43 482.53 19.24C485.03 21.69 487.67 24.92 489.04 27.61L486.15 29.27C485.17 26.82 483.46 23.54 481.99 21.04C480.62 25.05 478.61 28.53 476.07 31.22L474.99 30.24C477.88 26.08 479.69 19.76 480.23 12.91L483.76 13.64L483.75 13.66ZM502.11 13.71C501.86 15.62 501.47 17.43 501.03 19.14C503.58 21.59 506.56 25.02 508.13 27.66L505.24 29.42C504.11 26.92 502.2 23.59 500.44 20.95C499.26 24.52 497.5 27.76 494.96 30.69L493.83 29.76C496.82 25.01 498.09 19.33 498.58 12.96L502.11 13.69V13.71Z" fill="white"/>
<path d="M558.47 45.49C554.6 44.17 551.52 40.59 549.31 35.6C544.95 39.76 539.66 42.94 533.45 44.95L532.81 43.53C538.78 40.94 543.93 37.41 548.14 32.66C546.13 26.93 545.01 19.83 544.71 12.34H528.11V19.68H540.99C540.84 27.02 540.7 31.24 540.4 33.88C539.91 37.94 535.99 39.02 528.75 35.59L529.14 34.12C536.09 35.49 537.02 35.15 537.17 32.8C537.32 30.94 537.51 27.02 537.66 21.64H528.11V21.84C528.11 34.72 526.1 41.03 520.91 46.08L519.78 45.05C523.55 39.91 524.63 35.94 524.63 22.09V10.29H544.66C544.51 7.21004 544.46 3.73004 544.46 0.790039H547.79C547.79 3.68004 547.84 7.16004 547.89 10.29H556.75C555.04 7.55004 552.78 4.41004 550.78 2.11004L551.81 1.03004C554.6 2.99004 557.39 5.78004 559.45 8.08004L556.9 10.28H563.66V12.34H547.94C548.19 18.85 549.16 24.73 550.63 29.53C553.32 25.76 555.53 21.3 557.24 16.11L560.57 17.48C558.56 23.36 555.67 28.6 551.85 32.95C553.76 37.55 556.26 40.78 559.1 42.06C560.91 42.89 561.55 41.96 561.3 31.34H562.77C564.83 42.8 563.65 47.25 558.46 45.49H558.47Z" fill="white"/>
<path d="M618.46 41.67L615.87 45.83C610.39 43.24 599.27 33.79 596.97 16.3C594.96 31.38 586.69 41.76 574.69 46.17L573.95 44.75C584.09 39.76 591.28 30.94 593.19 16.3H575.42V14H593.49C593.59 12.97 593.64 11.89 593.69 10.77C593.84 7.29001 593.94 3.82 593.94 0.630005L597.61 0.680005C597.61 4.45 597.51 8.07001 597.37 11.85L597.22 14H616.51V16.3H598.59C601.58 29.86 610.39 38.04 618.47 41.66L618.46 41.67Z" fill="white"/>
</svg>
