<?xml version="1.0" encoding="UTF-8"?><svg id="_圖層_1" data-name="圖層_1" xmlns="http://www.w3.org/2000/svg" version="1.1" xmlns:xlink="http://www.w3.org/1999/xlink" viewBox="0 0 1920 1400"><!--Generator: Adobe Illustrator 30.0.0, SVG Export Plug-In . SVG Version: 2.1.1 Build 123)--><defs><linearGradient id="_未命名漸層" data-name="未命名漸層" x1="1160" y1="291.1" x2="1392.4" y2="149.1" gradientUnits="userSpaceOnUse"><stop offset="0" stop-color="#d3ad3d"/><stop offset=".4" stop-color="#ce9f2f"/><stop offset=".4" stop-color="#d2a840"/><stop offset=".5" stop-color="#dec26e"/><stop offset=".6" stop-color="#eee5ac"/><stop offset=".8" stop-color="#c5a546"/><stop offset="1" stop-color="#bc8c32"/></linearGradient></defs><line x1="1293.7" y1="348" x2="1293.7" y2="625" fill="none" stroke="#fff" stroke-width="1.3"/><path d="M1231.9,294.3c-2.9,0-6.2-3.6-8.8-10.6-3.1,3.6-6.8,7.1-11.5,10.6l-4.1-3.3c6.1-4,10.5-8.6,13.8-13.3-2-8.3-3.5-20.3-4.2-31h-12.5c0,3,0,5.8,0,8.5h10.7v21.6c0,3.7-2.9,6.1-7.6,6.1h-2.3l-1-4.1h2.7c2.5,0,2.7-1,2.7-2.8v-17h-5.2c-.4,15.1-1.6,24.8-4.4,35.2l-5.7-2.8c3.7-13.3,4.2-20.9,4.2-48.8h18.2c-.2-4.2-.3-8-.3-11.2l5.8-.7c0,3.9,0,8,.3,11.9h7.6c-2.3-3.9-4.6-7.1-6.3-9l3.6-2.8c1.9,2,4.7,5.4,7,9.2l-4,2.7h6.7v3.9h-14.5c.6,8.5,1.6,16.6,2.9,23.2,2.9-6.6,4.3-13.2,5.2-19l5.5,1.6c-1.2,7.4-3,16.4-8.8,25.4,3.1,11.5,5.8,14.1,4.1.8l5.8,1.7c.5,9.4-1.7,14-5.5,14h0ZM1286.9,244.8v3.9h-17.6c.8,11.8,5,28.1,16.8,42l-4.5,3.7c-8.4-9.6-12.7-20.5-14.8-30.9-2.6,10.9-7.2,21.2-15.6,30.8l-4.8-3.7c11.2-13.7,15.5-26.4,16.6-41.9h-16.9v-3.9h17.2c.2-4.4,0-9,0-13.9h5.9c.1,4.7.1,9.4,0,13.9h17.7ZM1338.5,288.8l-2,4.1h-9.8c-8.8,0-15.2-4.4-18.4-9.8-3.3,4.3-4.1,7.3-4.1,11.2h-5.9c0-8.6,3.8-14,18.8-27.9,5.7-5.2,12.1-12.5,11.7-22.1h0c0-.1-29.6-.1-29.6-.1v-3.9h14.6v-9.4h5.8v9.4h14.9v3.9c0,9.5-5.9,18.5-13,25.3-4.1,3.9-7.2,7-9.6,9.6,2.7,6.2,8.6,9.7,16.9,9.7h9.8ZM1353.2,266h-6.2v-3.9h7.9v-6.3h5.6v6.3h6.4v3.9h-4.6c1.8,3.5,4.8,9.8,5.7,13l-3.9,4.7c-.7-3-2.5-9-3.7-12.7v23.3h-5.6v-19.7c-.9,5.9-2.3,12.6-3.7,16.3l-4.9-3.6c2.2-5.1,5.6-15.6,6.8-21.4h0ZM1362.7,240.4h-15.2v-3.9h17.4v-5.6h5.8v5.6h17.5v3.9h-15.3c3.7,4.4,11,9.1,16.6,12.1l-3.6,3.7c-4.4-2.3-11.8-7.8-15.2-12.3v13.7h-5.8v-13.3c-3.2,4.2-8.2,8-14.5,11.9l-3.8-3.6c6.5-3.5,12.8-8.3,16.1-12.3h0ZM1374.5,266h-5.6v-3.9h6.5v-6.3h5.6v6.3h7.9v3.9h-6.7c1.2,5,3.9,14.2,7,20.2l-4.4,4.3c-1.7-3.8-3.1-9.6-4-14.8v18.6h-5.6v-16.6c-1.3,4.3-3.1,9-5.3,12.8l-3.8-4.4c4.4-7.1,6.7-12.9,8.1-20.2h0ZM1196.1,305.3c0,.8,0,1.5,0,1.9,0,.3,0,.4.3.5.1,0,.3,0,.4,0s.1,0,.1,0c0,0,0,0-.2,0-.6,0-1.1,0-1.3,0s-.8,0-1.1,0-.2,0-.2,0,0,0,.1,0,.2,0,.3,0c.2,0,.2-.2.2-.5,0-.4,0-1,0-1.9v-1.5c0-1.3,0-1.6,0-1.9,0-.3,0-.4-.4-.5,0,0-.2,0-.3,0s-.2,0-.2,0,0,0,.2,0c.2,0,.5,0,.7,0,.2,0,.4,0,.5,0,.3,0,2.1,0,2.3,0,.2,0,.3,0,.4,0,0,0,0,0,.1,0s0,0,0,0,0,.2,0,.4c0,0,0,.6,0,.7,0,0,0,.1,0,.1s0,0,0-.1c0,0,0-.2,0-.3,0-.1-.2-.3-.6-.3h-1.3c0,0,0,0,0,0v2.2c0,0,0,0,0,0h1.1c.1,0,.3,0,.4,0,.2,0,.3,0,.4-.2,0,0,0,0,.1,0s0,0,0,0,0,.3,0,.5c0,.2,0,.6,0,.6s0,.2,0,.2,0,0,0-.1,0-.2,0-.3c0-.1-.2-.3-.5-.3-.2,0-1.2,0-1.3,0s0,0,0,0v.7h0ZM1203.3,304.6c0-1.5,1-3.4,3.6-3.4s3.6,1.3,3.6,3.3-1.4,3.6-3.6,3.6-3.5-1.9-3.5-3.4ZM1209.3,304.7c0-2-1.1-3.2-2.6-3.2s-2.2.6-2.2,2.8,1,3.3,2.7,3.3,2-.3,2-2.8h0ZM1216.2,303.8c0-1.3,0-1.6,0-1.9,0-.3,0-.4-.4-.5,0,0-.2,0-.3,0s-.2,0-.2,0,0,0,.2,0c.5,0,1,0,1.2,0,.3,0,1,0,1.2,0,.6,0,1.2,0,1.6.4.2.2.6.6.6,1.2s-.3,1.2-1.2,2c.8,1,1.4,1.8,1.9,2.3.5.5.8.6,1,.6,0,0,.2,0,.2,0s0,0,0,0c0,0,0,0-.2,0h-.8c-.5,0-.7,0-.9-.2-.4-.2-.7-.6-1.2-1.3-.3-.5-.8-1.1-.9-1.2,0,0,0,0-.2,0h-.8s0,0,0,0h0c0,.9,0,1.6,0,2,0,.3,0,.4.3.5.1,0,.3,0,.4,0s0,0,0,0,0,0-.2,0c-.5,0-1.2,0-1.3,0s-.7,0-1.1,0-.2,0-.2,0,0,0,.1,0,.2,0,.3,0c.2,0,.2-.2.3-.5,0-.4,0-1.1,0-1.9v-1.5h0ZM1217.2,304.5c0,0,0,.1,0,.2.2,0,.4,0,.7,0,.4,0,.5,0,.6-.1.3-.2.5-.6.5-1.3,0-1.2-.8-1.6-1.3-1.6s-.4,0-.5,0c0,0,0,0,0,.1v2.7h0ZM1226.6,303.8c0-1.3,0-1.6,0-1.9,0-.3,0-.4-.4-.5,0,0-.2,0-.3,0s-.2,0-.2,0,0,0,.2,0c.2,0,.5,0,.7,0,.2,0,.4,0,.5,0,.3,0,2,0,2.2,0,.2,0,.3,0,.4,0,0,0,0,0,.1,0s0,0,0,0,0,.2,0,.6c0,0,0,.5,0,.6,0,0,0,0,0,0s0,0,0-.1,0-.2,0-.3c0-.2-.2-.3-.6-.3-.2,0-1.1,0-1.2,0s0,0,0,0v2.2c0,0,0,0,0,0,.2,0,1.2,0,1.4,0,.2,0,.3,0,.4-.1,0,0,0-.1.1-.1s0,0,0,0,0,.2,0,.6c0,.2,0,.5,0,.6s0,.2,0,.2,0,0,0,0c0,0,0-.2,0-.3,0-.2-.2-.3-.5-.3-.2,0-1,0-1.2,0s0,0,0,0v.7c0,.3,0,1.1,0,1.4,0,.6.2.7,1.1.7s.6,0,.8-.1c.2-.1.3-.3.4-.7,0,0,0-.1,0-.1s0,0,0,.2c0,.2,0,.8-.1,1,0,.2-.1.2-.5.2-.7,0-1.1,0-1.5,0-.4,0-.6,0-.9,0s-.3,0-.5,0c-.2,0-.4,0-.6,0s-.2,0-.2,0,0,0,.1,0,.2,0,.3,0c.2,0,.2-.2.2-.5,0-.4,0-1.1,0-1.9v-1.5h0ZM1235.5,307.8c-.1,0-.2-.1-.2-.3,0-.5,0-1,0-1.2,0-.1,0-.2.1-.2s0,0,0,.2c0,.1,0,.3,0,.4.2.6.7.9,1.3.9.8,0,1.2-.5,1.2-1s-.1-.8-.9-1.4l-.4-.3c-1-.8-1.3-1.4-1.3-2.1s.8-1.7,2-1.7.9,0,1.2.1c0,0,.1,0,.1.1,0,.1,0,.4,0,1.1s0,.3,0,.3,0,0,0-.2,0-.4-.2-.6c-.1-.2-.4-.4-1-.4s-1,.4-1,.9.2.7.9,1.3l.2.2c1.1.8,1.4,1.4,1.4,2.2s-.2,1.1-.8,1.5c-.4.3-.9.4-1.4.4s-.9,0-1.3-.2h0ZM1246.1,301.7h-1.3c-.5,0-.7,0-.9.3,0,.1-.1.2-.1.3,0,0,0,.1,0,.1s0,0,0-.1c0-.1.2-.9.2-1,0-.1,0-.2.1-.2s.2,0,.4.1c.2,0,.6,0,.9,0h3.5c.3,0,.5,0,.6,0,.1,0,.2,0,.2,0,0,0,0,0,0,.2,0,.2,0,.8,0,1,0,0,0,.1,0,.1s0,0,0-.2h0c0-.3-.3-.6-1-.6h-1.1s0,3.6,0,3.6c0,.8,0,1.5,0,1.9,0,.2,0,.4.3.5.1,0,.3,0,.5,0s.1,0,.1,0,0,0-.2,0c-.6,0-1.1,0-1.4,0s-.8,0-1.1,0-.2,0-.2,0,0,0,.1,0,.2,0,.3,0c.2,0,.2-.2.3-.5,0-.4,0-1.1,0-1.9v-3.6h0ZM1260.5,304.6c0-1.5,1-3.4,3.6-3.4s3.6,1.3,3.6,3.3-1.4,3.6-3.6,3.6-3.6-1.9-3.6-3.4ZM1266.4,304.7c0-2-1.1-3.2-2.6-3.2s-2.2.6-2.2,2.8,1,3.3,2.7,3.3,2-.3,2-2.8h0ZM1274.4,305.3c0,.8,0,1.5,0,1.9,0,.3,0,.4.3.5.1,0,.3,0,.4,0s.1,0,.1,0c0,0,0,0-.2,0-.5,0-1.1,0-1.3,0s-.8,0-1.1,0-.2,0-.2,0,0,0,.1,0c.1,0,.2,0,.3,0,.2,0,.2-.2.3-.5,0-.4,0-1,0-1.9v-1.5c0-1.3,0-1.6,0-1.9,0-.3,0-.4-.4-.5,0,0-.2,0-.3,0s-.2,0-.2,0,0,0,.2,0c.2,0,.5,0,.7,0,.2,0,.4,0,.6,0,.3,0,2.1,0,2.3,0,.2,0,.3,0,.4,0,0,0,0,0,.1,0s0,0,0,0,0,.2,0,.4c0,0,0,.6,0,.7,0,0,0,.1,0,.1s0,0,0-.1c0,0,0-.2,0-.3,0-.1-.2-.3-.6-.3h-1.3c0,0,0,0,0,0v2.2c0,0,0,0,0,0h1.1c.2,0,.3,0,.4,0,.2,0,.3,0,.4-.2,0,0,0,0,.1,0s0,0,0,0,0,.3,0,.5c0,.2,0,.6,0,.6s0,.2,0,.2,0,0,0-.1,0-.2,0-.3c0-.1-.2-.3-.4-.3-.2,0-1.2,0-1.3,0s0,0,0,0v.7h0ZM1289.2,307c-.9-.8-1.1-1.7-1.1-2.6s.2-1.6,1-2.4c.6-.6,1.5-.9,2.8-.9s.9,0,1.3,0c.3,0,.6.1.9.1.1,0,.1,0,.1.1s0,.2,0,.5c0,.3,0,.8,0,.9,0,.1,0,.2-.1.2s0,0,0-.2c0-.3-.1-.6-.3-.8-.3-.3-1-.5-1.8-.5s-1.3.2-1.6.5c-.6.6-.8,1.4-.8,2.3,0,2.1,1.6,3.1,2.8,3.1s1.3,0,1.6-.5c.2-.2.3-.4.3-.6,0-.1,0-.2.1-.2s0,0,0,.1c0,.1,0,.9-.2,1.2,0,.1,0,.2-.2.3-.4.1-1,.2-1.6.2-1.2,0-2.2-.3-3-1h0ZM1304.4,304s0,0,0,0v-.2c0-1.3,0-1.6,0-1.9,0-.3,0-.4-.4-.5,0,0-.2,0-.3,0s-.2,0-.2,0,0,0,.2,0c.5,0,1,0,1.3,0s.8,0,1.1,0,.2,0,.2,0,0,0-.2,0-.2,0-.2,0c-.2,0-.3.2-.3.5,0,.3,0,.5,0,1.9v1.5c0,.8,0,1.5,0,1.9,0,.2,0,.4.3.5.1,0,.3,0,.5,0s.1,0,.1,0,0,0-.2,0c-.6,0-1.1,0-1.4,0s-.8,0-1.1,0-.2,0-.2,0,0,0,.1,0,.2,0,.3,0c.2,0,.2-.2.2-.5,0-.4,0-1.1,0-1.9v-.8s0,0,0,0h-3.4s0,0,0,0v.8c0,.8,0,1.5,0,1.9,0,.2,0,.4.3.5.1,0,.3,0,.4,0s.1,0,.1,0c0,0,0,0-.2,0-.6,0-1.1,0-1.4,0s-.8,0-1.1,0-.2,0-.2,0,0,0,.1,0,.2,0,.3,0c.2,0,.2-.2.2-.5,0-.4,0-1.1,0-1.9v-1.5c0-1.3,0-1.6,0-1.9,0-.3,0-.4-.4-.5,0,0-.2,0-.3,0s-.2,0-.2,0,0,0,.2,0c.5,0,1,0,1.3,0s.8,0,1.1,0,.2,0,.2,0,0,0-.2,0-.2,0-.2,0c-.2,0-.3.2-.3.5,0,.3,0,.5,0,1.9v.2s0,0,0,0h3.4ZM1312.3,303.8c0-1.3,0-1.6,0-1.9,0-.3,0-.4-.4-.5,0,0-.2,0-.3,0s-.1,0-.1,0,0,0,.2,0c.2,0,.5,0,.7,0,.2,0,.4,0,.5,0,.3,0,2,0,2.2,0,.2,0,.3,0,.4,0,0,0,.1,0,.1,0s0,0,0,0,0,.2,0,.6c0,0,0,.5,0,.6,0,0,0,0,0,0s0,0,0-.1,0-.2,0-.3c0-.2-.2-.3-.6-.3-.1,0-1.1,0-1.2,0s0,0,0,0v2.2c0,0,0,0,0,0,.2,0,1.2,0,1.4,0,.2,0,.3,0,.4-.1,0,0,0-.1.1-.1s0,0,0,0,0,.2,0,.6c0,.2,0,.5,0,.6s0,.2,0,.2,0,0,0,0c0,0,0-.2,0-.3,0-.2-.2-.3-.5-.3-.2,0-1,0-1.2,0s0,0,0,0v.7c0,.3,0,1.1,0,1.4,0,.6.2.7,1,.7s.6,0,.8-.1c.2-.1.3-.3.4-.7,0,0,0-.1,0-.1s0,0,0,.2c0,.2,0,.8-.1,1,0,.2-.1.2-.5.2-.7,0-1.1,0-1.5,0-.4,0-.7,0-.9,0s-.3,0-.5,0c-.2,0-.4,0-.6,0s-.2,0-.2,0,0,0,.1,0,.2,0,.3,0c.2,0,.2-.2.2-.5,0-.4,0-1.1,0-1.9v-1.5h0ZM1322.2,306.7c0,.7.1.9.3,1,.2,0,.3,0,.5,0s.1,0,.1,0,0,0-.2,0c-.6,0-.9,0-1.1,0s-.5,0-.9,0-.2,0-.2,0,0,0,.1,0c.1,0,.3,0,.4,0,.2,0,.3-.3.3-1.1v-5.2c0-.2.1-.3.2-.3s.2.1.3.3c.1.1,1.4,1.5,2.7,2.8.6.6,1.8,1.9,1.9,2h0v-3.9c-.1-.5-.2-.7-.4-.8-.1,0-.3,0-.5,0s-.1,0-.1,0,0,0,.2,0c.5,0,.9,0,1.1,0s.4,0,.9,0,.2,0,.2,0,0,0-.2,0-.2,0-.3,0c-.2,0-.3.3-.3.7v5.5c-.1.2-.1.3-.2.3s-.2,0-.3-.2c-.6-.5-1.7-1.7-2.6-2.6-1-.9-1.9-2.1-2.1-2.2h0v3.7c0,0,0,0,0,0ZM1339.1,307.3c0,.2,0,.3-.1.3-.6.3-1.4.4-2.1.4-2.1,0-4.1-1-4.1-3.4s.7-2.4,1.5-2.9c.8-.5,1.6-.6,2.4-.6s1.4.1,1.6.1c.2,0,.5,0,.7,0,.1,0,.1,0,.1.1,0,0,0,.3,0,1.4s0,.2,0,.2,0,0,0-.1c0-.2,0-.5-.3-.7-.3-.3-1-.7-2-.7s-1.1,0-1.7.5c-.5.4-.8,1.1-.8,2.2,0,1.9,1.2,3.3,3.1,3.3s.5,0,.7,0c.1,0,.2-.2.2-.3v-.8c0-.4,0-.8,0-1,0-.3,0-.4-.4-.5,0,0-.2,0-.3,0s-.1,0-.1,0,0,0,.2,0c.5,0,1,0,1.3,0s.7,0,1,0,.2,0,.2,0,0,0-.1,0-.1,0-.2,0c-.2,0-.3.2-.3.5,0,.3,0,.6,0,1.1v1h0ZM1352.9,304.2h0c.3-.3,1.6-1.6,1.8-1.9.2-.3.4-.5.4-.7s0-.2-.1-.2c0,0-.1,0-.1,0s0,0,.1,0c.2,0,.7,0,.9,0s.8,0,1,0,.2,0,.2,0,0,0-.1,0c-.1,0-.3,0-.5,0-.3.1-.6.3-1,.7-.3.3-1.6,1.6-1.9,1.9.3.4,2,2.3,2.4,2.6.4.4.8.8,1.3,1,.3.1.4.1.6.1s.1,0,.1,0,0,0-.2,0h-.8c-.3,0-.4,0-.6,0-.5,0-.7-.2-1.1-.6-.4-.3-2.1-2.4-2.3-2.6h0c0-.1,0-.1,0-.1v.8c0,.8,0,1.5,0,1.9,0,.2,0,.4.3.5.1,0,.3,0,.4,0s.1,0,.1,0,0,0-.2,0c-.5,0-1,0-1.3,0s-.8,0-1.1,0-.2,0-.2,0,0,0,.1,0,.2,0,.3,0c.2,0,.2-.2.3-.5,0-.4,0-1.1,0-1.9v-1.5c0-1.3,0-1.6,0-1.9,0-.3,0-.4-.4-.5,0,0-.2,0-.3,0s-.2,0-.2,0,0,0,.2,0c.5,0,1,0,1.2,0s.8,0,1.1,0,.2,0,.2,0,0,0-.1,0-.1,0-.2,0c-.2,0-.3.2-.3.5,0,.3,0,.5,0,1.9v.4h0ZM1362,303.8c0-1.3,0-1.6,0-1.9,0-.3,0-.4-.4-.5,0,0-.2,0-.3,0s-.2,0-.2,0,0,0,.2,0c.5,0,1,0,1.3,0s.8,0,1.1,0,.2,0,.2,0,0,0-.1,0-.1,0-.3,0c-.2,0-.3.2-.3.5,0,.3,0,.5,0,1.9v1.2c0,1.3.2,1.8.7,2.2.4.3.8.4,1.1.4s.9-.1,1.2-.5c.5-.5.5-1.3.5-2.2v-1.1c0-1.3,0-1.6,0-1.9,0-.3,0-.4-.4-.5,0,0-.2,0-.3,0s-.2,0-.2,0,0,0,.2,0c.4,0,1,0,1,0,.1,0,.7,0,1,0s.2,0,.2,0,0,0-.2,0-.2,0-.3,0c-.2,0-.3.2-.3.5,0,.3,0,.5,0,1.9v.9c0,1,0,2-.8,2.6-.6.5-1.2.6-1.8.6s-1.3,0-1.9-.6c-.4-.4-.8-1.1-.8-2.3v-1.3h0ZM1374.2,306.7c0,.7.1.9.3,1,.2,0,.3,0,.5,0s.1,0,.1,0,0,0-.2,0c-.6,0-.9,0-1.1,0s-.5,0-1,0-.2,0-.2,0,0,0,.1,0c.1,0,.3,0,.4,0,.2,0,.3-.3.3-1.1v-5.2c0-.2.1-.3.2-.3s.2.1.3.3c.1.1,1.4,1.5,2.7,2.8.6.6,1.8,1.9,1.9,2h0v-3.9c-.1-.5-.2-.7-.4-.8-.1,0-.3,0-.5,0s-.1,0-.1,0,0,0,.2,0c.4,0,.9,0,1.1,0s.4,0,.9,0,.2,0,.2,0,0,0-.2,0-.2,0-.3,0c-.2,0-.3.3-.3.7v5.5c0,.2-.1.3-.2.3s-.2,0-.3-.2c-.6-.5-1.7-1.7-2.6-2.6-1-.9-1.9-2.1-2.1-2.2h0v3.7c0,0,0,0,0,0ZM1391.1,307.3c0,.2,0,.3-.1.3-.6.3-1.4.4-2.1.4-2.1,0-4.1-1-4.1-3.4s.7-2.4,1.5-2.9c.8-.5,1.6-.6,2.4-.6s1.4.1,1.6.1c.2,0,.5,0,.7,0,.1,0,.1,0,.1.1,0,0,0,.3,0,1.4s0,.2,0,.2,0,0,0-.1c0-.2,0-.5-.3-.7-.3-.3-1-.7-2-.7s-1.1,0-1.7.5c-.5.4-.8,1.1-.8,2.2,0,1.9,1.2,3.3,3.1,3.3s.5,0,.8,0c.1,0,.2-.2.2-.3v-.8c0-.4,0-.8,0-1,0-.3,0-.4-.4-.5,0,0-.2,0-.3,0s-.1,0-.1,0,0,0,.2,0c.4,0,1,0,1.3,0s.7,0,1,0,.2,0,.2,0,0,0-.1,0-.1,0-.2,0c-.2,0-.3.2-.3.5,0,.3,0,.6,0,1.1v1h0Z" fill="#fff"/><path d="M1291.8,188.8h-2.3v1.3h2.3v-1.3ZM1291.8,189.8h-5v.8h5v-.8ZM1294.7,190.1h2.3v-1.3h-2.3v1.3ZM1294.7,190.5h5v-.8h-5v.8ZM1294.7,189.8h-2.9v.8h2.9v-.8ZM1282.6,196.9h-11.1v-.6s11.1,0,11.1,0v.6ZM1275.5,220.8h-2.3v1.3h2.3v-1.3ZM1275.5,221.8h-5v.8h5v-.8ZM1278.4,222.1h2.3v-1.3h-2.3v1.3ZM1278.4,222.5h5v-.8h-5v.8ZM1278.4,221.8h-2.9v.8h2.9v-.8ZM1291.8,220.8h-2.3v1.3h2.3v-1.3ZM1291.8,221.8h-5v.8h5v-.8ZM1294.7,222.1h2.3v-1.3h-2.3v1.3ZM1294.7,222.5h5v-.8h-5v.8ZM1294.7,221.8h-2.9v.8h2.9v-.8ZM1291.8,217.6h-2.3v1.3h2.3v-1.3ZM1291.8,218.6h-5v.8h5v-.8ZM1294.7,218.9h2.3v-1.3h-2.3v1.3ZM1294.7,219.3h5v-.8h-5v.8ZM1294.7,218.6h-2.9v.8h2.9v-.8ZM1291.8,214.4h-2.3v1.3h2.3v-1.3ZM1291.8,215.4h-5v.8h5v-.8ZM1294.7,215.7h2.3v-1.3h-2.3v1.3ZM1294.7,216.1h5v-.8h-5v.8ZM1294.7,215.4h-2.9v.8h2.9v-.8ZM1291.8,211.2h-2.3v1.3h2.3v-1.3ZM1291.8,212.2h-5v.8h5v-.8ZM1294.7,212.5h2.3v-1.3h-2.3v1.3ZM1294.7,212.9h5v-.8h-5v.8ZM1294.7,212.2h-2.9v.8h2.9v-.8ZM1291.8,208h-2.3v1.3h2.3v-1.3ZM1291.8,209h-5v.8h5v-.8ZM1294.7,209.3h2.3v-1.3h-2.3v1.3ZM1294.7,209.7h5v-.8h-5v.8ZM1294.7,209h-2.9v.8h2.9v-.8ZM1291.8,204.8h-2.3v1.3h2.3v-1.3ZM1291.8,205.8h-5v.8h5v-.8ZM1294.7,206.1h2.3v-1.3h-2.3v1.3ZM1294.7,206.5h5v-.8h-5v.8ZM1294.7,205.8h-2.9v.8h2.9v-.8ZM1291.8,201.6h-2.3v1.3h2.3v-1.3ZM1291.8,202.6h-5v.8h5v-.8ZM1294.7,202.9h2.3v-1.3h-2.3v1.3ZM1294.7,203.3h5v-.8h-5v.8ZM1294.7,202.6h-2.9v.8h2.9v-.8ZM1291.8,198.4h-2.3v1.3h2.3v-1.3ZM1291.8,199.4h-5v.8h5v-.8ZM1294.7,199.7h2.3v-1.3h-2.3v1.3ZM1294.7,200.1h5v-.8h-5v.8ZM1294.7,199.4h-2.9v.8h2.9v-.8ZM1291.8,195.2h-2.3v1.3h2.3v-1.3ZM1291.8,196.2h-5v.8h5v-.8ZM1294.7,196.5h2.3v-1.3h-2.3v1.3ZM1294.7,196.9h5v-.8h-5v.8ZM1294.7,196.2h-2.9v.8h2.9v-.8ZM1291.8,192h-2.3v1.3h2.3v-1.3ZM1291.8,193h-5v.8h5v-.8ZM1294.7,193.3h2.3v-1.3h-2.3v1.3ZM1294.7,193.7h5v-.8h-5v.8ZM1294.7,193h-2.9v.8h2.9v-.8ZM1275.5,217.6h-2.3v1.3h2.3v-1.3ZM1275.5,218.6h-5v.8h5v-.8ZM1278.4,218.9h2.3v-1.3h-2.3v1.3ZM1278.4,219.3h5v-.8h-5v.8ZM1278.4,218.6h-2.9v.8h2.9v-.8ZM1275.5,214.4h-2.3v1.3h2.3v-1.3ZM1275.5,215.4h-5v.8h5v-.8ZM1278.4,215.7h2.3v-1.3h-2.3v1.3ZM1278.4,216.1h5v-.8h-5v.8ZM1278.4,215.4h-2.9v.8h2.9v-.8ZM1275.5,211.2h-2.3v1.3h2.3v-1.3ZM1275.5,212.2h-5v.8h5v-.8ZM1278.4,212.5h2.3v-1.3h-2.3v1.3ZM1278.4,212.9h5v-.8h-5v.8ZM1278.4,212.2h-2.9v.8h2.9v-.8ZM1275.5,208h-2.3v1.3h2.3v-1.3ZM1275.5,209h-5v.8h5v-.8ZM1278.4,209.3h2.3v-1.3h-2.3v1.3ZM1278.4,209.7h5v-.8h-5v.8ZM1278.4,209h-2.9v.8h2.9v-.8ZM1275.5,204.8h-2.3v1.3h2.3v-1.3ZM1275.5,205.8h-5v.8h5v-.8ZM1278.4,206.1h2.3v-1.3h-2.3v1.3ZM1278.4,206.5h5v-.8h-5v.8ZM1278.4,205.8h-2.9v.8h2.9v-.8ZM1275.5,201.6h-2.3v1.3h2.3v-1.3ZM1275.5,202.6h-5v.8h5v-.8ZM1278.4,202.9h2.3v-1.3h-2.3v1.3ZM1278.4,203.3h5v-.8h-5v.8ZM1278.4,202.6h-2.9v.8h2.9v-.8ZM1275.5,198.4h-2.3v1.3h2.3v-1.3ZM1275.5,199.4h-5v.8h5v-.8ZM1278.4,199.7h2.3v-1.3h-2.3v1.3ZM1278.4,200.1h5v-.8h-5v.8ZM1278.4,199.4h-2.9v.8h2.9v-.8ZM1298.8,186.7h-11.1v.6h11.1v-.6ZM1314.9,180h-11.1v.6h11.1v-.6ZM1307.8,220.8h-2.3v1.3h2.3v-1.3ZM1307.8,221.8h-5v.8h5v-.8ZM1310.8,222.1h2.3v-1.3h-2.3v1.3ZM1310.8,222.5h5v-.8h-5v.8ZM1310.8,221.8h-2.9v.8h2.9v-.8ZM1307.8,217.6h-2.3v1.3h2.3v-1.3ZM1307.8,218.5h-5v.8h5v-.8ZM1310.8,218.9h2.3v-1.3h-2.3v1.3ZM1310.8,219.3h5v-.8h-5v.8ZM1310.8,218.5h-2.9v.8h2.9v-.8ZM1307.8,214.4h-2.3v1.3h2.3v-1.3ZM1307.8,215.3h-5v.8h5v-.8ZM1310.8,215.6h2.3v-1.3h-2.3v1.3ZM1310.8,216.1h5v-.8h-5v.8ZM1310.8,215.3h-2.9v.8h2.9v-.8ZM1307.8,211.1h-2.3v1.3h2.3v-1.3ZM1307.8,212.1h-5v.8h5v-.8ZM1310.8,212.4h2.3v-1.3h-2.3v1.3ZM1310.8,212.8h5v-.8h-5v.8ZM1310.8,212.1h-2.9v.8h2.9v-.8ZM1307.8,207.9h-2.3v1.3h2.3v-1.3ZM1307.8,208.8h-5v.8h5v-.8ZM1310.8,209.2h2.3v-1.3h-2.3v1.3ZM1310.8,209.6h5v-.8h-5v.8ZM1310.8,208.8h-2.9v.8h2.9v-.8ZM1307.8,204.7h-2.3v1.3h2.3v-1.3ZM1307.8,205.6h-5v.8h5v-.8ZM1310.8,206h2.3v-1.3h-2.3v1.3ZM1310.8,206.4h5v-.8h-5v.8ZM1310.8,205.6h-2.9v.8h2.9v-.8ZM1307.8,201.4h-2.3v1.3h2.3v-1.3ZM1307.8,202.4h-5v.8h5v-.8ZM1310.8,202.7h2.3v-1.3h-2.3v1.3ZM1310.8,203.2h5v-.8h-5v.8ZM1310.8,202.4h-2.9v.8h2.9v-.8ZM1307.8,198.2h-2.3v1.3h2.3v-1.3ZM1307.8,199.2h-5v.8h5v-.8ZM1310.8,199.5h2.3v-1.3h-2.3v1.3ZM1310.8,199.9h5v-.8h-5v.8ZM1310.8,199.2h-2.9v.8h2.9v-.8ZM1307.8,195h-2.3v1.3h2.3v-1.3ZM1307.8,195.9h-5v.8h5v-.8ZM1310.8,196.3h2.3v-1.3h-2.3v1.3ZM1310.8,196.7h5v-.8h-5v.8ZM1310.8,195.9h-2.9v.8h2.9v-.8ZM1307.8,191.8h-2.3v1.3h2.3v-1.3ZM1307.8,192.7h-5v.8h5v-.8ZM1310.8,193h2.3v-1.3h-2.3v1.3ZM1310.8,193.5h5v-.8h-5v.8ZM1310.8,192.7h-2.9v.8h2.9v-.8ZM1307.8,188.5h-2.3v1.3h2.3v-1.3ZM1307.8,189.5h-5v.8h5v-.8ZM1310.8,189.8h2.3v-1.3h-2.3v1.3ZM1310.8,190.3h5v-.8h-5v.8ZM1310.8,189.5h-2.9v.8h2.9v-.8ZM1307.8,185.3h-2.3v1.3h2.3v-1.3ZM1307.8,186.2h-5v.8h5v-.8ZM1310.8,186.6h2.3v-1.3h-2.3v1.3ZM1310.8,187h5v-.8h-5v.8ZM1310.8,186.2h-2.9v.8h2.9v-.8ZM1307.8,182.1h-2.3v1.3h2.3v-1.3ZM1307.8,183h-5v.8h5v-.8ZM1310.8,183.4h2.3v-1.3h-2.3v1.3ZM1310.8,183.8h5v-.8h-5v.8ZM1310.8,183h-2.9v.8h2.9v-.8Z" fill="url(#_未命名漸層)"/></svg>