<svg width="556" height="53" fill="none" xmlns="http://www.w3.org/2000/svg"><g filter="url(#filter0_d_1_564)"><path d="M15.77 3.8448C15.14 6.7698 14.24 9.9198 13.025 12.9798V44.5698H7.13V23.6898C6.095 25.0398 4.97 26.2548 3.755 27.4248L2 25.6248C5.6 19.7748 8.39 9.5598 9.56 2.5398L15.77 3.8448ZM15.365 9.2898V6.3648H24.77V2.9898H30.755V6.3648H41.375V9.2898H30.755V11.1798H39.575V22.7448H36.245C38.36 23.6898 40.52 25.0398 42.41 26.6598L38.99 30.3048C38.135 29.2248 37.28 28.1898 36.38 27.1998C31.07 28.5048 21.665 29.4498 15.005 29.6748L14.24 24.9498C17.66 25.0398 21.26 25.0848 24.77 25.0398V22.7448H15.95V11.1798H24.77V9.2898H15.365ZM25.04 13.8798H21.26V15.6798H25.04V13.8798ZM30.44 13.8798V15.6798H34.265V13.8798H30.44ZM21.26 19.9098H25.04V18.0648H21.26V19.9098ZM30.44 18.0648V19.9098H34.265V18.0648H30.44ZM34.265 24.8598L33.185 23.7348L33.95 22.7448H30.755V24.9498C31.97 24.9498 33.14 24.9048 34.265 24.8598ZM42.59 31.1598V34.0848H36.56V39.8898C36.56 45.4248 30.62 46.3248 24.68 42.8148L25.355 40.4748C29.45 41.1498 30.62 40.8798 30.62 38.6298V34.0848H20.045C22.295 34.9848 24.68 36.4248 26.525 37.9098L23.24 41.9148C21.35 39.6198 19.1 37.1898 17.435 35.4798L18.29 34.0848H14.015V31.1598H30.62V28.4148H36.56V31.1598H42.59ZM71.12 27.5148V30.9348H77.33V33.7698H71.12V38.9898C71.12 44.2998 66.08 46.7298 57.44 42.2748L58.025 39.8448C64.325 40.6998 64.775 40.3848 64.775 37.5948V33.7698H57.8V30.9348H64.775V27.5148H59.915V24.6348H64.775V21.3948H61.265V18.5148H64.775V11.8998L68.105 12.5298C69.77 10.9998 71.39 9.1098 72.335 7.6248H53.345V4.5648H72.11L74.405 3.3948L80.525 7.5798C78.365 9.8748 74.675 12.4848 71.12 14.2398V18.5148H74.585V21.3948H71.12V24.6348H75.53V27.5148H71.12ZM79.175 21.9348C81.335 28.5948 84.665 33.1848 88.58 36.9198L83.225 41.8698C77.6 35.7048 75.215 24.9498 74.945 13.3848L77.24 13.2048C77.51 15.2298 77.87 17.1198 78.32 18.9198C79.85 17.1198 81.56 14.7348 83 12.2148L87.905 16.1298C85.475 18.4698 82.145 20.6298 79.175 21.9348ZM55.685 13.5648L61.67 15.4998C59.645 27.6498 56.765 36.0648 48.89 42.1398L47.135 40.3398C51.815 34.4898 53.93 27.6498 55.01 17.6598H47.945V14.7798H54.38L55.685 13.5648ZM126.065 33.0498H119.855V30.0348H114.95V33.8598H108.74V17.4348H103.835V38.0448H132.095V41.3748H103.835V44.7048H97.4V17.4348H92.495V14.0148H97.4V5.5548H103.835V14.0148H108.74V3.1698H114.95V14.0148H119.855V3.4398H126.065V14.0148H132.635V17.4348H126.065V33.0498ZM114.95 26.9298H119.855V17.4348H114.95V26.9298ZM154.415 4.3398C153.38 7.8498 151.67 11.4048 149.645 14.7348V44.7048H143.525V22.9698C141.95 24.6798 140.375 26.1648 138.845 27.3348L137.18 25.3548C141.815 19.2348 145.595 11.8098 147.89 2.4048L154.415 4.3398ZM176.06 10.2798L171.425 14.5548C169.31 11.3598 166.925 8.2548 164.72 5.4648L166.43 3.5748C169.805 5.2398 172.955 7.2648 176.06 10.2798ZM177.05 30.1248C179.3 40.4298 178.355 45.8748 172.595 44.7048C163.1 42.7248 159.5 31.7448 158.24 20.8998C155.9 21.2148 153.515 21.5748 150.995 21.8898L150.455 18.4248C153.11 18.0648 155.54 17.7048 157.925 17.3898C157.565 13.1148 157.385 8.4348 157.34 3.6198H163.64C163.73 8.0748 163.91 12.5748 164.135 16.4448C168.185 15.8148 172.28 15.1398 177.095 14.2848L177.59 17.7048C172.685 18.6048 168.5 19.3248 164.45 19.9548C165.44 28.3248 168.005 36.3798 172.37 37.4598C173.72 37.7748 174.125 36.5598 174.17 30.1248H177.05ZM208.055 36.6948C213.995 36.7848 218.09 36.2448 223.13 35.0748L221.555 42.6348C216.83 43.3098 213.185 43.3998 207.83 43.0848C196.58 42.4548 193.52 33.2298 191.99 33.2298C190.91 33.2298 189.65 37.4598 188.3 44.4348L181.955 41.5548C185.33 34.0398 188.48 29.1798 191.36 29.1798C192.575 29.1798 193.7 30.3498 195.365 31.7448C201.17 27.6048 207.155 21.5298 210.71 15.2748H184.655V11.7648H200.54C197.84 9.0648 195.455 6.8598 192.89 4.7448L194.375 2.2248C198.11 3.3948 203.24 5.8698 206.66 8.3898L203.69 11.7648H210.845L213.005 10.2798L219.845 14.4648C213.86 23.9148 205.22 30.2598 197.885 33.7248C200.225 35.2548 203.42 36.6498 208.055 36.6948ZM252.92 32.6448C257.24 35.5698 262.37 37.0098 268.4 37.7748L265.7 43.8948C261.11 42.9498 254.765 39.7548 250.85 34.9848V44.8848H244.505V35.7048C240.59 39.6648 233.84 42.6798 228.035 43.6248L227.315 41.3298C233.12 39.2598 237.575 36.6498 240.86 32.6448H228.53V29.7198H244.505V27.4248C243.74 27.7848 242.93 28.0998 242.075 28.3698L240.995 26.3898C242.435 25.4898 243.47 24.6348 244.19 23.6898C239.78 25.4898 233.795 27.1548 229.475 27.7848L228.395 22.6998C230.465 22.6098 232.49 22.5198 234.47 22.3398V17.7498H229.43V15.5898C229.07 15.8148 228.665 15.9948 228.305 16.1748L227 14.1048C230.33 10.9098 232.31 7.0848 233.66 2.3598L240.365 4.1148C239.96 4.9698 239.51 5.7798 239.015 6.5898H248.06V9.1998C249.365 7.1748 250.175 4.9698 250.94 2.3598L257.645 4.1148C257.195 5.0148 256.655 5.8248 256.16 6.6348H267.41V9.6048H260.165C261.11 10.4598 262.055 11.4948 262.91 12.5748L258.68 14.4198H261.965V21.5298C261.965 22.4298 262.325 22.6548 263.225 22.6548C264.485 22.6548 264.575 21.8898 264.485 18.5148H266.915C268.49 24.9498 267.68 27.1098 263.405 27.1098C257.06 27.1098 256.115 26.5248 256.115 21.9348V17.3898H251.345C251.345 17.8398 251.3 18.2448 251.255 18.6048L253.055 17.9748C254.63 20.4048 255.53 22.3398 256.205 24.8148L252.2 25.8048C251.975 23.8248 251.66 21.5298 251.21 19.2348C250.76 22.3398 249.365 24.4548 247.16 25.9848H250.85V29.7198H266.735V32.6448H252.92ZM230.69 14.8698H239.825C239.285 13.0248 238.745 11.2698 238.025 9.5148H236.855C235.1 11.5848 233.03 13.4298 230.69 14.8698ZM245.405 20.8998L245.45 21.0798C245.9 19.4148 245.945 17.3448 245.945 14.4198H246.8L245.405 12.5298C246.395 11.5398 247.205 10.5498 247.88 9.5148H241.58C242.615 10.5498 243.605 11.7198 244.505 13.0248L239.915 14.8698H245.18V17.7498H240.41V21.7098C242.12 21.4398 243.785 21.2148 245.405 20.8998ZM256.43 9.6048H253.82C251.93 11.6748 249.77 13.2948 247.475 14.4198H258.23C257.735 12.8898 257.15 11.2698 256.43 9.6048ZM318.518 24.5898C317.573 22.8798 316.448 20.9448 315.233 18.9648C306.953 20.9898 294.263 22.7898 286.793 23.3298L285.308 16.6698C287.468 16.7148 289.763 16.7148 292.103 16.7148C294.893 12.4848 297.548 7.1298 299.348 2.1798L307.268 4.7898C304.613 8.9748 300.743 13.3398 296.963 16.6698C302.723 16.5798 308.483 16.3548 313.388 15.9948C312.038 13.8798 310.688 11.8548 309.473 10.1448L311.588 8.2098C316.178 11.4498 321.263 16.3548 324.278 20.2248L318.518 24.5898ZM289.493 44.6598V25.3548H319.148V44.6598H312.398V41.5998H296.243V44.6598H289.493ZM296.243 28.5048V38.3598H312.398V28.5048H296.243ZM369.188 11.2698H352.673V15.2748H366.938V39.7098C366.938 44.6148 362.033 46.1898 354.923 42.4548L355.418 39.9798C360.458 40.5648 360.908 40.0248 360.998 37.5498V18.3348H354.473L359.063 20.2248C357.623 22.1598 355.823 24.0498 354.248 25.3548H359.558V28.2798H352.493V31.7448H360.098V34.6698H352.493V43.2648H346.553V34.6698H338.903V31.7448H346.553V28.2798H339.308V25.3548H343.583C342.503 23.2848 341.288 21.2598 340.118 19.5498L341.513 18.3348H338.048V44.5698H332.018V15.2748H346.148V11.2698H329.768V8.0298H346.148V2.9448H352.673V8.0298H369.188V11.2698ZM350.648 25.3548C351.548 23.3298 352.493 20.6298 353.123 18.3348H342.773C345.023 19.7298 347.273 21.8898 348.893 23.9148L346.868 25.3548H350.648ZM396.368 25.6248H412.118V44.4348H405.593V41.4648H391.103V44.5698H384.578V31.1598C380.843 32.4648 377.333 33.3198 374.498 33.7698L373.868 31.0698C387.638 27.1548 398.213 19.3698 403.298 10.9098H392.858C391.643 12.0798 390.383 13.2048 389.078 14.1948C391.148 15.4548 393.308 17.1198 394.793 18.6048L390.203 22.6098C388.763 20.2698 387.413 18.2448 385.973 16.3548C382.778 18.4248 379.448 19.9998 376.298 20.9898L375.173 18.6498C382.868 14.2848 387.863 8.2998 391.418 1.9998L397.853 4.9248C397.178 5.9598 396.458 6.9048 395.693 7.8498H403.748L405.863 6.6348L411.803 10.1898C408.158 16.8948 402.443 21.9348 396.368 25.6248ZM391.103 38.4498H405.593V28.6398H391.103V38.4498ZM426.428 11.4048V17.4798H420.578V8.2998H439.028C436.823 7.0398 434.348 5.7798 432.188 4.6998L432.908 2.2248C436.733 2.5848 441.323 3.6198 444.608 4.9698L442.898 8.2998H458.243V17.4348H452.393V11.4048H426.428ZM448.388 26.3898C451.088 30.8448 454.598 33.9048 459.593 36.5148L455.723 42.1398C451.268 39.2598 447.713 33.8598 445.913 27.3798L444.248 27.9198C445.013 30.1248 445.508 32.4198 445.553 34.8498C445.778 44.1648 440.198 46.9998 431.783 42.1848L432.503 39.6648C438.668 40.6548 439.613 40.0698 439.613 34.0848V34.0398C434.933 37.7298 427.868 40.7898 420.578 42.2298L419.858 39.7098C426.923 37.5048 433.628 33.6798 438.893 28.4598C438.803 28.0098 438.713 27.6048 438.578 27.1998C433.628 30.7098 427.598 32.9148 421.298 34.2648L420.533 31.7898C426.698 29.7198 432.053 26.8848 436.913 22.6098C436.733 22.2498 436.598 21.9348 436.418 21.6648C431.693 24.2298 426.383 25.8948 422.288 26.5698L421.523 24.1398C427.508 22.2048 431.468 19.8648 434.438 17.2548H427.913V14.2398H451.088V17.2548H442.628C441.548 18.2448 440.423 19.1448 439.163 19.9998C440.693 21.5298 441.998 23.3298 443.033 25.2648C446.003 23.2398 448.163 21.3048 450.413 18.5598L454.913 22.5648C452.843 24.0948 450.638 25.3548 448.388 26.3898ZM483.623 16.5348V19.5048H464.498V16.5348H469.088C468.548 14.5548 467.828 12.4398 467.153 10.7748H465.128V7.8948H472.958C471.743 6.5448 470.438 5.2848 469.223 4.1598L470.348 2.2698C472.598 2.9898 475.613 4.3848 477.683 5.8698L475.928 7.8948H483.308V10.7748H479.078L481.688 11.5398C480.878 13.2498 479.933 14.9148 478.538 16.5348H483.623ZM504.233 16.5348V19.4598H484.433V16.5348H488.753C488.213 14.7798 487.403 12.5748 486.728 10.7748H484.973V7.8948H492.623C491.453 6.5898 490.148 5.3298 488.933 4.1598L490.058 2.3148C492.308 3.0348 495.458 4.4298 497.303 5.8698L495.593 7.8948H503.243V10.7748H498.698L501.578 11.5848C500.723 13.2948 499.553 15.0948 498.383 16.5348H504.233ZM470.438 10.7748C471.833 12.3048 473.183 14.2398 473.903 15.7248L472.058 16.5348H475.478C475.973 14.3748 476.333 12.4848 476.558 10.7748H470.438ZM489.923 10.7748C491.363 12.2598 492.713 14.1048 493.478 15.5898L491.498 16.5348H495.278C495.728 14.5548 495.998 12.5298 496.223 10.7748H489.923ZM504.053 33.9948C505.358 40.7898 505.718 43.9398 500.093 43.8948C495.053 43.8048 494.513 42.9048 494.513 38.6748V30.6648H493.028C492.713 37.6848 489.518 42.2298 481.193 44.8398L480.293 42.7248C486.368 39.2148 487.718 36.6048 488.033 30.6648H485.243V20.9448H502.973V30.6648H499.598V37.9548C499.598 38.9898 499.733 39.1698 500.723 39.1698C501.713 39.1698 501.848 38.7648 501.848 33.9948H504.053ZM484.298 35.1648L485.423 37.0998C482.183 40.1148 478.268 42.4998 474.173 44.2548L472.283 39.5298L475.298 38.7198V30.6648H473.678C473.498 36.8748 471.878 41.7798 465.128 45.0648L463.823 43.0398C467.513 40.0248 468.638 36.9648 468.728 30.6648H465.893V20.9898H482.993V30.6648H480.248V37.0098C481.688 36.4698 483.038 35.8398 484.298 35.1648ZM490.328 23.7798V27.8748H497.618V23.7798H490.328ZM471.248 23.8248V27.8748H477.863V23.8248H471.248ZM521.918 8.1198L518.093 12.3048C516.068 9.8298 513.683 7.1748 511.703 5.1948L513.098 3.1248C515.753 4.0698 519.398 6.0048 521.918 8.1198ZM521.738 15.3648C526.193 13.0698 529.208 10.7298 531.458 7.7148H522.458V4.6998H548.468V7.7148H538.388C537.398 8.9748 536.228 10.1448 534.923 11.1798C536.498 12.8448 537.713 14.7798 538.658 16.8048C540.593 14.9598 542.348 12.7548 543.968 9.9648L548.468 13.3398C545.903 16.0848 542.663 18.1548 539.648 19.3698C539.693 19.4148 539.693 19.5048 539.738 19.5948C543.293 21.3498 547.838 24.6798 549.863 27.0648L545.678 31.2498C544.283 29.0448 542.483 26.4798 540.773 24.3198C540.863 25.2198 540.908 26.1198 540.908 26.9748C540.818 33.4998 538.928 36.7848 534.428 36.7848C531.998 36.8298 529.298 35.6148 526.913 33.5898L527.858 31.4298C533.573 33.0948 534.743 32.3298 534.878 25.6698C531.233 28.6848 526.778 30.7098 522.368 31.9248L521.513 29.6298C526.418 27.3798 530.513 24.6348 534.473 19.9098L534.203 18.4698C530.963 21.2148 526.823 23.4198 522.323 24.8148L521.378 22.5198C525.788 20.4048 529.568 17.6148 532.853 13.7898C532.718 13.5198 532.628 13.2948 532.493 13.0698C529.433 15.1848 526.013 16.8048 522.773 17.7048L521.738 15.3648ZM516.608 21.1248C514.718 18.7848 512.018 15.7248 509.858 13.6098L511.253 11.5398C513.908 12.4848 517.913 14.6898 520.478 16.8498L516.608 21.1248ZM530.873 38.3598C536.858 38.4498 543.608 37.8198 549.953 36.9198L548.423 43.4898C543.068 43.8948 535.958 43.9398 530.738 43.6698C525.023 43.3548 520.073 42.1848 517.913 37.1898C516.653 39.6648 514.223 42.9048 511.793 45.1998L508.238 41.1048C510.578 39.3948 512.873 37.3698 514.133 35.7498V25.5798H509.543V22.5648H520.388V34.6698C521.963 37.4148 525.113 38.2698 530.873 38.3598Z" fill="white"/></g><defs><filter id="filter0_d_1_564" x="0" y="0" width="555.953" height="53" filterUnits="userSpaceOnUse" color-interpolation-filters="sRGB"><feFlood flood-opacity="0" result="BackgroundImageFix"/><feColorMatrix in="SourceAlpha" type="matrix" values="0 0 0 0 0 0 0 0 0 0 0 0 0 0 0 0 0 0 127 0" result="hardAlpha"/><feOffset dx="2" dy="2"/><feGaussianBlur stdDeviation="2"/><feComposite in2="hardAlpha" operator="out"/><feColorMatrix type="matrix" values="0 0 0 0 0 0 0 0 0 0 0 0 0 0 0 0 0 0 0.25 0"/><feBlend mode="normal" in2="BackgroundImageFix" result="effect1_dropShadow_1_564"/><feBlend mode="normal" in="SourceGraphic" in2="effect1_dropShadow_1_564" result="shape"/></filter></defs></svg>