<svg width="583" height="45" fill="none" xmlns="http://www.w3.org/2000/svg"><path d="M39.915 28.3501C41.85 37.3501 41.58 43.6051 35.505 42.2551C31.635 41.4001 28.845 38.8801 26.82 35.3701C22.905 38.6101 18.27 40.9951 12.78 42.1651L11.835 39.6001C17.145 37.5751 21.33 34.4701 24.66 30.5551C22.86 25.2001 22.14 18.6751 21.96 12.4651H10.08V17.7751H20.475C20.43 24.2101 20.295 27.8551 19.98 31.2301C19.53 35.4601 14.76 36.9901 9.35999 33.4351L9.94499 31.0501C13.635 31.7251 14.085 31.3651 14.22 29.6101C14.445 27.3151 14.49 24.7951 14.535 20.8351H10.08C10.035 32.6701 7.15499 38.7451 1.88999 42.9301L-1.45063e-05 41.1301C2.69999 36.5851 3.68999 33.3001 3.68999 20.2501V9.22512H21.915C21.87 6.48012 21.825 3.73511 21.825 0.945116H28.08C28.035 3.82512 28.08 6.61512 28.125 9.22512H33.885C32.355 6.70512 30.6 4.09512 29.25 2.25011L31.095 0.405115C33.885 2.02512 36.9 4.32012 39.105 6.70512L35.91 9.22512H40.455V12.4651H28.215C28.35 16.1551 28.755 20.0251 29.385 23.4901C30.87 20.7451 32.04 17.7301 33.03 14.5351L39.015 16.6501C37.395 21.7351 34.92 26.5501 31.5 30.6451C32.58 33.0301 33.975 34.7851 35.685 35.5051C37.08 36.0451 37.26 34.7851 37.26 28.3501H39.915ZM71.01 15.9751C74.475 26.2801 79.83 31.9501 88.11 35.6401L84.15 42.5701C77.49 39.3751 71.37 31.2301 69.03 20.3401C66.105 32.6251 58.545 39.8701 47.925 43.0201L46.845 40.5451C55.44 35.7301 60.975 29.2051 62.865 15.9751H48.33V12.5101H63.225C63.315 11.7901 63.36 11.0701 63.405 10.3051C63.54 7.42512 63.63 4.00512 63.63 0.855114H70.56C70.56 4.68012 70.425 8.28012 70.245 11.6101C70.245 11.9251 70.2 12.1951 70.2 12.5101H86.58V15.9751H71.01ZM113.04 3.10511L118.17 5.31012C116.82 8.95511 115.02 12.1501 112.95 14.9851H117.585V18.0001H110.52C109.35 19.3051 108.135 20.4751 106.875 21.5551H115.875V42.3001H110.205V39.4201H104.49V42.4801H98.82V27.0451C97.38 27.8101 95.94 28.4401 94.5 29.0251L93.42 26.5951C97.605 24.2551 101.295 21.4651 104.445 18.0001H94.5V14.9851H101.565V9.81012H96.345V6.84011H101.565V0.990115H107.775V6.84011H111.555C112.095 5.67012 112.59 4.41012 113.04 3.10511ZM134.19 29.3851C134.595 36.9451 128.79 37.7101 124.065 35.4601V42.5251H118.35V1.66511L123.525 2.97012H126.675L128.205 1.71012L133.92 4.00512C132.12 9.76511 130.14 13.8601 127.755 17.5051C130.815 20.4751 133.965 24.3001 134.19 29.3851ZM124.065 32.3101C127.035 32.7151 128.43 32.2651 128.385 28.3951C128.385 25.9201 127.26 21.0601 125.1 17.4151C126.18 13.3201 126.9 9.49512 127.215 5.98512H124.065V32.3101ZM107.64 9.81012V13.9501C108.54 12.6901 109.35 11.2951 110.16 9.81012H107.64ZM110.205 28.8451V24.5251H104.49V28.8451H110.205ZM110.205 36.4951V31.6801H104.49V36.4951H110.205ZM166.275 13.0051C162.45 8.82012 158.985 5.89512 154.575 2.61012L155.925 0.135115C160.92 1.57512 166.455 4.32012 170.73 7.51512L166.275 13.0051ZM159.12 41.2651C153.675 40.8601 152.28 40.3201 152.28 34.8751V10.2151H158.985V32.2651C158.985 34.2001 159.345 34.7851 161.37 34.9651C163.035 35.1451 164.52 35.1451 166.365 34.9651C169.065 34.6951 169.335 33.9301 169.38 26.7751H172.17C174.555 35.7301 174.735 40.6801 167.58 41.2651C164.7 41.4901 161.505 41.4451 159.12 41.2651ZM176.04 32.5801C174.465 27.0001 172.62 21.5101 170.325 16.3351L172.71 15.0301C176.85 19.4401 180.495 25.4251 182.34 29.7451L176.04 32.5801ZM146.475 35.0101L140.22 31.2751C143.37 27.4951 145.485 22.3651 147.015 15.8401L149.895 16.3351C150.21 22.9051 148.86 30.3301 146.475 35.0101ZM205.56 21.0151C204.345 22.1401 202.905 23.2201 201.375 24.3001V42.5251H195.345V28.0351C193.59 28.9801 191.745 29.8801 189.945 30.6901L187.56 24.5251C190.305 23.8501 192.915 23.1751 195.345 22.4101V14.0851H192.69C191.835 17.0551 190.8 19.8901 189.54 21.9601L187.515 20.9701C188.64 16.3801 189.18 11.2501 189.18 3.24012L194.535 3.82512C194.4 5.85012 193.995 8.46012 193.41 11.1601H195.345V0.675116H201.375V11.1601H205.65V14.0851H201.375V20.2501C202.365 19.8451 203.31 19.4401 204.21 18.9901L205.56 21.0151ZM212.265 15.1651V9.58512H205.02V6.66011H212.265V0.855114H218.61V6.66011H225.945V9.58512H218.61V15.1651H227.745V18.0901H203.22V15.1651H212.265ZM223.335 23.1751H227.925V26.1451H223.335V37.6201C223.335 42.8851 217.215 44.0551 210.24 39.8701L210.87 37.6651C216.36 38.3851 217.08 38.1151 217.08 36.1801V26.1451H203.22V23.1751H217.08V19.2601H223.335V23.1751ZM215.325 32.8501L210.555 36.3601C209.16 33.5701 207.45 30.5101 205.875 28.2151L207.585 26.5051C209.97 27.7651 213.525 30.6901 215.325 32.8501ZM272.16 34.3351L274.365 39.2401C272.07 40.5901 270.09 41.1301 265.725 41.3551C260.235 41.6701 251.685 41.6701 247.095 41.3551C240.21 40.9501 236.61 40.4101 236.61 33.5251V6.07512H234.585V2.88011H272.88V6.07512H243.045V32.4001C243.045 34.8301 243.585 35.7301 246.915 35.9101C251.64 36.1801 260.055 36.1801 265.725 35.9101C268.47 35.7751 270.675 35.2801 272.16 34.3351ZM267.21 8.10011V18.2251H248.4V8.10011H267.21ZM260.955 15.5251V10.8001H254.655V15.5251H260.955ZM245.16 33.5251V20.7901H257.13V33.5251H245.16ZM271.08 20.7901V33.5251H259.02V20.7901H271.08ZM249.795 23.4901V30.8251H252.495V23.4901H249.795ZM266.445 30.8251V23.4901H263.655V30.8251H266.445ZM342.607 22.4101C341.662 20.7001 340.537 18.7651 339.322 16.7851C331.042 18.8101 318.352 20.6101 310.882 21.1501L309.397 14.4901C311.557 14.5351 313.852 14.5351 316.192 14.5351C318.982 10.3051 321.637 4.95012 323.437 0.000114441L331.357 2.61012C328.702 6.79512 324.832 11.1601 321.052 14.4901C326.812 14.4001 332.572 14.1751 337.477 13.8151C336.127 11.7001 334.777 9.67512 333.562 7.96512L335.677 6.03011C340.267 9.27012 345.352 14.1751 348.367 18.0451L342.607 22.4101ZM313.582 42.4801V23.1751H343.237V42.4801H336.487V39.4201H320.332V42.4801H313.582ZM320.332 26.3251V36.1801H336.487V26.3251H320.332ZM395.077 9.09012H378.562V13.0951H392.827V37.5301C392.827 42.4351 387.922 44.0101 380.812 40.2751L381.307 37.8001C386.347 38.3851 386.797 37.8451 386.887 35.3701V16.1551H380.362L384.952 18.0451C383.512 19.9801 381.712 21.8701 380.137 23.1751H385.447V26.1001H378.382V29.5651H385.987V32.4901H378.382V41.0851H372.442V32.4901H364.792V29.5651H372.442V26.1001H365.197V23.1751H369.472C368.392 21.1051 367.177 19.0801 366.007 17.3701L367.402 16.1551H363.937V42.3901H357.907V13.0951H372.037V9.09012H355.657V5.85012H372.037V0.765115H378.562V5.85012H395.077V9.09012ZM376.537 23.1751C377.437 21.1501 378.382 18.4501 379.012 16.1551H368.662C370.912 17.5501 373.162 19.7101 374.782 21.7351L372.757 23.1751H376.537ZM404.302 42.2101V2.47511H420.772V19.2601H410.467V42.2101H404.302ZM426.442 39.9151L427.072 37.3501C433.102 38.3401 433.777 37.8001 433.777 35.0101V19.2601H423.562V2.47511H439.942V36.5851C439.942 43.4251 434.092 44.1451 426.442 39.9151ZM410.467 9.27012H414.877V5.44512H410.467V9.27012ZM429.457 9.27012H433.777V5.44512H429.457V9.27012ZM410.467 16.2451H414.877V12.1951H410.467V16.2451ZM429.457 16.2451H433.777V12.1951H429.457V16.2451ZM461.137 11.9701H486.292V27.9451H479.767V24.8851H460.732C459.562 34.2451 455.917 38.7901 451.192 42.7051L449.437 41.0401C452.452 36.3151 454.297 31.9051 454.297 18.1801V4.41012L460.777 6.07512C468.247 5.08512 474.997 3.28512 479.227 0.810115L485.887 6.57012C480.262 8.01012 469.777 8.77512 461.137 8.68512V11.9701ZM461.002 21.7351H479.767V15.1201H461.137V17.6851C461.137 19.1251 461.092 20.4751 461.002 21.7351ZM514.102 8.46012V11.6101H495.697V8.46012H503.752C502.177 6.12012 500.467 3.78012 499.162 2.07011L500.737 0.315116C503.392 1.57512 506.587 3.82512 508.882 6.07512L506.227 8.46012H514.102ZM528.007 14.8501H535.477V18.0451H528.007V42.3451H521.482V18.0451H514.057V14.8501H521.482V0.990115H528.007V14.8501ZM497.272 17.9551V14.8951H512.662V17.9551H497.272ZM497.272 24.1201V21.0601H512.662V24.1201H497.272ZM497.272 42.3901V27.2701H512.617V42.1651H506.992V39.3751H502.987V42.3901H497.272ZM502.987 30.2401V36.3601H506.992V30.2401H502.987ZM543.802 23.9851V21.1051H559.192V19.4401H546.367V16.6951H559.192V14.9401H547.762V12.1501H559.192V10.5751H542.812V7.65012H559.192V6.16512H548.032V3.37512H559.192V0.720116H565.447V3.37512H577.912V7.65012H582.322V10.5751H577.912V14.9401H565.447V16.6951H578.677V19.4401H565.447V21.1051H581.647V23.9851H543.802ZM565.447 7.65012H572.107V6.16512H565.447V7.65012ZM565.447 12.1501H572.107V10.5751H565.447V12.1501ZM547.627 36.9001V25.3351H577.462V36.9001H547.627ZM553.432 29.7451H559.552V28.1701H553.432V29.7451ZM565.357 29.7451H571.567V28.1701H565.357V29.7451ZM553.432 34.0651H559.552V32.3551H553.432V34.0651ZM565.357 34.0651H571.567V32.3551H565.357V34.0651ZM542.497 41.3101V38.3401H582.322V41.3101H542.497Z" fill="#0A4D92"/></svg>