<svg width="415" height="45" fill="none" xmlns="http://www.w3.org/2000/svg"><path d="M39.915 28.395C41.85 37.395 41.58 43.65 35.505 42.3C31.635 41.445 28.845 38.925 26.82 35.415C22.905 38.655 18.27 41.04 12.78 42.21L11.835 39.645C17.145 37.62 21.33 34.515 24.66 30.6C22.86 25.245 22.14 18.72 21.96 12.51H10.08V17.82H20.475C20.43 24.255 20.295 27.9 19.98 31.275C19.53 35.505 14.76 37.035 9.35999 33.48L9.94499 31.095C13.635 31.77 14.085 31.41 14.22 29.655C14.445 27.36 14.49 24.84 14.535 20.88H10.08C10.035 32.715 7.15499 38.79 1.88999 42.975L-1.45063e-05 41.175C2.69999 36.63 3.68999 33.345 3.68999 20.295V9.27004H21.915C21.87 6.52504 21.825 3.78004 21.825 0.990038H28.08C28.035 3.87004 28.08 6.66004 28.125 9.27004H33.885C32.355 6.75004 30.6 4.14004 29.25 2.29504L31.095 0.450036C33.885 2.07004 36.9 4.36504 39.105 6.75004L35.91 9.27004H40.455V12.51H28.215C28.35 16.2 28.755 20.07 29.385 23.535C30.87 20.79 32.04 17.775 33.03 14.58L39.015 16.695C37.395 21.78 34.92 26.595 31.5 30.69C32.58 33.075 33.975 34.83 35.685 35.55C37.08 36.09 37.26 34.83 37.26 28.395H39.915ZM75.06 16.02C78.525 26.325 83.88 31.995 92.16 35.685L88.2 42.615C81.54 39.42 75.42 31.275 73.08 20.385C70.155 32.67 62.595 39.915 51.975 43.065L50.895 40.59C59.49 35.775 65.025 29.25 66.915 16.02H52.38V12.555H67.275C67.365 11.835 67.41 11.115 67.455 10.35C67.59 7.47004 67.68 4.05004 67.68 0.900036H74.61C74.61 4.72504 74.475 8.32504 74.295 11.655C74.295 11.97 74.25 12.24 74.25 12.555H90.63V16.02H75.06ZM142.02 11.745H125.505C124.605 13.23 123.57 14.76 122.31 16.245H137.16V42.48H130.545V39.645H114.525V42.615H107.91V16.245H118.35C118.485 14.625 118.53 13.14 118.575 11.745H102.645V8.46004H114.3C112.815 6.12004 111.375 4.09504 109.71 2.07004L111.465 0.0900384C114.66 1.53004 118.125 3.87004 120.51 6.03004L117.675 8.46004H124.875C125.955 6.30004 127.17 3.24004 128.205 3.68953e-05L134.955 2.88004C132.885 5.35504 131.04 7.11004 129.195 8.46004H142.02V11.745ZM130.545 22.95V19.35H114.525V22.95H130.545ZM130.545 29.7V25.92H114.525V29.7H130.545ZM130.545 36.585V32.715H114.525V36.585H130.545ZM172.62 8.59504V0.900036H178.515V17.325C178.515 31.23 175.995 38.79 166.635 42.975L165.195 40.77C168.66 37.8 170.73 35.055 171.81 29.295C170.055 30.465 168.21 31.41 166.23 32.22L164.385 27.045C166.995 26.595 169.695 25.875 172.35 25.155C172.44 23.67 172.53 22.05 172.575 20.25H167.58V17.235H172.62V16.875V11.655H167.625V8.59504H172.62ZM186.66 27.405H193.5V30.465H186.66V42.21H180.765V0.945038H186.66V8.68504H192.96V11.745H186.66V17.55H192.465V20.565H186.66V27.405ZM167.94 21.825C166.725 22.905 165.24 23.985 163.71 25.02V37.26C163.71 42.75 158.58 44.235 152.595 40.545L153.225 37.98C157.005 38.61 157.815 38.07 157.815 36.225V28.35C156.825 28.845 155.835 29.295 154.89 29.655L152.685 23.805C154.35 23.445 156.105 23.04 157.815 22.545V13.455H153.36V10.44H157.815V1.03504H163.71V10.44H166.995V13.455H163.71V20.79C164.745 20.475 165.78 20.07 166.77 19.71L167.94 21.825ZM254.103 36.585H261.888V39.555H243.933V42.39H237.948V21.645C237.408 22.455 236.823 23.22 236.238 23.895L235.518 23.22V36H230.568V33.165H228.273V37.215H223.008V4.77004H235.518V19.08C237.543 13.77 239.118 6.70504 239.928 0.540038L245.958 1.84504C245.553 4.18504 244.788 6.88504 243.798 9.67504H250.143C249.153 7.11004 247.803 4.14004 246.768 2.11504L248.838 0.585037C251.313 2.43004 253.878 5.44504 255.453 7.83004L252.258 9.67504H261.483V12.6H254.103V17.955H260.088V20.835H254.103V26.865H260.088V29.745H254.103V36.585ZM228.273 30.24H230.568V7.69504H228.273V30.24ZM248.253 17.955V12.6H243.933V17.955H248.253ZM248.253 26.865V20.835H243.933V26.865H248.253ZM248.253 36.585V29.745H243.933V36.585H248.253ZM311.073 28.845C313.233 37.89 312.603 43.605 306.438 42.3C302.928 41.535 300.408 39.195 298.563 36C295.863 38.07 292.803 39.69 289.293 40.77L288.078 38.205C291.498 36.27 294.333 34.155 296.673 31.68C295.008 26.82 294.378 21.06 294.153 16.065H287.493V21.735C289.338 21.105 291.138 20.43 292.803 19.755L293.928 22.095C292.083 23.535 289.878 24.975 287.493 26.325V36.81C287.493 42.975 281.373 44.01 273.723 39.87L274.308 37.395C280.968 38.295 281.508 37.935 281.508 35.325V29.25C279.033 30.33 276.513 31.23 274.128 31.86L272.148 25.965C275.253 25.29 278.448 24.525 281.508 23.625V16.065H272.913V12.87H281.508V8.73004C278.943 9.13504 276.378 9.40504 273.948 9.49504L273.543 6.79504C280.068 5.44504 285.738 3.28504 290.148 0.720038L293.928 5.31004V1.17004H299.913C299.868 6.25504 299.913 9.31504 300.003 12.87H311.973V16.065H300.138C300.273 19.35 300.543 22.77 301.128 25.83C302.568 23.445 303.783 20.79 304.908 17.82L310.398 20.115C308.553 24.48 306.078 28.575 302.928 32.04C303.783 33.885 304.908 35.28 306.348 36C307.968 36.765 308.373 35.865 308.418 28.845H311.073ZM311.028 8.73004L306.123 12.195C304.593 9.18004 302.478 5.67004 300.768 2.97004L302.883 1.26004C305.898 3.15004 309.093 6.16504 311.028 8.73004ZM287.493 7.56004V12.87H294.018C293.973 10.35 293.928 8.32504 293.928 5.49004C292.173 6.30004 289.968 6.97504 287.493 7.56004ZM362.463 15.75C362.553 24.84 362.328 31.275 361.923 37.665C361.518 43.38 356.478 43.965 349.998 40.41L350.583 38.025C355.443 38.79 356.253 38.61 356.478 36.495L353.508 38.115C353.238 37.35 352.968 36.585 352.653 35.865C348.648 37.395 342.708 38.88 338.163 39.555L337.128 34.56C339.468 34.515 341.898 34.38 344.193 34.245V31.095H338.253V23.985C337.893 24.21 337.533 24.435 337.173 24.615L336.318 23.4C336.408 24.75 336.453 26.145 336.453 27.54C336.498 36.675 335.418 42.48 330.018 42.48C327.678 42.48 325.293 41.175 323.268 38.385L324.573 36.18C326.148 37.17 327.588 37.665 328.803 37.575C330.513 37.485 330.918 33.885 330.873 26.325V25.83C329.073 28.035 326.868 30.15 324.393 31.815L322.863 29.745C325.563 26.775 328.083 23.22 330.288 17.685C330.063 16.335 329.793 15.075 329.433 13.86C327.903 15.39 326.238 16.785 324.438 17.82L322.953 15.75C324.753 14.04 326.373 11.925 327.768 9.54004C326.778 7.47004 325.518 5.35504 323.943 3.06004L325.653 1.39504C327.228 2.79004 328.578 4.23004 329.748 5.67004C330.513 4.05004 331.188 2.34004 331.773 0.540038L336.858 2.47504C335.913 4.72504 334.518 7.42504 332.628 9.99004C334.788 13.905 335.778 18 336.228 22.185C338.613 19.665 340.323 16.875 341.538 13.59H337.398V2.70004H361.743V13.59H347.433C347.073 14.31 346.668 15.03 346.218 15.75H362.463ZM342.753 5.62504V10.665H344.688V5.62504H342.753ZM348.558 5.62504V10.665H350.448V5.62504H348.558ZM354.363 5.62504V10.665H356.298V5.62504H354.363ZM344.103 18.675C342.888 20.16 341.538 21.555 340.098 22.68H344.193V19.8H349.818V22.68H355.668V31.095H352.968C354.273 32.355 355.443 33.795 356.523 35.37C356.838 30.735 356.973 25.695 356.973 18.675H344.103ZM342.798 28.35H344.598V25.38H342.798V28.35ZM351.213 25.38H349.368V28.35H351.213V25.38ZM349.818 33.795C350.493 33.705 351.123 33.66 351.708 33.57C351.528 33.12 351.303 32.67 351.078 32.22L352.743 31.095H349.818V33.795ZM397.338 20.34H390.948V15.255C388.698 17.685 385.728 19.665 382.353 21.285H403.773C403.368 23.13 402.828 25.155 402.243 27.18H411.558C411.063 31.905 410.613 35.145 409.893 38.025C408.723 43.02 403.638 44.1 394.683 39.06L395.448 36.675C403.323 38.25 403.728 37.98 404.223 35.91C404.538 34.425 404.943 32.22 405.168 30.15H401.343L400.353 32.985L394.638 31.77C395.583 29.385 396.348 26.82 396.933 24.39H392.253C390.858 34.155 385.233 40.32 375.288 42.615L374.343 40.32C381.633 36.63 384.738 32.985 385.818 24.39H380.238V22.23C378.483 22.905 376.638 23.535 374.748 24.075L373.893 21.6C379.338 19.26 383.343 16.56 386.718 12.555H375.018V9.40504H390.948V7.38004C386.628 7.56004 382.263 7.51504 378.438 7.38004L378.168 4.86004C389.238 4.36504 398.283 2.74504 404.988 0.315038L410.118 5.08504C406.563 6.03004 402.063 6.66004 397.338 7.06504V9.40504H413.268V12.555H399.723C403.953 15.255 408.543 16.695 414.798 17.82L412.323 23.76C407.508 22.68 401.298 19.575 397.338 14.715V20.34Z" fill="white"/></svg>