<svg width="1432" height="140" fill="none" xmlns="http://www.w3.org/2000/svg"><g opacity="0.25" clip-path="url(#clip0_39_1084)"><path d="M0 70.0824C0 60.0588 1.98418 50.8042 5.95254 42.2636C9.92091 33.7505 14.9916 26.3633 21.2197 20.102C27.4478 13.8407 34.4476 8.92507 42.2465 5.35504C50.0455 1.78501 57.8444 0 65.6433 0C73.9383 0 82.0128 1.78501 89.8669 5.35504C97.7209 8.92507 104.721 13.8407 110.894 20.102C117.039 26.3633 122 33.7505 125.692 42.2636C129.385 50.7768 131.259 60.0588 131.259 70.0824C131.259 78.8427 129.55 87.4382 126.161 95.8415C122.771 104.245 118.114 111.687 112.216 118.195C106.319 124.704 99.3468 129.976 91.3826 133.986C83.3907 137.995 74.8202 140 65.6433 140C56.4665 140 47.4826 138.05 39.4356 134.178C31.3886 130.306 24.444 125.143 18.6017 118.662C12.7594 112.209 8.18475 104.767 4.93289 96.3084C1.65348 87.8501 0.0275581 79.1173 0.0275581 70.0824H0ZM21.6882 70.0824C21.6882 81.3692 22.4323 91.2005 23.948 99.5763C25.4637 107.98 27.9714 114.982 31.4989 120.612C35.0263 126.242 39.5458 130.443 45.085 133.189C50.6242 135.936 57.4586 137.309 65.6433 137.309C73.8281 137.309 80.4971 135.936 86.0914 133.189C91.6857 130.443 96.2328 126.242 99.7602 120.612C103.288 114.982 105.795 107.952 107.311 99.5763C108.827 91.173 109.571 81.3417 109.571 70.0824C109.571 61.4319 108.992 53.0836 107.862 45.0098C106.732 36.9361 104.555 29.7136 101.359 23.3974C98.1618 17.0812 93.6974 12.0282 87.9654 8.26599C82.2333 4.50373 74.7926 2.63633 65.6158 2.63633C56.4389 2.63633 48.9982 4.50373 43.2662 8.26599C37.5341 12.0282 33.0697 17.0812 29.8729 23.3974C26.6762 29.7136 24.4991 36.9361 23.3692 45.0098C22.2394 53.0836 21.6606 61.4594 21.6606 70.0824H21.6882Z" fill="#EEE2CF"/><path d="M144.239 134.535H165.183V6.01414H144.239V3.37781H184.584L248.326 105.783H248.712V6.01414H227.767V3.37781H272.467V6.01414H251.522V139.808H247.747L168.38 13.7309H167.994V134.563H188.938V137.199H144.239V134.563V134.535Z" fill="#EEE2CF"/><path d="M278.336 134.535H299.281V6.01414H278.336V3.37781H386.199V35.8925H384.132C382.506 31.0043 380.742 26.7203 378.841 23.013C376.939 19.3056 374.707 16.175 372.061 13.621C369.416 11.0671 366.274 9.14477 362.637 7.88153C358.999 6.61829 354.59 6.01414 349.436 6.01414H318.13V64.0683H330.394C334.555 64.0683 338.055 63.6838 340.948 62.9423C343.842 62.2009 346.322 60.7729 348.389 58.7132C350.456 56.6536 352.22 53.825 353.68 50.255C355.113 46.685 356.546 42.0714 357.924 36.4418H359.991V94.8803H357.924C357.042 91.2554 356.133 87.7403 355.196 84.3625C354.259 80.9847 352.936 77.9639 351.228 75.355C349.519 72.7462 347.259 70.6316 344.448 69.0663C341.61 67.501 337.945 66.7046 333.425 66.7046H318.158V134.535H353.79C360.708 134.535 366.467 133.052 371.042 130.114C375.644 127.175 379.364 123.66 382.258 119.596C385.152 115.532 387.274 111.302 388.679 106.909C390.057 102.515 390.939 98.8898 391.325 96.0063H393.391V137.171H278.364V134.535H278.336Z" fill="#EEE2CF"/><path d="M439.744 134.535H456.334L507.261 0H511.781L563.066 134.535H579.849V137.171H521.757V134.535H542.701L522.914 82.3029H479.152L459.365 134.535H480.31V137.171H439.772V134.535H439.744ZM501.033 24.9902L480.282 79.6665H521.757L501.006 24.9902H501.033Z" fill="#EEE2CF"/><path d="M579.849 134.535H600.793V6.01414H579.849V3.37781H620.194L683.936 105.783H684.322V6.01414H663.378V3.37781H708.077V6.01414H687.133V139.808H683.357L603.963 13.7034H603.577V134.535H624.521V137.171H579.822V134.535H579.849Z" fill="#EEE2CF"/><path d="M713.919 134.535H734.864V6.01418H713.919V3.37785H749.001C750.765 3.37785 752.528 3.37785 754.292 3.29547C756.056 3.24054 757.819 3.1307 759.583 3.02085C761.347 3.02085 763.111 2.99339 764.874 2.93846C766.638 2.88354 768.402 2.85608 770.165 2.85608C773.941 2.85608 777.303 2.911 780.252 3.04831C783.2 3.18562 785.984 3.40531 788.547 3.70739C791.11 4.00947 793.562 4.44886 795.905 5.02556C798.22 5.60225 800.727 6.31626 803.345 7.19504C811.006 9.69405 817.648 13.0444 823.242 17.246C828.837 21.4477 833.439 26.3084 837.021 31.8008C840.604 37.3206 843.249 43.3347 844.93 49.8431C846.639 56.3516 847.466 63.1895 847.466 70.3296C847.466 78.5956 846.446 86.0103 844.462 92.6011C842.45 99.1919 839.694 105.014 836.167 110.067C832.64 115.147 828.533 119.541 823.821 123.221C819.109 126.928 814.038 129.894 808.636 132.146C805.633 133.519 802.767 134.59 800.066 135.332C797.365 136.073 794.609 136.65 791.771 137.034C788.932 137.419 785.818 137.666 782.429 137.776C779.039 137.885 775.126 137.968 770.744 137.968C768.87 137.968 766.858 137.94 764.709 137.885C762.559 137.831 760.437 137.721 758.288 137.611C756.138 137.474 754.044 137.391 751.977 137.336C749.91 137.281 747.926 137.254 746.025 137.254H713.974V134.618L713.919 134.535ZM753.713 134.535C755.863 134.782 758.343 134.975 761.154 135.112C763.992 135.249 767.106 135.304 770.496 135.304C774.768 135.304 779.012 135.084 783.228 134.645C787.444 134.206 791.468 133.272 795.298 131.816C799.129 130.388 802.711 128.301 806.046 125.61C809.381 122.919 812.357 119.376 815.002 114.982C819.026 108.227 821.809 101.306 823.38 94.2213C824.951 87.1362 825.75 79.4194 825.75 71.0161C825.75 61.1299 824.813 52.1225 822.912 44.0487C821.038 35.975 817.924 29.0821 813.569 23.37C809.243 17.658 803.483 13.2641 796.318 10.1334C789.153 7.0028 780.279 5.43748 769.724 5.43748C766.583 5.43748 763.717 5.49241 761.154 5.62972C758.563 5.76702 756.083 5.87687 753.713 6.01418V134.535Z" fill="#EEE2CF"/><path d="M919.668 70.0824C919.668 60.0588 921.652 50.8042 925.621 42.2636C929.589 33.7505 934.66 26.3633 940.888 20.102C947.116 13.8407 954.116 8.92507 961.914 5.35504C969.713 1.78501 977.512 0 985.311 0C993.606 0 1001.68 1.78501 1009.53 5.35504C1017.39 8.92507 1024.39 13.8407 1030.56 20.102C1036.71 26.3633 1041.67 33.7505 1045.36 42.2636C1049.05 50.7768 1050.93 60.0588 1050.93 70.0824C1050.93 78.8427 1049.22 87.4382 1045.83 95.8415C1042.44 104.245 1037.78 111.687 1031.88 118.195C1025.99 124.704 1019.01 129.976 1011.05 133.986C1003.06 137.995 994.488 140 985.311 140C976.134 140 967.151 138.05 959.104 134.178C951.057 130.306 944.112 125.143 938.27 118.662C932.427 112.209 927.853 104.767 924.601 96.3084C921.321 87.8501 919.696 79.1173 919.696 70.0824H919.668ZM941.329 70.0824C941.329 81.3692 942.073 91.2005 943.588 99.5763C945.104 107.98 947.612 114.982 951.139 120.612C954.667 126.242 959.186 130.443 964.725 133.189C970.265 135.936 977.099 137.309 985.284 137.309C993.468 137.309 1000.14 135.936 1005.73 133.189C1011.33 130.443 1015.87 126.242 1019.4 120.612C1022.93 114.982 1025.44 107.952 1026.95 99.5763C1028.47 91.173 1029.21 81.3417 1029.21 70.0824C1029.21 61.4319 1028.63 53.0836 1027.5 45.0098C1026.37 36.9361 1024.2 29.7136 1021 23.3974C1017.8 17.0812 1013.34 12.0282 1007.61 8.26599C1001.87 4.50373 994.433 2.63633 985.256 2.63633C976.079 2.63633 968.639 4.50373 962.907 8.26599C957.175 12.0282 952.71 17.0812 949.513 23.3974C946.317 29.7136 944.14 36.9361 943.01 45.0098C941.88 53.0836 941.301 61.4594 941.301 70.0824H941.329Z" fill="#EEE2CF"/><path d="M1063.91 134.535H1084.85V6.01414H1063.91V3.37781H1104.25L1167.99 105.783H1168.38V6.01414H1147.44V3.37781H1192.13V6.01414H1171.19V139.808H1167.41L1088.02 13.7034H1087.63V134.535H1108.58V137.171H1063.88V134.535H1063.91Z" fill="#EEE2CF"/><path d="M1197.98 134.535H1218.92V6.01414H1197.98V3.37781H1258.69V6.01414H1237.77V134.535H1271.34C1282.39 134.535 1291.07 131.102 1297.35 124.21C1303.63 117.317 1308.24 107.925 1311.13 96.0338H1313.2V137.199H1197.98V134.563V134.535Z" fill="#EEE2CF"/><path d="M1337.15 134.535H1358.09V80.6003L1315.65 5.98667H1298.48V3.35034H1356.19V5.98667H1337.34L1375.06 72.142L1410.7 5.98667H1391.65V3.35034H1432V5.98667H1413.7L1376.94 74.5861V134.535H1397.88V137.171H1337.17V134.535H1337.15Z" fill="#EEE2CF"/></g><defs><clipPath id="clip0_39_1084"><rect width="1432" height="140" fill="white"/></clipPath></defs></svg>