<svg width="509" height="45" fill="none" xmlns="http://www.w3.org/2000/svg"><path d="M33.21 22.4101C32.265 20.7001 31.14 18.7651 29.925 16.7851C21.645 18.8101 8.95499 20.6101 1.48499 21.1501L-1.32024e-05 14.4901C2.15999 14.5351 4.45499 14.5351 6.79499 14.5351C9.58499 10.3051 12.24 4.95012 14.04 0.000114441L21.96 2.61012C19.305 6.79512 15.435 11.1601 11.655 14.4901C17.415 14.4001 23.175 14.1751 28.08 13.8151C26.73 11.7001 25.38 9.67512 24.165 7.96512L26.28 6.03011C30.87 9.27012 35.955 14.1751 38.97 18.0451L33.21 22.4101ZM4.18499 42.4801V23.1751H33.84V42.4801H27.09V39.4201H10.935V42.4801H4.18499ZM10.935 26.3251V36.1801H27.09V26.3251H10.935ZM85.68 9.09012H69.165V13.0951H83.43V37.5301C83.43 42.4351 78.525 44.0101 71.415 40.2751L71.91 37.8001C76.95 38.3851 77.4 37.8451 77.49 35.3701V16.1551H70.965L75.555 18.0451C74.115 19.9801 72.315 21.8701 70.74 23.1751H76.05V26.1001H68.985V29.5651H76.59V32.4901H68.985V41.0851H63.045V32.4901H55.395V29.5651H63.045V26.1001H55.8V23.1751H60.075C58.995 21.1051 57.78 19.0801 56.61 17.3701L58.005 16.1551H54.54V42.3901H48.51V13.0951H62.64V9.09012H46.26V5.85012H62.64V0.765115H69.165V5.85012H85.68V9.09012ZM67.14 23.1751C68.04 21.1501 68.985 18.4501 69.615 16.1551H59.265C61.515 17.5501 63.765 19.7101 65.385 21.7351L63.36 23.1751H67.14ZM126.495 2.61012V14.9401H98.91V2.61012H126.495ZM120.42 5.40011H104.985V7.38012H120.42V5.40011ZM104.985 12.1501H120.42V10.1251H104.985V12.1501ZM132.975 36.6301L130.005 42.3901C127.26 41.4001 124.74 39.9151 122.625 37.9801C120.15 40.0951 117.225 41.6701 113.85 42.4351L113.04 40.4101V42.3451H107.01V36.2251C103.14 37.9801 98.865 39.4201 94.59 40.3651L93.24 34.6051C94.23 34.5601 95.265 34.4701 96.3 34.3801V19.9351H93.015V16.8751H132.39V19.9351H113.04V40.1401C115.875 38.6551 118.125 36.8101 119.835 34.8301C117.855 32.0851 116.505 28.7551 115.83 24.8401H113.805V22.0501H124.155L125.37 21.0601L130.95 23.1751C130.095 27.1351 128.52 30.8701 126.27 33.9751C128.25 35.0551 130.5 35.9101 132.975 36.6301ZM107.01 19.9351H102.195V22.5451H107.01V19.9351ZM118.215 24.8401C119.25 27.4051 120.645 29.4751 122.355 31.0951C123.435 29.0701 124.11 26.9551 124.56 24.8401H118.215ZM102.195 25.2901V28.0351H107.01V25.2901H102.195ZM102.195 33.7501C103.905 33.5701 105.57 33.3451 107.01 33.1201V30.7351H102.195V33.7501ZM180.315 40.2301L175.23 42.7501C174.825 41.4451 174.24 39.8701 173.655 38.2951C168.705 40.1851 161.235 41.8951 154.98 42.4801L153.81 36.5401C156.735 36.5401 160.02 36.3601 163.215 36.1351V30.2401H155.205V18.8101H163.215V14.4451C160.65 14.8951 158.04 15.2551 155.745 15.4801L154.62 10.0801C155.52 10.1251 156.42 10.1251 157.365 10.1251C159.075 7.47011 160.875 3.82512 162.135 0.405115L168.165 2.65512C166.365 5.26512 164.025 7.92011 161.505 10.1251C164.925 10.0801 168.3 9.90012 171.36 9.63012C170.595 8.41512 169.83 7.24512 169.11 6.16512L171 4.50012C174.015 6.52512 177.75 10.2601 179.595 12.8701L174.96 16.1551C174.33 14.8951 173.61 13.5451 172.845 12.1951C170.595 12.9601 167.58 13.6351 164.475 14.2201H169.155V18.8101H177.255V30.2401H169.155V35.5951L172.44 35.1901C171.99 34.1551 171.54 33.1651 171.135 32.2651L173.385 30.9151C176.085 33.3901 179.055 37.5751 180.315 40.2301ZM145.485 20.8801H154.395C154.035 26.8201 153.495 33.7051 152.91 37.3951C151.83 43.7851 146.16 43.9201 139.77 40.1401L140.49 37.6651C145.935 38.8801 147.195 38.6551 147.6 36.0901C148.05 33.0751 148.59 27.2251 148.77 23.8501H144.99C144.81 24.9301 144.585 25.9651 144.405 26.9101L139.32 26.2351C140.265 21.6451 140.895 16.6951 141.435 11.4301L146.385 12.4651H148.68V5.53512H139.545V2.56512H154.035V15.3901H146.295C146.07 17.1451 145.8 19.0351 145.485 20.8801ZM160.425 27.3151H163.485V21.7801H160.425V27.3151ZM169.02 21.7801V27.3151H172.035V21.7801H169.02ZM227.52 36.8101L225.27 42.5251C221.265 41.8051 217.665 40.2751 214.605 38.1151C210.69 40.3651 205.92 41.8051 200.115 42.4801L199.485 40.1401C204.48 38.8351 208.305 37.3051 211.275 35.3251C209.97 34.0201 208.8 32.5351 207.9 30.9601C205.965 32.7601 203.715 34.3801 201.15 35.6851L199.845 33.7501C203.76 30.4651 206.235 27.0901 207.765 22.9951H204.705V14.8951C204.075 15.6151 203.4 16.2451 202.725 16.8301L200.97 15.3901C203.49 10.8901 205.02 6.03011 206.01 0.360115L212.265 1.62012C211.905 2.79012 211.455 3.96011 210.96 5.08512H225.81V7.96512H209.565C209.115 8.77512 208.665 9.54011 208.215 10.3051H224.01V22.9951H213.795C213.435 23.7601 213.03 24.4801 212.625 25.2001H218.295L219.645 24.3451L224.73 27.0451C223.29 30.1051 221.4 32.7601 219.015 34.9201C221.67 35.8651 224.505 36.4051 227.52 36.8101ZM199.89 30.0601C199.125 28.7101 198.27 27.1801 197.37 25.7401V42.4801H191.475V26.4601C190.035 27.7201 188.46 28.8901 186.84 29.8801L185.4 27.8101C190.755 23.0851 194.175 17.4601 195.975 12.7351H186.75V9.72012H193.365C192.195 7.02012 190.755 4.41012 189.45 2.16012L191.205 0.495116C193.5 2.07011 196.2 4.54511 198.135 6.93012L194.04 9.72012H195.84L197.145 8.68512L202.23 11.0701C200.88 14.2651 199.26 17.1901 197.37 19.8451V21.3301H197.415C198.54 19.9351 199.575 18.4951 200.475 16.8301L203.895 19.4401C202.725 20.7001 201.195 22.0501 199.71 23.1301C201.24 24.4351 202.635 25.8301 203.625 27.0451L199.89 30.0601ZM210.195 13.0951V15.3001H218.475V13.0951H210.195ZM210.195 17.9101V20.1601H218.475V17.9101H210.195ZM209.88 28.9351C211.23 30.5101 212.76 31.7701 214.425 32.8051C215.865 31.3651 216.99 29.7901 217.935 27.9901H210.69L209.88 28.9351ZM255.69 4.50012C261.225 10.7551 266.985 13.9501 273.915 16.2001L270.72 22.7701C268.02 21.6901 265.275 19.9801 262.755 17.9101V20.2051H243.225V18.2251C240.255 20.2501 237.015 21.9151 233.55 23.2201L232.335 20.7001C241.155 15.2551 246.24 8.46012 249.84 0.180115L256.68 2.43012C256.365 3.15012 256.05 3.82512 255.69 4.50012ZM244.89 17.0101H261.72C258.57 14.2651 255.825 10.9801 253.89 7.56012C251.55 11.1151 248.445 14.3101 244.89 17.0101ZM238.995 42.4351V24.9751H267.075V42.3901H260.64V39.5551H245.43V42.4351H238.995ZM245.43 28.0801V36.4051H260.64V28.0801H245.43ZM319.005 28.8451C321.435 38.4301 319.815 43.4701 314.55 42.0751C304.965 39.7351 302.58 26.7301 302.13 13.8151H280.8V10.4851H302.04V9.85512C301.995 6.88512 301.995 3.78012 301.995 0.810115H308.205C308.205 3.69012 308.25 6.79512 308.25 9.72012V10.4851H313.695C312.255 7.96512 310.14 4.63512 308.7 2.52011L310.5 0.855114C313.11 2.25011 316.575 5.26512 318.465 7.42512L314.595 10.4851H318.87V13.8151H308.34C308.835 25.1101 310.905 32.3551 314.1 34.6051C316.215 36.4951 316.44 35.2801 316.485 28.8451H319.005ZM295.155 32.4901C297.945 32.0401 300.6 31.5451 302.985 31.0501L303.84 33.4351C298.35 36.8101 289.665 39.5101 282.105 40.9051L280.35 34.2901C283.095 34.0651 285.84 33.7951 288.585 33.4351V22.0951H282.15V18.9001H301.23V22.0951H295.155V32.4901ZM327.015 23.2201C331.02 20.1601 334.62 16.2001 337.32 10.8001H327.645V7.38012H346.275C343.845 5.62511 341.055 3.78012 338.85 2.52011L339.885 0.000114441C343.53 0.630114 348.345 2.11512 351.9 4.00512L349.785 7.38012H365.535V10.8001H352.215C356.985 12.3301 362.97 16.2451 366.66 19.4851L362.295 24.4801C358.56 20.2051 353.88 15.7951 350.415 13.0051L351.9 10.8001H338.625L343.575 13.4101C340.02 18.6751 334.17 23.2651 328.41 25.5151L327.015 23.2201ZM366.93 35.5951L364.095 42.3901C357.615 41.0401 351.945 38.6101 347.265 34.9201C342 38.9251 335.475 41.4901 327.645 42.3901L326.97 39.6901C333.855 37.6201 339.165 35.1001 343.35 31.3201C340.74 28.4851 338.58 25.1551 336.96 21.2401L339.12 19.7101C341.865 23.1751 344.25 25.7401 346.68 27.7651C348.705 25.1551 350.415 22.0501 351.855 18.3151L358.065 21.3301C356.31 24.9751 354.105 28.2601 351.495 31.0501C355.5 33.1651 360.135 34.3351 366.93 35.5951ZM382.14 9.94512C380.07 7.42512 377.595 4.68012 375.57 2.70011L377.01 0.630114C379.755 1.57512 383.49 3.64512 386.01 5.71512L382.14 9.94512ZM392.76 26.2351V34.4701H387.09V11.4301H397.8C396.135 10.2151 394.38 9.00012 392.895 8.05512L393.84 5.89512C395.73 6.39012 397.98 7.15512 400.095 8.05512C401.13 7.20012 401.985 6.39012 402.885 5.40011H387.675V2.47511H403.83L405.54 1.57512L410.715 5.22011C408.375 7.06511 406.215 8.41512 403.47 9.63012C403.83 9.81012 404.19 9.99011 404.505 10.1701L403.515 11.4301H411.525V29.8801C411.525 34.4701 407.61 35.4151 402.525 32.8951L402.93 30.4201C405.36 30.7801 405.855 30.6001 405.855 28.6651V26.2351H402.075V34.1101H396.54V26.2351H392.76ZM384.525 14.4901L380.655 18.9001C378.765 16.5601 375.93 13.4101 373.77 11.2501L375.21 9.09012C377.865 10.0351 382.005 12.3751 384.525 14.4901ZM396.54 14.3551H392.76V17.4151H396.54V14.3551ZM405.855 17.4151V14.3551H402.075V17.4151H405.855ZM392.76 23.4001H396.54V20.2501H392.76V23.4001ZM402.075 23.4001H405.855V20.2501H402.075V23.4001ZM393.615 36.1801C400.95 36.2701 407.835 35.7751 414.09 34.9201L412.515 41.2651C407.16 41.6251 400.05 41.6701 394.83 41.4901C389.115 41.2651 384.57 40.4551 382.14 35.3701C380.925 37.8901 378.585 40.9051 375.93 43.1551L372.6 38.9251C374.94 37.3501 377.1 35.5501 378.315 33.9301V23.4451H373.41V20.4301H384.525V33.0301C385.92 35.9551 389.295 36.1351 393.615 36.1801ZM430.92 24.4351V37.2151C430.92 41.4001 427.77 44.1901 420.12 40.1401L420.615 37.8901C424.575 38.4751 425.025 38.0701 425.025 36.0901V27.5851C423.765 28.1701 422.505 28.6651 421.29 29.1601L419.355 23.2201C421.245 22.9051 423.135 22.5451 425.025 22.0951V13.3651H420.21V10.4401H425.025V0.945116H430.92V10.4401H434.745V13.3651H430.92V20.6101C432 20.2951 433.08 19.9801 434.115 19.6201L435.105 21.6451C433.71 22.6351 432.315 23.5801 430.92 24.4351ZM449.64 36.0451C452.925 36.0451 456.885 35.8651 460.575 35.2801L459.135 41.4451C456.57 41.6701 453.645 41.7601 451.035 41.6701C445.725 41.5351 441 40.6801 438.165 35.2801C436.635 38.2951 434.61 40.8151 432 42.7501L430.245 40.9501C433.26 37.3951 434.61 31.4551 435.33 26.0101L440.91 27.2701C440.505 28.9801 440.055 30.6001 439.515 32.0851C440.325 33.2551 441.18 34.1101 442.215 34.6951V24.7051H435.555V21.9151H442.215V19.0351H433.395V16.1551H442.215V13.4551H435.825V10.6201H442.215V8.19012H433.035V5.31012H442.215V0.990115H448.245V5.31012H459.27V8.19012H448.245V10.6201H456.57V16.1551H460.035V19.0351H456.57V24.7051H448.245V28.2601H458.505V31.1851H448.245V36.0451H449.64ZM450.9 13.4551H448.245V16.1551H450.9V13.4551ZM450.9 21.9151V19.0351H448.245V21.9151H450.9ZM506.7 31.9051C508.05 39.2851 507.87 41.6251 501.12 41.6251C495.09 41.5801 493.92 40.6351 493.92 37.1251V30.6451H492.39C491.04 37.0801 486.405 41.7151 476.19 42.9751L475.47 40.5451C483.255 38.0701 485.64 35.2801 486.81 30.6451H481.95V27.5851C477.99 30.8251 472.77 33.9751 468.405 35.7301L466.11 29.5651C467.595 29.2951 469.26 28.8901 471.06 28.3951V13.9051H467.01V10.8901H471.06V0.720116H477V10.8901H481.095V13.5001H486.63C485.865 12.0151 484.965 10.6201 484.02 9.18012L484.83 8.41512H481.725V5.40011H491.895C490.32 4.27512 488.7 3.28512 487.08 2.29511L487.935 0.000114441C490.635 0.405115 494.595 1.39512 497.205 2.79012L495.675 5.40011H504.855V8.41512H500.535L503.19 9.54011C502.2 10.8901 501.03 12.2851 499.77 13.5001H506.565V16.4701H480.465V13.9051H477V26.5501L481.14 25.0651L481.95 26.7751V18.2701H504.72V30.6451H499.185V34.8751C499.185 36.3601 499.545 36.6751 501.75 36.7201C503.865 36.7201 504.18 36.3151 504.18 31.9051H506.7ZM487.17 8.41512C488.79 9.49512 490.365 10.8001 491.76 12.2851L490.14 13.5001H495.72C496.485 11.8351 497.07 10.3051 497.7 8.41512H487.17ZM487.575 21.1501V23.0851H499.05V21.1501H487.575ZM487.575 25.8301V27.8101H499.05V25.8301H487.575Z" fill="#C9A063"/></svg>