<svg width="213" height="63" fill="none" xmlns="http://www.w3.org/2000/svg"><g filter="url(#filter0_d_50_476)"><path d="M19.65 14.8251H23.15V25.5251H19.65V23.6251H7.325V25.5001H3.85V14.8251H7.325V21.8001H11.65V13.3751H4.95V4.4501H8.4V11.5751H11.65V2.5251H15.35V11.5751H18.7V4.4251H22.15V13.3751H15.35V21.8001H19.65V14.8251ZM48.525 14.5751H50.575V16.2251H48.525V22.8001C48.525 25.6001 45.7 26.9251 40.625 24.3501L40.975 22.9751C44.75 23.5001 45.1 23.2251 45.1 21.4751V16.2251H39.325C41 17.2251 42.875 18.8251 43.95 20.0501L41.475 22.0251C40.6 20.5001 39.325 18.4001 38.325 17.1251L39.2 16.2251H37.45V14.5751H45.1V11.4001C42.9 12.9001 40.325 13.8751 37.575 14.3001L37.225 13.0001C38.55 12.6001 39.725 12.1501 40.75 11.6001C40.225 10.5751 39.75 9.7251 39.15 8.8251C38.6 9.2001 38.025 9.5251 37.5 9.7751L36.9 8.8251V25.6751H33.8V16.1501H32.675C32.525 19.9751 31.85 23.4251 29.075 25.7501L28.1 24.9001C29.475 22.6001 29.775 19.9251 29.775 16.1501H28.45V14.5001H33.8V11.1501H32.4V12.5501H29.4V2.7751H32.4V9.5251H33.8V2.3251H36.9V8.5251C38.675 7.1001 40.525 4.7251 41.85 2.0001L44.8 3.0501C44.6 3.3751 44.4 3.7001 44.175 4.0001H46.575L47.5 3.5501L50.475 5.1001C49.275 7.7251 47.4 9.8251 45.15 11.3751H48.525V14.5751ZM46.6 5.6251H42.9C42.775 5.7501 42.675 5.8501 42.575 5.9751C43.5 6.4501 44.4 7.1001 45.225 7.8501C45.75 7.1751 46.2 6.4251 46.6 5.6251ZM40.375 7.9751C41.225 8.6251 42 9.3751 42.775 10.3251L43.525 9.7251C42.85 8.7251 42.175 7.9251 41.4 7.1251C41.05 7.4251 40.7 7.7001 40.375 7.9751ZM54.05 24.2001C60.075 20.0251 63.075 13.6251 63.675 5.5501H57.825V3.6751H67.425C67.975 12.5001 71.2 18.1251 77.075 21.9751L74.225 25.6501C70.25 22.6251 67.325 16.4501 66.675 10.8001C66.075 14.4251 62.575 22.4251 54.875 25.6751L54.05 24.2001ZM90.675 3.8501H101.5V25.3501H98.1V23.4001H94.05V25.4751H90.675V15.6751L88.85 17.0501C88.425 16.0501 87.9 14.8751 87.35 13.7751V25.5251H84V16.1501C83.15 17.8751 82.025 19.5251 81.05 20.5751L80.05 19.7001C81.2 17.6251 82.875 13.7251 83.625 9.1001H80.5V7.4501H84V2.3751H87.35V7.4501H90.25V9.1001H87.35V10.7751C88.575 11.8251 89.8 13.1751 90.675 14.2751V3.8501ZM98.1 9.5501V5.5001H94.05V9.5501H98.1ZM98.1 15.4001V11.1251H94.05V15.4001H98.1ZM98.1 21.7751V17.0001H94.05V21.7751H98.1ZM123.575 4.0251H128.45V5.6001H123.575V7.3501H120.15V5.6001H114.875V7.3501H111.425V5.6001H106.55V4.0251H111.425V2.5001H114.875V4.0251H120.15V2.5001H123.575V4.0251ZM119.275 12.0001V12.9751H128.4V14.5001H106.6V12.9751H115.725V12.0001H109.25V10.5001H115.725V9.5751H108.1V8.0501H115.725V6.4001H119.275V8.0501H126.9V9.5751H119.275V10.5001H125.75V12.0001H119.275ZM109.45 25.4751V15.4001H125.5V22.6501C125.5 25.1751 123.275 26.4501 118.575 24.6001L118.825 23.3001C121.775 23.6251 121.925 23.3751 121.925 22.2001V22.0001H113.025V25.4751H109.45ZM121.925 16.9751H113.025V18.0001H121.925V16.9751ZM113.025 20.5251H121.925V19.4751H113.025V20.5251ZM137.4 9.2251V6.6501H132.475V4.8751H137.4V2.4751H140.8V4.8751H146.275V2.4751H149.675V4.8751H154.525V6.6501H149.675V9.2251H146.275V6.6501H140.8V9.2251H137.4ZM146.15 18.2001C148.1 20.4751 150.925 21.5001 155.05 22.0751L153.575 25.6751C150.125 25.1001 145.75 22.3751 144.375 18.3501C142.95 22.3001 139.55 24.7751 132.85 25.6751L132.475 24.2751C137.35 22.8501 139.75 20.9751 140.875 18.2001H132.925V16.4751H135.6V10.4251H141.775V7.5001H145.225V10.4251H151.45V16.4751H154.225V18.2001H146.15ZM139 16.4751H141.4C141.675 15.2001 141.775 13.7751 141.775 12.1501H139V16.4751ZM148.05 12.1501H145.225V12.4751C145.225 13.9251 145.125 15.2501 144.875 16.4751H148.05V12.1501ZM165.475 5.3501L162.875 7.7251C162.025 6.3251 160.625 4.3001 159.75 3.2001L160.625 2.1501C162.325 2.9501 164.025 4.0501 165.475 5.3501ZM174.45 13.2751C175.4 17.2251 177.625 20.0001 181.075 22.1501L178.375 25.5001C176.225 23.6251 174.175 20.7251 173.325 16.4001C171.875 21.5751 168.4 24.3501 163.875 25.6751L163.3 24.4501C167.65 21.7751 169.65 18.8501 170.2 13.2751H165.025V11.5001H170.325C170.35 10.9251 170.35 10.3501 170.35 9.7251V6.5501C168.675 6.7001 167.15 6.7751 166.1 6.7751L165.9 5.3751C169.275 4.8251 173.85 3.5251 176.425 2.1751L179.575 5.1251C178.2 5.5501 176.175 5.9001 174.05 6.1751V10.5001C174.05 10.8501 174.05 11.1751 174.025 11.5001H180.275V13.2751H174.45ZM164.2 10.6751L161.925 13.3251C160.95 12.0001 159.05 9.7751 158.075 8.7501L158.775 7.6251C160.5 8.2751 162.6 9.4251 164.2 10.6751ZM162.875 13.8751L164.1 14.2751C163.6 18.1251 162.7 22.8001 162.05 25.0751L158.275 23.3751C159.8 20.9001 161.6 17.1001 162.875 13.8751ZM197.325 22.1501H206.3V24.0751H184.6V22.1501H193.425V12.4751H186.175V10.6001H193.425V2.5501H197.325V10.6001H204.775V12.4751H197.325V22.1501ZM18.95 50.3501C21.2 50.9501 23.175 51.7251 25.225 52.8251L23.3 55.7001C21.575 54.1501 19.925 52.9501 18.15 51.6751L18.825 50.3501H15.125L17.375 52.0251C15.2 53.7751 12.175 55.0751 9.625 55.6501L9.075 54.3751C11.15 53.3001 12.6 52.3251 14.525 50.3501H11.5V37.5251H15.725C15.825 36.7251 15.875 35.8251 15.9 35.0001H11.375V33.3751H24.425V35.0001H19.45C18.875 35.9001 18.225 36.8251 17.675 37.5251H23.675V50.3501H18.95ZM10.9 35.2501H8.775V52.1001C8.775 55.0251 5.95 56.1501 2 53.8751L2.325 52.5751C4.925 52.9751 5.25 52.7501 5.25 51.4251V35.2501H2.375V33.6251H10.9V35.2501ZM14.9 39.1501V41.1751H20.275V39.1501H14.9ZM14.9 42.7751V44.9001H20.275V42.7751H14.9ZM14.9 46.5001V48.7001H20.275V46.5001H14.9ZM34.4 35.7501H41.65C40.55 34.9001 39.325 34.0251 38.425 33.4001L39 32.0501C40.8 32.4001 43.35 33.2751 45 34.2001L43.925 35.7501H49.775V37.4501H42C41.325 38.4501 40.5 39.5501 39.675 40.5251C41.675 40.5001 43.625 40.4251 45.2 40.3501C44.825 39.7251 44.475 39.1751 44.175 38.7501L45.125 37.8501C46.775 38.8001 48.55 40.4251 50.025 42.1251L47.275 44.1251C46.9 43.3501 46.45 42.5501 46.025 41.7501C42.925 42.6251 38.925 43.3251 35.3 43.7501L34.55 40.4751C35.475 40.5001 36.45 40.5251 37.425 40.5251C37.775 39.4751 38.075 38.3751 38.275 37.4501H34.4V35.7501ZM34.675 35.3251L32.125 37.8001C31.075 36.1751 30.05 34.6501 29.075 33.3501L30.025 32.2751C31.5 32.9251 33.225 34.0001 34.675 35.3251ZM34.15 41.0751L31.65 43.7501C30.575 42.1501 29.4 40.5751 28.225 39.1751L29.05 38.0251C30.75 38.7501 32.725 40.0251 34.15 41.0751ZM32.875 43.8251L34.2 44.2501C33.9 47.0251 32.8 52.2501 31.85 55.0501L28.075 53.3251C29.625 51.0501 31.675 46.8501 32.875 43.8251ZM50.325 49.2751C51.275 54.2501 50.8 55.0251 47.975 55.0251C44.65 55.0251 44.175 54.6001 44.175 52.3751V44.2751H47.325V51.3251C47.325 51.9501 47.425 52.1001 48.2 52.1001C48.925 52.1001 49.025 51.9251 49.025 49.2751H50.325ZM39.95 54.7501V44.3251H43.05V54.7501H39.95ZM32.9 54.4751C35.325 52.2751 35.8 50.5501 35.8 44.3501H38.925C38.925 51.1251 38.2 53.8251 33.575 55.6251L32.9 54.4751ZM57.9 43.5751V46.6251H54.675V42.0251H56.625C56.525 39.0001 56.475 36.3751 56.375 33.4751L58.45 33.9001C59.35 33.4501 60.425 32.7751 61.3 32.0001L63.05 33.9001C62.1 34.3751 60.7 34.7751 59.4 35.0501C59.425 35.4251 59.425 35.8001 59.45 36.1501H62.325V37.6751H59.475C59.5 38.1251 59.5 38.6001 59.525 39.0501H62.45V40.5501H59.55C59.575 41.0251 59.575 41.5251 59.575 42.0251H62.825L62.4 41.2251C63.15 40.7751 63.8 40.3001 64.375 39.7251C63.85 39.3251 63.325 38.9251 62.8 38.5501L63.325 37.5751C64.025 37.8251 64.725 38.1501 65.425 38.5501C65.775 38.0751 66.1 37.6001 66.425 37.0751L68.25 38.2501C67.925 38.6751 67.525 39.1251 67.1 39.5751C67.6 39.9251 68.1 40.3001 68.575 40.7001L67.35 42.0251H71.25L71.325 40.5751H68.65V39.0501H71.4C71.425 38.6001 71.45 38.1751 71.45 37.7251H68.675V36.2001H71.5C71.525 35.7501 71.55 35.2751 71.55 34.8001H68.475V33.2001H71.2L71.8 32.6501L74.7 33.3001C74.575 36.1501 74.4 39.1751 74.175 42.0251H76.275V46.5751H73.05V43.5751H57.9ZM62.525 36.5251C63.225 36.0001 63.875 35.4001 64.475 34.7501C63.925 34.2751 63.375 33.8001 62.875 33.4251L63.5 32.4751C64.15 32.7501 64.8 33.1001 65.45 33.5001C65.75 33.0501 66.025 32.6001 66.25 32.1251L68.2 33.1501C67.9 33.6501 67.525 34.1251 67.075 34.6001C67.575 35.0001 68.05 35.4001 68.5 35.8001L67 37.3001C66.6 36.8501 66.15 36.3751 65.675 35.9001C64.85 36.5501 63.95 37.1001 63.125 37.4501L62.525 36.5251ZM65.65 40.8251C65 41.3001 64.275 41.7251 63.525 42.0251H66.85C66.475 41.6251 66.075 41.2251 65.65 40.8251ZM76.3 49.0251V50.7001H67.75V52.6751C67.75 55.5251 64.7 56.7501 60.025 54.3001L60.3 52.9251C63.85 53.4251 64.175 53.2251 64.175 52.0501V50.7001H54.7V49.0251H64.175V47.1251L66.325 47.4751C67.1 47.0251 67.725 46.5751 68.4 45.9751H58.75V44.4251H69.05L69.925 44.0001L72.625 46.0251C71.15 47.0751 69.375 48.0001 67.75 48.5251V49.0251H76.3ZM94.6 35.2751H102.525V36.9751H85.25V42.2501C85.25 43.6001 85.15 44.9751 84.975 46.3501C86.625 43.4251 87.625 39.8501 88.1 37.0501L91.5 37.9251C91.1 39.3001 90.6 40.6751 89.975 42.0001V55.5001H86.65V47.1251C86.25 47.5751 85.8 48.0001 85.35 48.3751L84.75 47.7251C84.15 50.9751 82.975 53.9251 81.175 55.5501L80.125 54.7751C81.65 51.6751 81.75 47.8751 81.75 41.9751V35.2751H92.525C91 34.5251 89.35 33.8001 88.15 33.3001L88.45 31.9751C90.35 32.1001 93.525 32.6501 95.475 33.3251L94.6 35.2751ZM99.775 37.6751V41.4001H102.425V43.0751H99.775V52.5251C99.775 55.6251 96.975 56.8751 92.2 54.2251L92.525 52.8751C96 53.4251 96.4 53.1501 96.4 51.5501V43.0751H90.65V41.4001H96.4V37.6751H99.775ZM95.8 49.1001L93.025 50.5751C92.5 48.8001 91.65 46.5501 90.875 44.7501L92.05 44.1001C93.575 45.6501 94.975 47.5751 95.8 49.1001ZM124.95 49.1001H121.5V47.4251H118.775V49.5501H115.325V40.4251H112.6V51.8751H128.3V53.7251H112.6V55.5751H109.025V40.4251H106.3V38.5251H109.025V33.8251H112.6V38.5251H115.325V32.5001H118.775V38.5251H121.5V32.6501H124.95V38.5251H128.6V40.4251H124.95V49.1001ZM118.775 45.7001H121.5V40.4251H118.775V45.7001ZM154.9 46.3001L153.575 49.8001C151.8 49.2751 150.075 48.3751 148.575 47.1751V55.7001H145.175V45.8001H147.1C146.275 44.9251 145.6 43.9251 145.1 42.8501H142.875C142.3 43.9751 141.425 44.9501 140.425 45.8251H141.875C141.875 51.3501 139.975 54.8251 133.175 55.9001L132.775 54.5001C137.05 52.9501 138.225 50.8001 138.5 47.2001C136.65 48.3001 134.55 49.0751 132.575 49.4251L132.125 48.0251C135.575 46.6501 137.7 44.8501 138.875 42.8501H134.925V33.4501H152V42.8501H147.075C149.3 44.7751 151.8 45.6001 154.9 46.3001ZM138.3 35.1251V37.3001H141.75V35.1251H138.3ZM145.1 35.1251V37.3001H148.6V35.1251H145.1ZM138.3 38.9251V41.2001H141.75V38.9251H138.3ZM145.1 38.9251V41.2001H148.6V38.9251H145.1ZM180.525 48.8251H174.375V52.7001H176.25V49.3501H179.5V55.4251H176.25V54.3501H169.1V55.4751H165.875V49.4251H169.1V52.7001H170.95V48.8251H165.1V47.1751H170.95V45.1251H170.3C169.025 45.9501 167.7 46.6001 166.7 46.9501L166.025 45.8001C166.875 45.2751 167.8 44.6001 168.75 43.6751C167.725 44.0251 166.625 44.3001 165.475 44.5251L165.175 43.4001C164.9 43.6501 164.6 43.9001 164.275 44.1501V52.9751C164.275 55.7751 161.2 56.3751 158.2 54.5751L158.55 53.2251C160.575 53.5001 161 53.3001 161 52.3251V46.4251C160.375 46.8251 159.75 47.1501 159.15 47.4501L157.975 44.3751C158.875 44.1001 159.925 43.7001 161 43.2501V38.6251H158.4V36.9501H161V32.5251H164.275V36.9501H166.4V38.3251C168.125 36.7001 169.8 34.4251 170.8 32.1501L174 33.2251C173.8 33.5751 173.6 33.9251 173.35 34.2751H175.775L176.65 33.8001L179.8 35.5751C178.125 38.3001 175.725 40.5001 172.6 42.1251L173.4 42.4751C173.1 42.8251 172.775 43.1501 172.425 43.4751H178.95V45.1251H174.375V47.1751H180.525V48.8251ZM175.775 35.9001H172C171.925 35.9751 171.85 36.0501 171.775 36.1501C172.625 36.6501 173.55 37.3501 174.2 37.9251C174.85 37.2251 175.4 36.5501 175.775 35.9001ZM172.425 39.5251C171.85 38.7251 171.2 37.9251 170.65 37.2251C170.25 37.5751 169.825 37.9251 169.425 38.2501C170.025 38.9251 170.625 39.8001 171.05 40.5001C171.525 40.2001 172 39.8501 172.425 39.5251ZM166 40.8001L166.825 41.8251C166.475 42.2001 166.05 42.6001 165.625 43.0001C166.825 42.6501 167.95 42.2001 168.975 41.6751C168.7 40.8251 168.4 39.9501 168.1 39.1751C167.475 39.6001 166.85 39.9501 166.25 40.2251L165.575 39.0501C165.75 38.9251 165.9 38.7751 166.075 38.6251H164.275V41.7501C164.9 41.4251 165.475 41.1251 166 40.8001ZM185.725 39.2001C185.425 39.4001 185.125 39.6001 184.8 39.7751L184.05 38.6751C185.75 36.8501 186.975 34.7751 187.775 32.1001L191.05 32.9501C190.85 33.4001 190.625 33.8501 190.375 34.3001H195.975V35.4751C196.525 34.4001 196.975 33.2251 197.325 32.1001L200.575 33.0501C200.375 33.4501 200.125 33.8751 199.85 34.3001H206.475V35.9501H202.825C203.375 36.5751 203.95 37.3501 204.425 38.1751L201.775 39.0751C201.55 38.1001 201.25 36.9501 200.925 35.9501H198.6C197.7 37.0001 196.625 37.9751 195.55 38.6501H196.75V40.2501H193.5V41.4251H195.85V44.6751C196.9 42.6251 197.7 40.2001 198.225 37.5001L201.425 38.4501C201.2 39.0501 200.95 39.6501 200.675 40.2251H206.35V41.9001H199.825C198.95 43.4501 197.9 44.8251 196.7 45.9001L195.85 45.2001V45.2751H193.5V46.5751H197.55V48.2001H185.725V39.2001ZM189.275 35.9501C188.475 36.9501 187.55 37.8501 186.5 38.6501H191.225C190.95 37.8251 190.6 36.8501 190.225 35.9501H189.275ZM195.05 38.6501L194.325 37.8501C194.85 37.3001 195.3 36.6501 195.7 35.9501H192.35C192.85 36.4001 193.325 36.9501 193.775 37.5751L191.425 38.6501H195.05ZM188.85 41.4251H190.475V40.2501H188.85V41.4251ZM199.775 43.1251L200.825 42.3001C202.225 43.2251 204.1 45.0501 204.975 46.3501L202.2 48.2001C201.425 46.2501 200.675 44.8001 199.775 43.1251ZM193.025 43.8501V42.8501H188.85V43.8501H193.025ZM190.475 46.5751V45.2751H188.85V46.5751H190.475ZM204.325 53.1751H206.575V54.8251H184.425V53.1751H186.6V49.0001H204.325V53.1751ZM191.6 53.1751V50.6501H190.025V53.1751H191.6ZM196.25 53.1751V50.6501H194.675V53.1751H196.25ZM200.9 53.1751V50.6501H199.3V53.1751H200.9Z" fill="white"/></g><defs><filter id="filter0_d_50_476" x="0" y="0" width="212.575" height="62.875" filterUnits="userSpaceOnUse" color-interpolation-filters="sRGB"><feFlood flood-opacity="0" result="BackgroundImageFix"/><feColorMatrix in="SourceAlpha" type="matrix" values="0 0 0 0 0 0 0 0 0 0 0 0 0 0 0 0 0 0 127 0" result="hardAlpha"/><feOffset dx="2" dy="2"/><feGaussianBlur stdDeviation="2"/><feComposite in2="hardAlpha" operator="out"/><feColorMatrix type="matrix" values="0 0 0 0 0 0 0 0 0 0 0 0 0 0 0 0 0 0 0.25 0"/><feBlend mode="normal" in2="BackgroundImageFix" result="effect1_dropShadow_50_476"/><feBlend mode="normal" in="SourceGraphic" in2="effect1_dropShadow_50_476" result="shape"/></filter></defs></svg>