<svg width="213" height="58" fill="none" xmlns="http://www.w3.org/2000/svg"><g filter="url(#filter0_d_50_449)"><path d="M20.4546 18.1501C20.4546 16.1501 18.8546 14.8001 16.9296 14.7501C16.4296 14.7251 16.0296 14.7501 15.5296 14.8501V12.5751C18.3296 12.2751 19.5296 10.9251 19.5296 9.4251C19.5296 7.8001 18.2796 7.0001 16.8296 7.0001C15.3546 7.0001 14.1296 7.7251 13.1546 8.5251V5.7501C14.0296 5.3001 15.5796 4.8001 17.7546 4.8251C21.5546 4.8501 23.2546 6.5001 23.2546 9.2251C23.2296 11.5001 20.9546 12.9751 19.4296 13.3251V13.4751C21.2296 13.6001 24.2296 14.9501 24.2296 18.0501C24.2296 21.9501 21.4296 23.9001 16.8546 23.9251C15.3296 23.9251 14.1046 23.7251 12.9296 23.3251L12.7546 21.0251C13.9796 21.5001 15.2796 21.6751 16.2796 21.6251C19.1046 21.5001 20.4546 20.7251 20.4546 18.1501ZM34.9 24.0001C31.125 24.0001 28.25 20.5001 28.25 14.7001C28.25 8.0501 31.6 4.8251 35.125 4.8251C39.025 4.8251 41.725 8.4751 41.725 14.2251C41.725 20.5251 39.375 24.0251 34.9 24.0001ZM35.1 21.9001C37.25 21.9001 37.85 18.6001 37.85 14.2751C37.85 10.3751 37.1 6.9251 35 6.9251C33.175 6.9251 32.125 10.2751 32.125 14.5001C32.125 18.6251 33.125 21.9001 35.1 21.9001ZM62.0953 4.3001H67.3953V5.9251H62.0953V7.5251H58.6203V5.9251H54.1703V7.5251H50.6953V5.9251H45.4203V4.3001H50.6953V2.5751H54.1703V4.3001H58.6203V2.5751H62.0953V4.3001ZM58.0953 15.2251V16.3001H66.4453V22.9251C66.4453 25.7001 63.5453 26.4251 59.4453 24.6501L59.7203 23.3251C62.6703 23.6501 63.0953 23.4751 63.0953 22.0501V21.7501L61.1203 23.0251C60.8703 22.4501 60.6203 21.8501 60.3203 21.2501C57.5953 22.3251 53.9453 23.2001 50.7453 23.6751L50.1453 20.7251C51.6953 20.6501 53.1953 20.5751 54.6203 20.4751V17.9251H49.7203V25.4501H46.3203V16.3001H54.6203V15.2251H48.0203V8.0251H64.6453V15.2251H58.0953ZM51.2953 9.6251V10.8251H54.6203V9.6251H51.2953ZM58.0953 9.6251V10.8251H61.3953V9.6251H58.0953ZM51.2953 13.6501H54.6203V12.4001H51.2953V13.6501ZM58.0953 12.4001V13.6501H61.3953V12.4001H58.0953ZM59.9203 17.9251H58.0953V20.1501C58.6453 20.0751 59.1703 20.0251 59.6953 19.9501C59.4703 19.4751 59.2203 19.0251 58.9953 18.6001L59.9203 17.9251ZM63.0953 21.1001V17.9251H60.1203C61.3453 18.9251 62.3203 20.0251 63.0953 21.1001ZM77.2953 18.0501C78.1703 17.8001 79.0453 17.5251 79.8953 17.2251L80.4703 18.4501C77.9953 20.2501 74.7203 21.8001 71.9203 22.8751L70.9203 19.3751C71.8703 19.2501 72.8453 19.0751 73.8703 18.8751V10.8751H71.3703V9.2251H73.8703V2.6751H77.2953V9.2251H79.7203V10.8751H77.2953V18.0501ZM87.7953 14.8751H93.4453V16.5751H87.7953V25.8001H84.1453V16.5751H78.4953V14.8751H84.1453V13.0001L81.2703 14.0501C80.7953 11.6251 80.1703 9.1251 79.5203 6.9751L80.7703 6.4501C81.9703 7.9251 83.3453 10.2251 84.1453 12.1751V5.3751H79.3203V3.7251H92.6953V5.3751H87.7953V13.0751C88.6203 10.8751 89.2953 8.4001 89.6703 6.1751L92.9953 7.4751C92.0953 9.7001 90.3453 12.4751 88.8703 14.0251L87.7953 13.4751V14.8751ZM98.5453 4.4751H118.22V24.7001H114.72V22.6251H102.045V24.7501H98.5453V4.4751ZM102.045 20.5751H114.72V17.6001H112.27C109.795 17.6001 109.345 16.9501 109.345 14.2001V6.5251H107.47C107.42 13.2001 106.545 17.1751 102.045 19.4501V20.5751ZM104.295 6.5251H102.045V17.2751C103.945 15.0001 104.27 12.5751 104.295 6.5251ZM114.72 14.7251V6.5251H112.47V13.6751C112.47 14.5001 112.745 14.7251 113.47 14.7251H114.72ZM136.445 18.1001V18.3501H145.295V20.1251H136.445V22.7751C136.445 26.0751 132.995 26.6001 128.895 24.5251L129.22 23.1251C132.52 23.5001 132.795 23.2751 132.795 22.0251V20.1251H123.595V18.3501H132.795V16.6001L134.97 17.0251C135.72 16.5001 136.32 15.9751 136.87 15.3751H127.42V13.8501C126.22 14.4251 124.92 14.9001 123.57 15.2751L123.045 13.9501C126.045 12.5751 128.145 11.0501 130.02 8.8751H124.095V7.1001H132.395V5.9001C129.845 6.0001 127.395 5.9751 125.42 5.9001L125.27 4.5501C131.345 4.2751 136.595 3.4501 140.32 2.1751L142.945 4.7751C140.895 5.2251 138.495 5.5251 136.045 5.7001V7.1001H144.72V8.8751H137.195C139.77 10.5001 142.37 11.2501 145.72 11.8251L144.37 14.9751C141.72 14.3001 138.545 12.7251 136.045 10.0751V13.0751H132.395V10.4001C131.07 11.7251 129.52 12.8001 127.77 13.6751H137.32L138.22 13.1751L141.32 15.3751C140.045 16.4001 138.145 17.4251 136.445 18.1001ZM149.27 14.6501C149.895 14.6501 150.495 14.6501 151.095 14.6251C151.92 13.5001 152.695 12.2751 153.42 10.9501C152.27 11.3501 151.12 11.6001 150.02 11.7751L149.42 8.8251C149.895 8.8501 150.345 8.8751 150.82 8.8751C151.545 6.8751 152.07 4.9001 152.57 2.4501L155.87 3.4001C154.995 5.4001 153.87 7.3501 152.67 8.9001C153.27 8.9001 153.87 8.9001 154.47 8.8751C154.97 7.8001 155.42 6.7001 155.795 5.6001L158.87 6.9251C157.545 9.5251 155.295 12.4751 153.32 14.4751C154.12 14.4001 154.895 14.3001 155.695 14.2001C155.52 13.7251 155.37 13.2751 155.195 12.8251L156.32 12.2001C157.37 13.4751 158.245 15.0251 158.92 16.5501L156.67 17.5751C156.52 16.9751 156.345 16.3501 156.17 15.7251C154.02 16.7751 151.82 17.3251 149.97 17.6751L149.27 14.6501ZM172.045 20.8001L169.72 23.3751C168.745 22.1501 167.52 20.7751 166.22 19.4501V22.6001C166.22 25.8501 162.92 26.5501 159.295 24.2751L159.645 22.9251C162.495 23.3251 162.82 23.2001 162.82 21.6501V19.5001C161.82 20.6001 160.595 21.5751 159.12 22.5001L157.72 19.7751C159.495 19.2251 161.02 18.5251 162.82 17.4751V16.1501L161.02 18.0001C160.145 16.7751 158.945 15.4001 158.02 14.4251L158.745 13.4251C159.92 13.8751 161.62 14.8501 162.82 15.8751V12.8001H157.595V11.1751H164.77C164.92 10.6251 165.045 10.1001 165.17 9.6001H161.895L161.52 10.8001L158.62 10.3251C159.495 7.6001 160.07 5.2751 160.52 2.5001L163.52 2.9251C163.42 3.3501 163.345 3.7501 163.27 4.1251H165.895L166.57 3.5501L169.37 4.5751C168.945 6.6001 168.47 8.9751 167.845 11.1751H171.245V12.8001H166.22V17.2001C167.195 15.9501 168.045 14.5001 168.645 13.1251L171.195 14.7751C170.27 15.9001 168.745 17.1001 167.37 17.8501C169.12 18.7251 170.895 19.8251 172.045 20.8001ZM162.345 7.9751H165.545C165.72 7.1751 165.87 6.4251 165.97 5.7501H162.895C162.72 6.5001 162.545 7.2251 162.345 7.9751ZM154.72 17.6501L155.82 17.1501C156.97 18.7001 158.07 20.9751 158.595 22.4001L156.195 23.3501C155.845 21.6501 155.295 19.3751 154.72 17.6501ZM152.82 18.0501L154.045 17.8501C154.695 19.7501 155.42 22.4501 155.77 24.2751L152.945 24.7001C152.97 22.9751 152.945 20.0751 152.82 18.0501ZM150.92 18.0251L152.195 18.1501C152.295 20.6001 152.195 23.7251 151.77 25.5751L148.895 24.5751C149.795 22.9001 150.495 20.4501 150.92 18.0251ZM197.67 15.8501H195.72C195.62 17.4751 195.495 18.9251 195.395 20.2501H197.295V21.9501H195.22C195.195 22.0751 195.195 22.2001 195.17 22.3251C194.87 25.0751 192.745 27.1001 187.795 24.5501L188.145 23.0501C191.07 23.4501 191.52 23.3251 191.745 21.9501H185.02L184.795 23.2751L181.495 22.9501C181.945 20.7501 182.32 18.4751 182.67 15.8501H181.195V14.1501H182.895C183.07 12.6501 183.245 11.0251 183.42 9.2501C182.92 9.8501 182.37 10.4501 181.745 11.0251L180.62 10.0751C182.07 7.5251 183.02 4.6751 183.57 2.0001L187.02 2.9501C186.745 3.6251 186.47 4.3001 186.145 4.9501H197.445V6.6501H185.245C184.87 7.3001 184.445 7.9251 183.995 8.5251H196.095C195.995 10.6001 195.92 12.4501 195.82 14.1501H197.67V15.8501ZM182.07 5.3001L179.67 7.7751C178.495 6.1001 177.22 4.5501 176.195 3.4001L177.045 2.2251C178.495 2.8001 180.445 3.9001 182.07 5.3001ZM174.945 9.0001L175.795 7.8001C177.495 8.5001 179.095 9.5001 180.695 10.8501L178.42 13.3001C177.145 11.5251 176.02 10.2001 174.945 9.0001ZM186.545 10.1501C186.42 11.3751 186.27 12.7251 186.095 14.1501H189.795C188.895 13.2751 187.895 12.4251 186.97 11.6751L187.645 10.4001C189.045 10.7751 190.67 11.4251 192.045 12.2501L190.72 14.1501H192.445C192.545 12.7501 192.595 11.3751 192.645 10.1501H186.545ZM175.12 23.8001C176.495 21.1751 177.995 17.5751 179.12 14.1251L180.52 14.4751C180.245 17.7751 179.57 22.7501 178.895 25.2751L175.12 23.8001ZM191.97 20.2501C192.095 18.9251 192.245 17.4001 192.345 15.8501H185.895L185.295 20.2501H189.695C188.57 19.2501 187.445 18.3501 186.395 17.5751L187.095 16.2501C188.67 16.6751 190.22 17.2001 191.72 18.0001L190.245 20.2501H191.97ZM12.55 36.9251C12.225 40.7001 11.35 43.9251 9.14995 46.1251L8.09995 45.4001C9.62495 42.3251 9.84995 39.5001 9.84995 33.1751H8.12495V31.6001H11.475C11.05 30.3251 10.475 28.9251 9.97495 27.8751L11.075 27.1501C12.375 28.1751 13.45 29.6501 14.125 30.8751L12.675 31.6001H16.175V32.7751C16.8 31.1251 17.25 29.1501 17.5 27.3251L20.425 28.0001C20.2 28.8001 19.9 29.6001 19.575 30.3501H24.625V31.9751H18.775C18.475 32.5001 18.175 33.0001 17.85 33.4501H21.425L22.1 32.9251L24.65 34.4751C23.9 35.6001 23.125 36.5001 22.3 37.2501V39.2251H24.675V40.8001H22.3V44.0001C22.3 46.3251 19.975 47.3501 16.775 45.2501L17.125 44.0751C19.15 44.4251 19.425 44.2001 19.425 43.3251V40.8001H16.875V39.2251H19.425V36.5001L20.75 36.7501C21 36.1751 21.2 35.6001 21.375 35.0001H17.625V33.7751C17.275 34.2501 16.925 34.6751 16.575 35.0251L15.5 34.3001C15.675 33.9501 15.85 33.5751 16.025 33.1751H12.725C12.725 33.9251 12.7 34.6501 12.65 35.3751H16.375C16.375 39.5251 16.3 42.3251 16.075 44.1501C15.725 46.7001 13.25 47.1751 10.85 45.2501L11.275 44.1251C13.025 44.5501 13.325 44.4501 13.45 43.5251C13.575 42.2251 13.7 39.8251 13.675 36.9251H12.55ZM8.74995 30.3501L6.62495 32.7001C5.49995 31.2751 4.29995 29.9751 3.04995 28.7001L3.77495 27.6001C5.27495 28.1001 7.32495 29.1751 8.74995 30.3501ZM8.27495 35.2501L6.14995 37.6501C5.07495 36.2501 3.74995 34.7501 2.49995 33.5001L3.22495 32.3501C4.87495 32.9501 6.94995 34.1251 8.27495 35.2501ZM15.375 47.2751C18.8 47.2001 21.9 46.9751 24.85 46.4251L24.05 49.9001C22.1 50.0751 19.525 50.1501 17.1 50.1001C11.825 50.0001 8.49995 49.8501 6.82495 47.0251C6.22495 48.4751 5.37495 49.8001 3.87495 51.1251L1.99995 48.9751C3.04995 48.2251 3.99995 47.3501 4.74995 46.4251V40.4251H2.47495V38.7751H8.09995V45.7501C8.92495 47.0251 11.75 47.3251 15.375 47.2751ZM32.65 35.7501V34.0251H28.975V32.4001H32.65V31.0751C31.45 31.1501 30.3 31.2001 29.325 31.2001L29.075 29.8751C31.625 29.5001 35.225 28.6251 37.5 27.3501L39.725 30.0251C38.625 30.3251 37.35 30.5501 36.05 30.7251V32.4001H39.6V34.0251H36.05V35.7501H38.975V41.6001H29.775V35.7501H32.65ZM49.475 30.3501V41.7251H40.075V30.3501H43.15C43.225 29.5001 43.3 28.5251 43.375 27.4501L46.775 28.0001C46.375 28.7251 45.75 29.6251 45.175 30.3501H49.475ZM46.2 33.6751V31.9751H43.35V33.6751H46.2ZM46.2 36.8001V35.2251H43.35V36.8001H46.2ZM35.75 40.0501V37.3251H33V40.0501H35.75ZM46.2 40.1001V38.3501H43.35V40.1001H46.2ZM44.325 44.6251H45.625C47.15 49.1751 45.85 49.9751 43.475 50.1001C41.55 50.2251 39.525 50.2251 37.875 50.1501C35.225 50.0501 33.825 49.7751 33.825 47.4001V42.2001H37.2V46.0251C37.2 47.0751 37.4 47.2501 38.9 47.3001C40.3 47.3751 41.55 47.3501 42.925 47.2751C44.05 47.2001 44.3 46.9251 44.325 44.6251ZM37.925 43.3251L38.525 42.2501C40.175 42.7001 41.825 43.3251 43.4 44.1751L41.525 46.6251C40.35 45.4501 39.1 44.3251 37.925 43.3251ZM47.025 42.8251C48.75 44.0501 50.325 45.9001 51.45 47.4751L48.55 49.3001C47.75 47.1251 46.825 45.1501 45.95 43.6751L47.025 42.8251ZM28 47.6001C29.625 46.4001 30.975 44.7251 31.775 43.0251L33.1 43.4501C32.85 45.6251 31.825 48.2251 30.825 49.7751L28 47.6001ZM70.95 31.1251H76.05V35.4001H72.825V32.6751H58.35V35.4251H55.125V31.1251H59.8C59.325 30.1751 58.8 29.2751 58.3 28.5001L59.225 27.6751C60.35 28.2751 61.75 29.3751 62.675 30.4001L61.625 31.1251H63.975V27.5001H67.15V31.1251H68.95C69.4 30.0001 69.8 28.7501 70.05 27.6501L73.275 28.9251C72.575 29.7501 71.725 30.5001 70.95 31.1251ZM59.175 33.3751H71.95V37.4001H59.175V33.3751ZM68.725 36.0251V34.7501H62.4V36.0251H68.725ZM73.475 46.7251H68.725C71.15 46.9751 73.975 47.4251 75.975 48.0251L74.725 50.9751C72.55 49.9501 69.15 48.8001 66.575 48.0251L66.9 46.7251H63.2L64.95 48.1501C62.65 49.3501 58.875 50.3501 55.275 50.7001L54.925 49.4001C57.525 48.6251 59.45 47.8501 61.4 46.7251H57.55V38.1751H73.475V46.7251ZM61.075 39.6501V40.5751H69.925V39.6501H61.075ZM61.075 41.9751V42.9251H69.925V41.9751H61.075ZM61.075 44.3001V45.3001H69.925V44.3001H61.075ZM102.275 39.1501H95.3V41.9751H100.925V50.6501H97.5V49.0501H89.725V50.6501H86.3V41.9751H91.825V39.1501H85.85C85.6 43.4501 84.7 47.9251 81.575 50.9501L80.4 50.0251C82.225 46.7251 82.45 42.4251 82.45 33.9501V28.6001H101.35V34.8001H95.3V37.4501H102.275V39.1501ZM85.95 30.3001V33.1001H97.85V30.3001H85.95ZM85.925 37.4501H91.825V34.8001H85.95V35.5501C85.95 36.1751 85.95 36.8001 85.925 37.4501ZM97.5 43.6251H89.725V47.4251H97.5V43.6251ZM128.35 43.8251C129.25 48.3501 128.975 49.9501 126.3 50.1251C125.1 50.2001 124.225 50.2251 122.9 50.1251C120.55 49.9751 119.85 49.5001 119.85 46.8251V43.1001H115.875V42.0251L114 42.7501L113.625 41.1501C111.6 42.2501 109.2 42.9251 107.225 43.3001L106.525 40.3501C107.15 40.3501 107.75 40.3251 108.35 40.2751C109.2 39.0751 109.975 37.9001 110.725 36.4501C109.5 36.9251 108.225 37.2751 107.075 37.5001L106.45 34.5751H107.925C108.7 32.4251 109.375 29.9751 109.8 27.5001L113.175 28.4751C112.325 30.4751 111.125 32.7501 109.85 34.5001C110.5 34.4751 111.15 34.4251 111.775 34.3751C112.125 33.6001 112.5 32.7501 112.875 31.8251L115.8 33.2251C114.55 35.6251 112.475 38.2501 110.575 40.0751C111.45 39.9751 112.325 39.8501 113.2 39.7001C113.025 39.1251 112.85 38.6001 112.675 38.0751L113.8 37.5001C114.65 38.4251 115.35 39.5251 115.875 40.7001V34.3001H118.7V41.4251H119.85V32.6001H114.85V30.8501H119.85V27.6001H123.225V30.8501H128.4V32.6001H123.225V41.4251H124.375V34.3001H127.25V43.1001H123.225V45.8751C123.225 47.0001 123.575 47.1751 125.175 47.1751C126.8 47.1751 126.925 46.8751 126.95 43.8251H128.35ZM113.55 42.6001C114.775 43.8001 116.1 45.7501 116.75 47.1001L114.325 48.3501C113.85 46.7001 113.175 44.8001 112.475 43.1751L113.55 42.6001ZM110.425 43.6001L111.675 43.3251C112.5 45.1751 113.2 47.6501 113.525 49.2751L110.675 49.8001C110.675 48.0751 110.625 45.6751 110.425 43.6001ZM108.325 43.5751L109.7 43.7251C109.825 46.3501 109.575 49.0501 109.125 50.6251L106.125 49.4501C107.2 47.8001 107.875 45.9251 108.325 43.5751ZM149.775 29.5501H154.575V31.2501H149.775V33.6251H146.35V31.2501H140.775V33.6251H137.35V31.2501H132.6V29.5501H137.35V27.5501H140.775V29.5501H146.35V27.5501H149.775V29.5501ZM145.475 42.5251V44.1751H154.575V45.8751H145.475V50.8501H141.725V45.8751H132.6V44.1751H141.725V42.7751L141.3 43.1751C140.65 42.1751 139.975 41.2751 139.25 40.4001C137.925 41.9251 136.225 43.1751 134.25 44.0251L133.5 42.9001C135.95 40.7251 137 38.5251 137.65 36.1751H133.225V34.5251H143.525C142.7 33.8251 141.75 33.0751 141.05 32.5251L141.625 31.3751C143.075 31.6751 144.725 32.3001 146.15 33.0251L145.075 34.5251H153.9V36.1751H147.05L150.05 37.0001C149.8 37.5751 149.475 38.1251 149.125 38.6501C150.6 39.2251 152.425 40.1501 153.7 41.1001L151.375 43.6501C150.45 42.4001 149.225 41.0501 148.125 39.9501C147.2 40.9501 146.125 41.8501 144.975 42.5251H145.475ZM140.275 39.0501C141.45 39.5751 142.525 40.2251 143.525 41.0501L141.975 42.5251H144.175L143.6 41.8751C145.05 40.1501 145.9 38.2001 146.375 36.1751H138.325L141.325 37.0001C141.05 37.7001 140.7 38.4001 140.275 39.0501ZM171.925 47.5751H180.6V49.5251H158.9V47.5751H168.1V41.9001H161.425V40.0751H168.1V35.2251H163.925C162.8 37.3251 161.4 39.2251 159.85 40.6501L158.725 39.7251C160.7 36.4001 161.875 32.6751 162.55 28.3501L166.25 29.1001C165.925 30.5501 165.425 32.0251 164.8 33.4251H168.1V27.5751H171.925V33.4251H178.975V35.2251H171.925V40.0751H178.575V41.9001H171.925V47.5751ZM206.75 36.7001H200.4V40.4751H205.525V50.6001H202.05V48.9751H195.2V50.6501H191.75V40.4751H196.825V36.7001H190.675V34.9251H196.825V31.6751C194.8 31.8501 192.975 31.9751 191.75 31.9751L191.5 30.5001C194.675 30.0251 200.075 28.7251 203.15 27.2501L205.925 30.0751C204.4 30.5501 202.425 30.9251 200.4 31.2251V34.9251H206.75V36.7001ZM191 30.4751L188.475 33.0251C187.3 31.4001 185.875 29.6001 184.925 28.4251L185.875 27.2751C187.4 27.9251 189.55 29.2251 191 30.4751ZM190.175 36.0751L187.65 38.6501C186.55 37.0251 185.075 35.1251 184.075 33.9001L184.975 32.6751C186.475 33.3251 188.775 34.8001 190.175 36.0751ZM184.35 48.5751C185.875 46.0751 187.525 42.5501 189.025 39.1001L190.4 39.5251C189.9 43.0501 188.975 47.7751 188.05 50.3751L184.35 48.5751ZM202.05 42.1751H195.2V47.2501H202.05V42.1751Z" fill="#0A4D92"/></g><defs><filter id="filter0_d_50_449" x="0" y="0" width="212.75" height="57.125" filterUnits="userSpaceOnUse" color-interpolation-filters="sRGB"><feFlood flood-opacity="0" result="BackgroundImageFix"/><feColorMatrix in="SourceAlpha" type="matrix" values="0 0 0 0 0 0 0 0 0 0 0 0 0 0 0 0 0 0 127 0" result="hardAlpha"/><feOffset dx="2" dy="2"/><feGaussianBlur stdDeviation="2"/><feComposite in2="hardAlpha" operator="out"/><feColorMatrix type="matrix" values="0 0 0 0 1 0 0 0 0 1 0 0 0 0 1 0 0 0 0.25 0"/><feBlend mode="normal" in2="BackgroundImageFix" result="effect1_dropShadow_50_449"/><feBlend mode="normal" in="SourceGraphic" in2="effect1_dropShadow_50_449" result="shape"/></filter></defs></svg>