<svg width="369" height="98" fill="none" xmlns="http://www.w3.org/2000/svg"><path d="M38.2951 28.1701C40.8601 38.3401 39.4651 41.0401 35.7301 41.3101C32.7151 41.4901 29.8801 41.4901 26.8651 41.3101C22.0951 41.0401 20.8801 40.3201 20.8801 35.4601V27.9901H18.9001C17.6401 35.0551 12.6901 41.2201 0.810059 43.0201L5.87627e-05 40.5451C8.50506 37.6201 11.6101 33.1651 12.6001 27.9901H5.89506V2.38512H33.7051V27.9901H27.1351V33.5701C27.1351 35.3701 27.5401 35.6851 28.8901 35.8201C30.6001 35.9551 31.9951 35.9101 33.7051 35.7751C35.3701 35.6851 35.7301 34.8751 35.6401 28.1701H38.2951ZM12.0601 5.67012V9.81012H27.4501V5.67012H12.0601ZM12.0601 12.9601V17.2351H27.4501V12.9601H12.0601ZM12.0601 20.3851V24.7501H27.4501V20.3851H12.0601ZM61.8301 8.19012V11.2951H46.8001V8.19012H52.6051C51.5251 5.67012 50.3551 3.37512 49.3201 1.57512L51.2101 0.135115C53.5501 1.66511 55.9801 3.87012 57.7801 6.43511L55.0351 8.19012H61.8301ZM83.2951 32.4901C82.1251 34.4701 80.5501 36.4951 78.9301 38.2051H86.4901V41.4001H61.8301V38.2051H67.9951C67.0951 35.9551 66.1051 33.6601 65.1151 31.8601L66.9601 30.5101H64.5751V20.2501H83.2051C82.3051 19.5301 81.3601 18.6751 80.4601 17.6851H66.8251C65.3401 18.9901 63.6751 20.2051 61.8751 21.2401L60.4351 19.1701C62.8201 17.1451 64.5751 15.0751 65.8351 12.9151C64.4401 11.3851 62.9551 9.90012 62.0551 9.04512L63.1801 7.38012C64.3501 7.78512 65.9701 8.55012 67.5001 9.40512C67.9051 8.32511 68.2201 7.24512 68.4901 6.16512H61.7401V3.37512H67.9501L69.2101 2.29511L73.9351 4.05012C73.7551 3.10511 73.6201 2.07011 73.4851 1.03511L75.9601 0.630114C76.3651 2.29511 76.9051 3.78012 77.4901 5.13012C78.2551 4.18512 79.0651 3.01512 79.8751 1.66511L83.4301 4.63512C82.1251 5.71512 80.3701 6.79512 78.7951 7.60512C79.3351 8.50511 79.9201 9.36011 80.5951 10.1701C81.6751 8.95511 82.7551 7.65012 83.7001 6.34512L87.2101 9.58512C85.9051 10.4851 84.1051 11.4751 82.4851 12.1951C84.1501 13.7701 86.1301 15.1201 88.3351 16.3801L84.9601 21.5101C84.5101 21.2401 84.0151 20.8801 83.5651 20.5201V30.5101H78.4801L83.2951 32.4901ZM69.6601 14.7151H78.1651C76.5901 12.2851 75.1951 9.31512 74.2951 5.71512C73.3501 9.09012 71.8201 12.1051 69.6601 14.7151ZM60.7501 17.5051H48.1051V14.5351H60.7501V17.5051ZM60.6151 23.4451H48.1051V20.4301H60.6151V23.4451ZM70.3351 23.1751V27.5851H77.6251V23.1751H70.3351ZM47.9251 42.2101V26.5951H60.7501V41.7151H55.7551V38.9251H52.9201V42.2101H47.9251ZM52.9201 29.5201V36.0001H55.7551V29.5201H52.9201ZM67.3201 30.5101C69.4351 32.0851 71.6851 34.1551 73.2601 36.2251L70.3801 38.2051H75.4651C76.3651 35.8651 77.1301 33.0751 77.6701 30.5101H67.3201ZM119.115 5.98512H133.38V9.04512H102.285V18.5401C102.285 20.9701 102.105 23.4451 101.79 25.9201C104.76 20.6551 106.56 14.2201 107.415 9.18012L113.535 10.7551C112.815 13.2301 111.915 15.7051 110.79 18.0901V42.3901H104.805V27.3151C104.085 28.1251 103.275 28.8901 102.465 29.5651L101.385 28.3951C100.305 34.2451 98.1901 39.5551 94.9501 42.4801L93.0601 41.0851C95.8051 35.5051 95.9851 28.6651 95.9851 18.0451V5.98512H115.38C112.635 4.63512 109.665 3.33011 107.505 2.43012L108.045 0.0451165C111.465 0.270116 117.18 1.26011 120.69 2.47511L119.115 5.98512ZM128.43 10.3051V17.0101H133.2V20.0251H128.43V37.0351C128.43 42.6151 123.39 44.8651 114.795 40.0951L115.38 37.6651C121.635 38.6551 122.355 38.1601 122.355 35.2801V20.0251H112.005V17.0101H122.355V10.3051H128.43ZM121.275 30.8701L116.28 33.5251C115.335 30.3301 113.805 26.2801 112.41 23.0401L114.525 21.8701C117.27 24.6601 119.79 28.1251 121.275 30.8701ZM180 29.6551C181.845 40.0951 180 43.4701 176.13 42.3451C173.52 41.5801 171.585 39.5551 170.235 36.1351C167.49 39.0151 164.205 41.2201 160.2 42.7051L159.12 40.4551C163.35 38.1151 166.455 35.1451 168.885 31.4101C167.85 26.5051 167.355 19.8901 167.175 11.3401H159.705V17.0101H166.59C166.68 23.4451 166.59 28.3951 166.365 31.0501C166.05 34.6951 162.81 35.9101 158.58 33.5251L159.03 31.2301C161.28 31.5001 161.685 31.2751 161.775 30.1051C161.955 28.0351 162.135 24.8851 161.955 19.9351H159.705V20.0251C159.705 31.4101 156.87 38.4301 150.66 42.7501L148.995 40.8601C151.74 37.5751 153.27 34.4701 153.81 27.6301C150.615 30.7801 146.25 33.6601 141.975 35.8201L139.635 29.7451C141.03 29.3851 142.47 28.9801 143.865 28.5301V15.6151H140.22V12.6001H143.865V1.66511H149.85V12.6001H153.27V15.6151H149.85V26.4151C150.885 26.0101 151.875 25.6051 152.865 25.1551L153.9 26.8651C154.035 24.9751 154.08 22.8601 154.08 20.3851V8.32511H167.13C167.085 5.98512 167.085 3.46512 167.085 0.855114H172.53V1.93512L174.15 0.675116C176.31 2.25011 178.425 4.14011 180.135 6.34512L177.435 8.32511H180.27V11.3401H172.575C172.62 15.6151 172.755 19.4401 173.025 22.6801C173.88 20.1151 174.645 17.2801 175.365 14.1751L180.45 15.7951C178.785 21.8251 176.76 26.9551 174.105 31.1401C174.735 33.7951 175.5 35.3251 176.49 35.6401C177.165 35.8651 177.435 35.0101 177.48 29.6551H180ZM172.53 2.56512C172.485 4.59011 172.53 6.48012 172.53 8.32511H175.725C174.69 6.43511 173.655 4.45512 172.53 2.56512ZM203.13 18.0001V14.8501H211.455V9.72012H204.615V6.61512H211.455V0.945116H217.755V6.61512H225.045V9.72012H217.755V14.8501H226.44V18.0001H203.13ZM188.64 37.6201V3.73511H202.05V36.4051H196.83V33.4801H193.995V37.6201H188.64ZM193.995 16.7401H196.83V6.66011H193.995V16.7401ZM209.16 40.2301L209.745 37.6651C215.775 38.4301 216.27 37.8451 216.27 35.8201V25.7401H202.995V22.5901H216.27V18.9451H222.57V22.5901H226.935V25.7401H222.57V37.0801C222.57 42.8401 216.855 44.1001 209.16 40.2301ZM193.995 30.5551H196.83V19.5751H193.995V30.5551ZM209.43 36.1801C207.99 33.4351 206.1 30.5101 204.525 28.2151L206.415 26.4601C208.935 27.9001 211.95 30.4651 213.975 32.8051L209.43 36.1801ZM260.46 14.7601H272.295V36.9451C272.295 43.5151 265.815 44.5501 258.84 40.5451L259.515 37.9351C264.78 38.6101 266.085 38.2501 266.085 35.4151V17.9101H242.145V42.6151H235.935V14.7601H243.36C241.56 11.1601 238.95 6.52512 237.015 3.64512L238.95 1.93512C242.28 4.14011 246.78 8.46012 248.985 11.5201L244.44 14.7601H250.56V0.720116H257.13V14.7601H260.325L258.525 12.7351C260.955 9.72012 263.115 5.98512 265.005 1.48511L271.035 4.95012C268.605 8.37012 264.42 12.6001 260.46 14.7601ZM262.755 21.1951V34.6501H245.43V21.1951H262.755ZM256.86 31.6801V24.1651H251.28V31.6801H256.86ZM320.49 29.2501C322.38 38.7451 320.94 43.1101 317.205 42.8401C310.275 42.4351 310.23 24.8851 310.14 11.9701V5.71512H289.125V15.4801C289.125 28.8001 287.685 37.1701 282.375 42.9301L280.26 41.4451C283.05 35.4151 283.23 30.8701 283.23 15.4801V2.65512H316.035V11.8351C315.99 26.1901 316.395 35.2801 317.565 35.4601C318.015 35.5501 318.015 33.8851 317.97 29.2501H320.49ZM304.695 30.4201L307.305 29.7001C309.195 32.7151 310.86 36.6301 312.075 40.5001L306.9 41.7601C306.72 40.5001 306.495 39.0151 306.18 37.4401C300.78 39.5551 293.4 41.1301 288.765 41.6251L287.64 35.8201C290.565 35.7751 293.715 35.5951 296.775 35.3251V28.7551H290.385V15.6601H296.82V11.6101H290.115V8.64012H309.195V11.6101H302.715V15.6601H309.06V28.7551H302.67V34.7851L305.595 34.3801C305.28 32.8951 304.965 31.5001 304.695 30.4201ZM295.065 25.8751H297.18V18.5401H295.065V25.8751ZM302.265 18.5401V25.8751H304.38V18.5401H302.265ZM351.27 25.0651C355.86 29.4301 361.395 32.2651 368.28 34.1551L365.22 40.3651C361.035 39.1051 354.87 34.8751 350.865 29.5651V42.4801H344.295V30.4651C340.515 34.3801 334.17 38.6101 328.14 40.3651L327.195 38.0251C333.54 34.6501 337.995 30.8251 341.91 25.0651H328.455V21.7801H344.295V17.6401H347.175C346.185 14.4451 344.7 10.9801 343.395 8.41512L344.7 7.56012C341.145 7.78512 337.68 7.83012 334.53 7.78512C336.96 9.36011 340.425 13.4101 342.135 16.4251L336.645 19.3051C335.475 15.7501 333.72 11.8801 332.37 9.18012L334.44 7.78512C332.64 7.74012 330.885 7.65012 329.31 7.51512L329.04 5.08512C340.695 4.50012 351.945 2.65512 360.27 0.000114441L365.13 4.95012C363.195 5.40011 361.035 5.80511 358.785 6.16512L364.5 8.46012C362.43 12.5101 358.965 17.2351 355.41 20.2501L353.385 18.6751C355.41 15.1201 357.03 10.4401 358.155 6.25511C354.375 6.84011 350.235 7.24512 346.14 7.51512C348.57 9.49512 351.36 12.7801 352.71 15.3001L348.12 17.6401H350.865V21.7801H366.615V25.0651H351.27ZM39.5101 60.3901H23.8051C22.5901 62.6851 21.0151 65.1151 19.4401 67.1401H35.1001V96.2101H28.5751V92.4751H11.2951V96.3001H4.77006V67.1401H15.4351C15.7051 64.9351 15.9751 62.5951 16.1551 60.3901H0.450059V57.0151H39.5101V60.3901ZM28.5751 77.6701V70.3351H11.2951V77.6701H28.5751ZM28.5751 89.2351V80.8201H11.2951V89.2351H28.5751ZM53.7751 65.8351C51.7051 67.1401 49.6351 68.1751 47.7451 68.9851L46.5751 66.7351C51.1201 63.6301 55.2601 59.1751 57.9151 54.2701L63.6301 56.9251C62.5051 58.5001 61.2451 59.8951 59.8951 61.2001V70.4701H53.7751V65.8351ZM70.8301 70.1101C66.4651 69.7951 64.7101 69.0301 64.7101 65.5201V55.0351H70.8301V60.0301C73.9351 58.7251 76.9051 57.0151 79.4251 54.8551L84.0151 58.6351C79.6501 60.7951 74.8801 62.1451 70.8301 62.8201V63.4051C70.8301 64.7101 71.1451 65.2051 73.3051 65.3401C75.0151 65.4751 77.7151 65.5201 80.0101 65.2951C81.9901 65.1151 82.4851 64.5751 82.5301 60.7951H84.8251C86.8501 67.9501 85.9051 69.7951 80.2801 70.1101C77.7151 70.2901 73.3051 70.2901 70.8301 70.1101ZM71.7301 88.8301C76.6351 89.4601 82.1701 90.5401 86.2651 91.8451L83.8801 97.2901C79.6051 95.2201 73.9351 93.1051 68.8951 91.2601L69.6151 88.8301H62.2801L65.6101 91.6201C61.4251 94.2751 54.0001 96.4351 48.2851 96.8851L47.6101 94.4101C52.2451 92.9251 56.1601 91.0801 59.5351 88.8301H51.4801V71.5051H82.0801V88.8301H71.7301ZM57.7801 74.3851V76.4551H75.7801V74.3851H57.7801ZM57.7801 79.1551V81.1801H75.7801V79.1551H57.7801ZM57.7801 83.8801V85.9951H75.7801V83.8801H57.7801ZM133.245 59.7151V62.7751H122.58L125.145 63.7201C123.795 65.7001 122.445 67.3201 121.005 68.6701H131.22V91.1251C131.22 96.9751 125.775 97.8751 118.62 94.8601L119.07 92.2051C124.605 92.7001 125.145 92.5201 125.145 90.0451V78.8401H121.5C116.28 78.8401 115.11 78.0751 115.11 74.3401V71.7301H112.59C112.005 75.3301 109.395 78.3001 105.66 80.0101H122.445V90.2701H105.03V80.2801C104.175 80.6401 103.23 80.9551 102.285 81.1801V96.3901H96.1201V68.6701H105.48C104.67 66.8251 103.725 65.0251 102.735 63.3601L103.455 62.7751H93.8701V59.7151H112.815C110.79 58.4551 108.585 57.1951 106.92 56.2951L107.82 53.9551C111.24 54.3151 115.29 55.2151 118.575 56.6101L116.865 59.7151H133.245ZM116.865 68.6701C117.63 66.8251 118.305 64.8001 118.845 62.7751H106.65C108.405 64.0801 109.935 65.7001 111.15 67.2751L108.855 68.6701H116.865ZM102.285 78.1651C105.435 76.5451 106.74 74.8351 107.145 71.7301H102.285V78.1651ZM125.145 74.9701V71.7301H120.105V73.0351C120.105 74.4301 120.6 74.9701 122.535 74.9701H125.145ZM110.61 82.8901V87.4351H116.865V82.8901H110.61ZM142.2 56.1601H178.605V96.5251H172.665V94.7701H148.14V96.6601H142.2V56.1601ZM172.665 59.2651H148.14V79.9651C150.165 78.2551 152.055 76.2301 153.675 73.7551H149.31V70.9651H155.25C155.52 70.4251 155.745 69.8851 156.015 69.3451H150.03V66.6451H152.64C151.83 64.8451 151.02 63.1351 150.075 61.5151L151.83 60.2551C153.72 61.7851 155.385 63.5851 156.555 65.3401L154.44 66.6451H157.005C157.635 64.5301 158.13 62.2351 158.4 59.7151L163.575 60.3901C163.17 62.6401 162.585 64.7101 161.91 66.6451H163.53L163.44 66.5551C164.565 64.7551 165.6 62.4151 166.41 60.2101L170.505 62.2801C169.425 63.8551 167.895 65.4751 166.455 66.6451H170.775V69.3451H160.83L160.02 70.9651H171.54V73.7551H166.41C168.3 75.3751 170.55 76.5001 172.665 77.2201V59.2651ZM163.575 73.7551H158.355C157.86 74.5201 157.32 75.2401 156.735 75.9151H164.79C164.34 75.2401 163.935 74.5201 163.575 73.7551ZM148.14 91.6651H172.665V78.7051L171 81.8551C169.605 81.1351 168.255 80.1451 167.04 78.8401C166.995 79.9651 166.905 80.9551 166.815 81.8551C166.455 85.6351 162.045 85.6801 158.445 83.6101L158.94 81.4051C162 81.9901 162.315 81.6751 162.405 80.7301C162.45 80.1451 162.495 79.4701 162.495 78.5701H157.41V84.3751C157.41 85.8601 157.86 86.2201 159.525 86.3101C161.685 86.4901 163.89 86.4451 166.095 86.2201C168.03 85.9501 168.3 85.5451 168.345 82.5301H170.325C171.9 87.7051 170.955 89.9101 166.995 90.1351C163.71 90.3151 160.38 90.3151 157.41 90.1351C153.63 89.9101 152.64 89.1451 152.64 85.7251V79.9651C151.515 80.8651 150.345 81.6751 149.085 82.4401L148.14 81.0901V91.6651ZM219.465 85.9951C216.81 86.5801 213.84 87.0751 210.735 87.4351V91.9351C210.735 96.7501 205.425 97.8301 199.35 94.7251L199.98 92.4301C204.03 93.0151 204.57 92.8351 204.57 90.7651V88.0651L200.295 88.3351L202.86 90.3601C198.54 93.4651 193.005 95.3101 188.28 96.0301L187.56 93.6451C191.295 92.2951 194.13 90.8101 197.19 88.4701C194.715 88.5151 192.33 88.5601 190.125 88.5601L189.225 84.0601C191.97 84.2401 194.67 84.3751 197.325 84.4651C199.305 83.8351 201.375 83.0251 203.355 82.0801C200.52 82.4401 197.64 82.6201 194.67 82.7101L194.13 78.5701C196.155 78.7501 198.09 78.8851 199.98 78.9751C200.97 78.4351 202.05 77.7601 203.085 76.9951C201.69 77.5351 199.665 77.3101 196.965 76.1851L197.415 74.2051C199.98 74.4751 200.745 74.4301 201.06 73.7101H193.05C192.87 74.2951 192.735 74.8801 192.555 75.4651L188.235 74.6551C188.775 72.7201 189.27 70.6951 189.72 68.6251H187.29V66.1501H190.215L190.845 62.8201C189.945 63.5401 189 64.1701 188.1 64.6201L186.795 62.9551C189.315 60.3001 190.8 57.5101 191.925 54.0451L196.65 55.1701C196.425 55.7101 196.155 56.2501 195.84 56.7901H209.115V59.5801H193.995C193.635 60.0301 193.275 60.4801 192.915 60.8851H207C206.91 62.4601 206.775 64.3051 206.595 66.1501H209.61V68.6251H206.325C206.235 69.5701 206.1 70.4701 206.01 71.2801H208.35V73.7101H205.605C205.47 74.4301 205.2 75.0601 204.885 75.5551C205.515 75.0151 206.1 74.4301 206.64 73.8001L210.015 76.4101C208.62 77.4001 206.64 78.3451 204.75 79.1551H208.8C210.87 77.8951 212.805 76.5001 214.47 75.1051L219.15 77.9401C215.955 80.3251 211.455 82.5751 205.47 84.5101C209.475 84.4201 213.39 84.1951 217.17 83.8351C216.45 83.1601 215.685 82.5301 214.965 81.9451L216.27 79.9201C219.285 81.0901 223.29 83.4751 225.495 85.2301L222.3 88.8751C221.445 87.9751 220.5 86.9851 219.465 85.9951ZM209.205 66.0151L207.585 64.4851C209.34 61.9201 210.87 58.3201 211.59 54.1801L216.405 55.2601C216.09 56.2951 215.73 57.3301 215.28 58.2751H225.72V61.0651H223.155C222.615 63.9901 221.445 66.6901 219.735 68.9851C221.625 70.2451 223.92 71.2351 226.845 72.1351L224.415 77.1301C221.355 75.8701 218.79 74.2051 216.765 72.1351C214.785 73.7551 212.4 75.0151 209.655 75.7801L208.665 73.5751C211.05 72.3151 212.94 70.9201 214.425 69.3001C213.3 67.6351 212.4 65.7901 211.77 63.7201C210.96 64.6201 210.105 65.4301 209.205 66.0151ZM218.295 61.0651H213.75C213.705 61.2001 213.615 61.3351 213.525 61.4701C214.47 63.3601 215.46 64.8901 216.63 66.1951C217.395 64.7101 217.935 63.0001 218.295 61.0651ZM195.3 63.3151C195.165 64.0801 194.985 65.0701 194.76 66.1501H199.53C198.405 65.6551 197.19 65.2051 196.065 64.7551L196.47 63.3151C197.955 63.4951 199.71 63.8101 201.6 64.5301L200.88 66.1501H202.185L202.455 63.3151H195.3ZM194.265 68.6251C194.085 69.4801 193.86 70.3801 193.635 71.2801H198.27C197.145 70.7401 195.975 70.2451 194.94 69.7951L195.345 68.6251H194.265ZM201.555 71.2801C201.69 70.4701 201.825 69.5701 201.915 68.6251H196.875C198.135 68.9401 199.53 69.3451 200.835 69.8851L200.16 71.2801H201.555ZM211.815 89.5501L212.715 87.2551C217.125 88.0201 222.3 89.8651 226.035 91.8901L223.2 96.4801C219.69 93.9601 216.09 91.8001 211.815 89.5501ZM264.15 58.2301H273.96V61.2901H264.15V64.7101H258.03V61.2901H249.84V64.7101H243.72V61.2901H234V58.2301H243.72V54.8551H249.84V58.2301H258.03V54.8551H264.15V58.2301ZM266.94 68.6251V72.7651H273.78V75.7351H266.94V80.1451H272.25V83.0701H257.085V86.0851H270.54V89.0551H257.085V96.6151H250.65V89.0551H237.33V86.0851H250.65V83.0701H235.665V80.1451H240.93V75.7351H234.09V72.7651H240.93V68.6251H236.655V65.7451H271.305V68.6251H266.94ZM250.65 68.6251H246.735V72.7651H250.65V68.6251ZM261.135 68.6251H257.085V72.7651H261.135V68.6251ZM246.735 80.1451H250.65V75.7351H246.735V80.1451ZM257.085 80.1451H261.135V75.7351H257.085V80.1451ZM320.4 91.8451V94.8151H288.09V96.3451H282.195V56.0251H319.365V59.0401H288.09V68.0401L289.215 66.8701C291.33 68.0401 293.31 69.5251 295.2 71.5951L291.645 74.8351C290.385 72.6301 289.26 70.8301 288.09 69.0751V87.5701C290.07 84.0151 291.96 79.8751 293.175 76.7251L295.29 77.3551C294.84 81.1801 293.94 86.2651 292.59 90.7201L288.09 88.6051V91.8451H320.4ZM303.615 90.5401H298.035V74.6101C297.405 75.3301 296.73 76.0051 296.055 76.6351L294.21 74.9701C297.135 70.2451 299.07 65.2951 300.33 59.3101L305.73 60.9751C305.19 62.6401 304.425 64.4401 303.57 66.1951H308.88C307.935 64.1701 307.035 62.5501 306.18 61.0651L307.89 59.6251C309.915 60.9751 311.625 62.4151 313.425 64.6201L311.175 66.1951H318.24V69.0751H312.165V72.2701H316.845V75.0151H312.165V78.4801H316.845V81.2701H312.165V85.1851H318.555V88.0651H303.615V90.5401ZM294.435 67.5901C292.905 65.3851 291.06 63.0001 289.62 61.2901L291.015 59.5351C293.355 60.5701 295.875 62.1451 297.9 64.1251L294.435 67.5901ZM303.615 69.0751V72.2701H306.855V69.0751H303.615ZM303.615 75.0151V78.4801H306.855V75.0151H303.615ZM303.615 81.2701V85.1851H306.855V81.2701H303.615ZM328.68 70.3351C329.805 70.3351 330.885 70.3351 331.965 70.2901V59.2651H329.13V56.3851H350.415V58.2751H359.595L361.035 57.3751L365.94 59.9401C364.815 62.8201 363.285 65.4301 361.215 67.6351C363.105 68.5351 365.175 69.1651 367.29 69.7051L364.995 74.9251C362.52 73.9801 359.865 72.6301 357.57 70.7401C355.23 72.2701 352.44 73.4851 349.11 74.2051L348.3 71.8201C350.955 70.7401 353.07 69.4351 354.825 67.9501C353.295 66.1051 352.035 63.9001 351.36 61.2451H349.515V59.2651H347.895V74.9701H342.18V72.5851C338.265 73.9351 333.765 74.7901 329.76 75.3301L328.68 70.3351ZM337.59 59.2651V61.1101H342.18V59.2651H337.59ZM359.685 61.2451H354.105C355.05 62.8651 356.175 64.1251 357.435 65.2051C358.38 63.9901 359.1 62.6401 359.685 61.2451ZM337.59 63.5401V65.3851H342.18V63.5401H337.59ZM337.59 67.9951V70.0201C339.075 69.9301 340.605 69.7951 342.18 69.6151V67.9951H337.59ZM367.605 91.4401L363.15 94.9501C361.89 92.4751 360.54 90.1801 359.1 88.1101C357.165 91.3501 354.645 93.8701 351.855 95.1751L350.685 93.6001V96.4351H344.43V92.2501L340.335 94.6351C339.57 92.2951 338.76 90.3151 337.815 88.2901C335.475 91.6201 332.415 94.1401 329.265 95.6701L327.87 93.5551C331.425 90.2251 333.945 85.5451 335.025 79.9651L341.055 81.4501C340.695 82.7101 340.245 83.9251 339.705 85.0951C341.595 86.8051 343.215 88.6951 344.43 90.4951V79.5151C339.165 79.7401 334.125 79.7401 330.705 79.5151L330.39 77.0851C340.92 76.7251 351.81 75.4201 358.65 72.6751L363.42 77.0851C360.315 78.0301 355.635 78.6601 350.685 79.1101V92.7901C353.52 89.6851 355.185 85.4101 356.085 79.4251L362.115 80.7751C361.755 82.3051 361.26 83.7451 360.675 85.1401C363.33 86.8951 366.03 89.3701 367.605 91.4401Z" fill="#C9A063"/></svg>