<svg width="761" height="53" viewBox="0 0 761 53" fill="none" xmlns="http://www.w3.org/2000/svg">
<g filter="url(#filter0_d_1_541)">
<path d="M30.44 25.1302H36.74V44.3902H30.44V40.9702H8.255V44.3452H2V25.1302H8.255V37.6852H16.04V22.5202H3.98V6.45519H10.19V19.2802H16.04V2.99019H22.7V19.2802H28.73V6.41019H34.94V22.5202H22.7V37.6852H30.44V25.1302ZM82.415 24.6802H86.105V27.6502H82.415V39.4852C82.415 44.5252 77.33 46.9102 68.195 42.2752L68.825 39.8002C75.62 40.7452 76.25 40.2502 76.25 37.1002V27.6502H65.855C68.87 29.4502 72.245 32.3302 74.18 34.5352L69.725 38.0902C68.15 35.3452 65.855 31.5652 64.055 29.2702L65.63 27.6502H62.48V24.6802H76.25V18.9652C72.29 21.6652 67.655 23.4202 62.705 24.1852L62.075 21.8452C64.46 21.1252 66.575 20.3152 68.42 19.3252C67.475 17.4802 66.62 15.9502 65.54 14.3302C64.55 15.0052 63.515 15.5902 62.57 16.0402L61.49 14.3302V44.6602H55.91V27.5152H53.885C53.615 34.4002 52.4 40.6102 47.405 44.7952L45.65 43.2652C48.125 39.1252 48.665 34.3102 48.665 27.5152H46.28V24.5452H55.91V18.5152H53.39V21.0352H47.99V3.44019H53.39V15.5902H55.91V2.63019H61.49V13.7902C64.685 11.2252 68.015 6.95019 70.4 2.04519L75.71 3.93519C75.35 4.52019 74.99 5.10519 74.585 5.64519H78.905L80.57 4.83519L85.925 7.62519C83.765 12.3502 80.39 16.1302 76.34 18.9202H82.415V24.6802ZM78.95 8.57019H72.29C72.065 8.79519 71.885 8.97519 71.705 9.20019C73.37 10.0552 74.99 11.2252 76.475 12.5752C77.42 11.3602 78.23 10.0102 78.95 8.57019ZM67.745 12.8002C69.275 13.9702 70.67 15.3202 72.065 17.0302L73.415 15.9502C72.2 14.1502 70.985 12.7102 69.59 11.2702C68.96 11.8102 68.33 12.3052 67.745 12.8002ZM92.36 42.0052C103.205 34.4902 108.605 22.9702 109.685 8.43519H99.155V5.06019H116.435C117.425 20.9452 123.23 31.0702 133.805 38.0002L128.675 44.6152C121.52 39.1702 116.255 28.0552 115.085 17.8852C114.005 24.4102 107.705 38.8102 93.845 44.6602L92.36 42.0052ZM158.285 5.37519H177.77V44.0752H171.65V40.5652H164.36V44.3002H158.285V26.6602L155 29.1352C154.235 27.3352 153.29 25.2202 152.3 23.2402V44.3902H146.27V27.5152C144.74 30.6202 142.715 33.5902 140.96 35.4802L139.16 33.9052C141.23 30.1702 144.245 23.1502 145.595 14.8252H139.97V11.8552H146.27V2.72019H152.3V11.8552H157.52V14.8252H152.3V17.8402C154.505 19.7302 156.71 22.1602 158.285 24.1402V5.37519ZM171.65 15.6352V8.34519H164.36V15.6352H171.65ZM171.65 26.1652V18.4702H164.36V26.1652H171.65ZM171.65 37.6402V29.0452H164.36V37.6402H171.65ZM217.505 5.69019H226.28V8.52519H217.505V11.6752H211.34V8.52519H201.845V11.6752H195.635V8.52519H186.86V5.69019H195.635V2.94519H201.845V5.69019H211.34V2.94519H217.505V5.69019ZM209.765 20.0452V21.8002H226.19V24.5452H186.95V21.8002H203.375V20.0452H191.72V17.3452H203.375V15.6802H189.65V12.9352H203.375V9.96519H209.765V12.9352H223.49V15.6802H209.765V17.3452H221.42V20.0452H209.765ZM192.08 44.3002V26.1652H220.97V39.2152C220.97 43.7602 216.965 46.0552 208.505 42.7252L208.955 40.3852C214.265 40.9702 214.535 40.5202 214.535 38.4052V38.0452H198.515V44.3002H192.08ZM214.535 29.0002H198.515V30.8452H214.535V29.0002ZM198.515 35.3902H214.535V33.5002H198.515V35.3902ZM242.39 15.0502V10.4152H233.525V7.22019H242.39V2.90019H248.51V7.22019H258.365V2.90019H264.485V7.22019H273.215V10.4152H264.485V15.0502H258.365V10.4152H248.51V15.0502H242.39ZM258.14 31.2052C261.65 35.3002 266.735 37.1452 274.16 38.1802L271.505 44.6602C265.295 43.6252 257.42 38.7202 254.945 31.4752C252.38 38.5852 246.26 43.0402 234.2 44.6602L233.525 42.1402C242.3 39.5752 246.62 36.2002 248.645 31.2052H234.335V28.1002H239.15V17.2102H250.265V11.9452H256.475V17.2102H267.68V28.1002H272.675V31.2052H258.14ZM245.27 28.1002H249.59C250.085 25.8052 250.265 23.2402 250.265 20.3152H245.27V28.1002ZM261.56 20.3152H256.475V20.9002C256.475 23.5102 256.295 25.8952 255.845 28.1002H261.56V20.3152ZM292.925 8.07519L288.245 12.3502C286.715 9.83019 284.195 6.18519 282.62 4.20519L284.195 2.31519C287.255 3.75519 290.315 5.73519 292.925 8.07519ZM309.08 22.3402C310.79 29.4502 314.795 34.4452 321.005 38.3152L316.145 44.3452C312.275 40.9702 308.585 35.7502 307.055 27.9652C304.445 37.2802 298.19 42.2752 290.045 44.6602L289.01 42.4552C296.84 37.6402 300.44 32.3752 301.43 22.3402H292.115V19.1452H301.655C301.7 18.1102 301.7 17.0752 301.7 15.9502V10.2352C298.685 10.5052 295.94 10.6402 294.05 10.6402L293.69 8.12019C299.765 7.13019 308 4.79019 312.635 2.36019L318.305 7.67019C315.83 8.43519 312.185 9.06519 308.36 9.56019V17.3452C308.36 17.9752 308.36 18.5602 308.315 19.1452H319.565V22.3402H309.08ZM290.63 17.6602L286.535 22.4302C284.78 20.0452 281.36 16.0402 279.605 14.1952L280.865 12.1702C283.97 13.3402 287.75 15.4102 290.63 17.6602ZM288.245 23.4202L290.45 24.1402C289.55 31.0702 287.93 39.4852 286.76 43.5802L279.965 40.5202C282.71 36.0652 285.95 29.2252 288.245 23.4202ZM350.255 38.3152H366.41V41.7802H327.35V38.3152H343.235V20.9002H330.185V17.5252H343.235V3.03519H350.255V17.5252H363.665V20.9002H350.255V38.3152ZM417.113 35.0752C421.163 36.1552 424.718 37.5502 428.408 39.5302L424.943 44.7052C421.838 41.9152 418.868 39.7552 415.673 37.4602L416.888 35.0752H410.228L414.278 38.0902C410.363 41.2402 404.918 43.5802 400.328 44.6152L399.338 42.3202C403.073 40.3852 405.683 38.6302 409.148 35.0752H403.703V11.9902H411.308C411.488 10.5502 411.578 8.93019 411.623 7.44519H403.478V4.52019H426.968V7.44519H418.013C416.978 9.06519 415.808 10.7302 414.818 11.9902H425.618V35.0752H417.113ZM402.623 7.89519H398.798V38.2252C398.798 43.4902 393.713 45.5152 386.603 41.4202L387.188 39.0802C391.868 39.8002 392.453 39.3952 392.453 37.0102V7.89519H387.278V4.97019H402.623V7.89519ZM409.823 14.9152V18.5602H419.498V14.9152H409.823ZM409.823 21.4402V25.2652H419.498V21.4402H409.823ZM409.823 28.1452V32.1052H419.498V28.1452H409.823ZM444.923 8.79519H457.973C455.993 7.26519 453.788 5.69019 452.168 4.56519L453.203 2.13519C456.443 2.76519 461.033 4.34019 464.003 6.00519L462.068 8.79519H472.598V11.8552H458.603C457.388 13.6552 455.903 15.6352 454.418 17.3902C458.018 17.3452 461.528 17.2102 464.363 17.0752C463.688 15.9502 463.058 14.9602 462.518 14.1952L464.228 12.5752C467.198 14.2852 470.393 17.2102 473.048 20.2702L468.098 23.8702C467.423 22.4752 466.613 21.0352 465.848 19.5952C460.268 21.1702 453.068 22.4302 446.543 23.1952L445.193 17.3002C446.858 17.3452 448.613 17.3902 450.368 17.3902C450.998 15.5002 451.538 13.5202 451.898 11.8552H444.923V8.79519ZM445.418 8.03019L440.828 12.4852C438.938 9.56019 437.093 6.81519 435.338 4.47519L437.048 2.54019C439.703 3.71019 442.808 5.64519 445.418 8.03019ZM444.473 18.3802L439.973 23.1952C438.038 20.3152 435.923 17.4802 433.808 14.9602L435.293 12.8902C438.353 14.1952 441.908 16.4902 444.473 18.3802ZM442.178 23.3302L444.563 24.0952C444.023 29.0902 442.043 38.4952 440.333 43.5352L433.538 40.4302C436.328 36.3352 440.018 28.7752 442.178 23.3302ZM473.588 33.1402C475.298 42.0952 474.443 43.4902 469.358 43.4902C463.373 43.4902 462.518 42.7252 462.518 38.7202V24.1402H468.188V36.8302C468.188 37.9552 468.368 38.2252 469.763 38.2252C471.068 38.2252 471.248 37.9102 471.248 33.1402H473.588ZM454.913 42.9952V24.2302H460.493V42.9952H454.913ZM442.223 42.5002C446.588 38.5402 447.443 35.4352 447.443 24.2752H453.068C453.068 36.4702 451.763 41.3302 443.438 44.5702L442.223 42.5002ZM487.223 22.8802V28.3702H481.418V20.0902H484.928C484.748 14.6452 484.658 9.92019 484.478 4.70019L488.213 5.46519C489.833 4.65519 491.768 3.44019 493.343 2.04519L496.493 5.46519C494.783 6.32019 492.263 7.04019 489.923 7.53519C489.968 8.21019 489.968 8.88519 490.013 9.51519H495.188V12.2602H490.058C490.103 13.0702 490.103 13.9252 490.148 14.7352H495.413V17.4352H490.193C490.238 18.2902 490.238 19.1902 490.238 20.0902H496.088L495.323 18.6502C496.673 17.8402 497.843 16.9852 498.878 15.9502C497.933 15.2302 496.988 14.5102 496.043 13.8352L496.988 12.0802C498.248 12.5302 499.508 13.1152 500.768 13.8352C501.398 12.9802 501.983 12.1252 502.568 11.1802L505.853 13.2952C505.268 14.0602 504.548 14.8702 503.783 15.6802C504.683 16.3102 505.583 16.9852 506.438 17.7052L504.233 20.0902H511.253L511.388 17.4802H506.573V14.7352H511.523C511.568 13.9252 511.613 13.1602 511.613 12.3502H506.618V9.60519H511.703C511.748 8.79519 511.793 7.94019 511.793 7.08519H506.258V4.20519H511.163L512.243 3.21519L517.463 4.38519C517.238 9.51519 516.923 14.9602 516.518 20.0902H520.298V28.2802H514.493V22.8802H487.223ZM495.548 10.1902C496.808 9.24519 497.978 8.16519 499.058 6.99519C498.068 6.1402 497.078 5.28519 496.178 4.61019L497.303 2.90019C498.473 3.39519 499.643 4.02519 500.813 4.74519C501.353 3.93519 501.848 3.12519 502.253 2.27019L505.763 4.11519C505.223 5.01519 504.548 5.87019 503.738 6.72519C504.638 7.44519 505.493 8.16519 506.303 8.88519L503.603 11.5852C502.883 10.7752 502.073 9.92019 501.218 9.06519C499.733 10.2352 498.113 11.2252 496.628 11.8552L495.548 10.1902ZM501.173 17.9302C500.003 18.7852 498.698 19.5502 497.348 20.0902H503.333C502.658 19.3702 501.938 18.6502 501.173 17.9302ZM520.343 32.6902V35.7052H504.953V39.2602C504.953 44.3902 499.463 46.5952 491.048 42.1852L491.543 39.7102C497.933 40.6102 498.518 40.2502 498.518 38.1352V35.7052H481.463V32.6902H498.518V29.2702L502.388 29.9002C503.783 29.0902 504.908 28.2802 506.123 27.2002H488.753V24.4102H507.293L508.868 23.6452L513.728 27.2902C511.073 29.1802 507.878 30.8452 504.953 31.7902V32.6902H520.343ZM553.283 7.94019H567.548V11.0002H536.453V20.4952C536.453 22.9252 536.273 25.4002 535.958 27.8752C538.928 22.6102 540.728 16.1752 541.583 11.1352L547.703 12.7102C546.983 15.1852 546.083 17.6602 544.958 20.0452V44.3452H538.973V29.2702C538.253 30.0802 537.443 30.8452 536.633 31.5202L535.553 30.3502C534.473 36.2002 532.358 41.5102 529.118 44.4352L527.228 43.0402C529.973 37.4602 530.153 30.6202 530.153 20.0002V7.94019H549.548C546.803 6.59019 543.833 5.28519 541.673 4.38519L542.213 2.00019C545.633 2.22519 551.348 3.21519 554.858 4.43019L553.283 7.94019ZM562.598 12.2602V18.9652H567.368V21.9802H562.598V38.9902C562.598 44.5702 557.558 46.8202 548.963 42.0502L549.548 39.6202C555.803 40.6102 556.523 40.1152 556.523 37.2352V21.9802H546.173V18.9652H556.523V12.2602H562.598ZM555.443 32.8252L550.448 35.4802C549.503 32.2852 547.973 28.2352 546.578 24.9952L548.693 23.8252C551.438 26.6152 553.958 30.0802 555.443 32.8252ZM607.913 32.8252H601.703V29.8102H596.798V33.6352H590.588V17.2102H585.683V37.8202H613.943V41.1502H585.683V44.4802H579.248V17.2102H574.343V13.7902H579.248V5.33019H585.683V13.7902H590.588V2.94519H596.798V13.7902H601.703V3.21519H607.913V13.7902H614.483V17.2102H607.913V32.8252ZM596.798 26.7052H601.703V17.2102H596.798V26.7052ZM661.823 27.7852L659.438 34.0852C656.243 33.1402 653.138 31.5202 650.438 29.3602V44.7052H644.318V26.8852H647.783C646.298 25.3102 645.083 23.5102 644.183 21.5752H640.178C639.143 23.6002 637.568 25.3552 635.768 26.9302H638.378C638.378 36.8752 634.958 43.1302 622.718 45.0652L621.998 42.5452C629.693 39.7552 631.808 35.8852 632.303 29.4052C628.973 31.3852 625.193 32.7802 621.638 33.4102L620.828 30.8902C627.038 28.4152 630.863 25.1752 632.978 21.5752H625.868V4.65519H656.603V21.5752H647.738C651.743 25.0402 656.243 26.5252 661.823 27.7852ZM631.943 7.67019V11.5852H638.153V7.67019H631.943ZM644.183 7.67019V11.5852H650.483V7.67019H644.183ZM631.943 14.5102V18.6052H638.153V14.5102H631.943ZM644.183 14.5102V18.6052H650.483V14.5102H644.183ZM707.948 32.3302H696.878V39.3052H700.253V33.2752H706.103V44.2102H700.253V42.2752H687.383V44.3002H681.578V33.4102H687.383V39.3052H690.713V32.3302H680.183V29.3602H690.713V25.6702H689.543C687.248 27.1552 684.863 28.3252 683.063 28.9552L681.848 26.8852C683.378 25.9402 685.043 24.7252 686.753 23.0602C684.908 23.6902 682.928 24.1852 680.858 24.5902L680.318 22.5652C679.823 23.0152 679.283 23.4652 678.698 23.9152V39.8002C678.698 44.8402 673.163 45.9202 667.763 42.6802L668.393 40.2502C672.038 40.7452 672.803 40.3852 672.803 38.6302V28.0102C671.678 28.7302 670.553 29.3152 669.473 29.8552L667.358 24.3202C668.978 23.8252 670.868 23.1052 672.803 22.2952V13.9702H668.123V10.9552H672.803V2.99019H678.698V10.9552H682.523V13.4302C685.628 10.5052 688.643 6.41019 690.443 2.31519L696.203 4.25019C695.843 4.88019 695.483 5.51019 695.033 6.1402H699.398L700.973 5.28519L706.643 8.48019C703.628 13.3852 699.308 17.3452 693.683 20.2702L695.123 20.9002C694.583 21.5302 693.998 22.1152 693.368 22.7002H705.113V25.6702H696.878V29.3602H707.948V32.3302ZM699.398 9.06519H692.603C692.468 9.20019 692.333 9.33519 692.198 9.51519C693.728 10.4152 695.393 11.6752 696.563 12.7102C697.733 11.4502 698.723 10.2352 699.398 9.06519ZM693.368 15.5902C692.333 14.1502 691.163 12.7102 690.173 11.4502C689.453 12.0802 688.688 12.7102 687.968 13.2952C689.048 14.5102 690.128 16.0852 690.893 17.3452C691.748 16.8052 692.603 16.1752 693.368 15.5902ZM681.803 17.8852L683.288 19.7302C682.658 20.4052 681.893 21.1252 681.128 21.8452C683.288 21.2152 685.313 20.4052 687.158 19.4602C686.663 17.9302 686.123 16.3552 685.583 14.9602C684.458 15.7252 683.333 16.3552 682.253 16.8502L681.038 14.7352C681.353 14.5102 681.623 14.2402 681.938 13.9702H678.698V19.5952C679.823 19.0102 680.858 18.4702 681.803 17.8852ZM717.308 15.0052C716.768 15.3652 716.228 15.7252 715.643 16.0402L714.293 14.0602C717.353 10.7752 719.558 7.04019 720.998 2.22519L726.893 3.75519C726.533 4.56519 726.128 5.37519 725.678 6.18519H735.758V8.30019C736.748 6.36519 737.558 4.25019 738.188 2.22519L744.038 3.93519C743.678 4.65519 743.228 5.42019 742.733 6.18519H754.658V9.15519H748.088C749.078 10.2802 750.113 11.6752 750.968 13.1602L746.198 14.7802C745.793 13.0252 745.253 10.9552 744.668 9.15519H740.483C738.863 11.0452 736.928 12.8002 734.993 14.0152H737.153V16.8952H731.303V19.0102H735.533V24.8602C737.423 21.1702 738.863 16.8052 739.808 11.9452L745.568 13.6552C745.163 14.7352 744.713 15.8152 744.218 16.8502H754.433V19.8652H742.688C741.113 22.6552 739.223 25.1302 737.063 27.0652L735.533 25.8052V25.9402H731.303V28.2802H738.593V31.2052H717.308V15.0052ZM723.698 9.15519C722.258 10.9552 720.593 12.5752 718.703 14.0152H727.208C726.713 12.5302 726.083 10.7752 725.408 9.15519H723.698ZM734.093 14.0152L732.788 12.5752C733.733 11.5852 734.543 10.4152 735.263 9.15519H729.233C730.133 9.96519 730.988 10.9552 731.798 12.0802L727.568 14.0152H734.093ZM722.933 19.0102H725.858V16.8952H722.933V19.0102ZM742.598 22.0702L744.488 20.5852C747.008 22.2502 750.383 25.5352 751.958 27.8752L746.963 31.2052C745.568 27.6952 744.218 25.0852 742.598 22.0702ZM730.448 23.3752V21.5752H722.933V23.3752H730.448ZM725.858 28.2802V25.9402H722.933V28.2802H725.858ZM750.788 40.1602H754.838V43.1302H714.968V40.1602H718.883V32.6452H750.788V40.1602ZM727.883 40.1602V35.6152H725.048V40.1602H727.883ZM736.253 40.1602V35.6152H733.418V40.1602H736.253ZM744.623 40.1602V35.6152H741.743V40.1602H744.623Z" fill="white"/>
</g>
<defs>
<filter id="filter0_d_1_541" x="0" y="0" width="760.838" height="52.9102" filterUnits="userSpaceOnUse" color-interpolation-filters="sRGB">
<feFlood flood-opacity="0" result="BackgroundImageFix"/>
<feColorMatrix in="SourceAlpha" type="matrix" values="0 0 0 0 0 0 0 0 0 0 0 0 0 0 0 0 0 0 127 0" result="hardAlpha"/>
<feOffset dx="2" dy="2"/>
<feGaussianBlur stdDeviation="2"/>
<feComposite in2="hardAlpha" operator="out"/>
<feColorMatrix type="matrix" values="0 0 0 0 0 0 0 0 0 0 0 0 0 0 0 0 0 0 0.25 0"/>
<feBlend mode="normal" in2="BackgroundImageFix" result="effect1_dropShadow_1_541"/>
<feBlend mode="normal" in="SourceGraphic" in2="effect1_dropShadow_1_541" result="shape"/>
</filter>
</defs>
</svg>
